<?xml version="1.0" encoding="UTF-8"?>
<svg width="60px" height="70px" viewBox="0 0 60 70" version="1.1" xmlns="http://www.w3.org/2000/svg" xmlns:xlink="http://www.w3.org/1999/xlink">
    <!-- Generator: Sketch 49 (51002) - http://www.bohemiancoding.com/sketch -->
    <title>university-with-a-flag</title>
    <desc>Created with Sketch.</desc>
    <defs></defs>
    <g id="Page-1" stroke="none" stroke-width="1" fill="none" fill-rule="evenodd">
        <g id="Main" transform="translate(-262.000000, -526.000000)" fill="#586C7D" fill-rule="nonzero">
            <g id="ABOUT-US" transform="translate(0.000000, 288.000000)">
                <g id="Group-2">
                    <g id="Group-9" transform="translate(167.000000, 238.000000)">
                        <g id="Group-4">
                            <g id="university-with-a-flag" transform="translate(95.000000, 0.000000)">
                                <path d="M56.9236295,64.4623251 L54.008242,64.4623251 L54.008242,53.4487713 L54.008242,41.4632892 L54.008242,29.8017391 C54.008242,28.3440454 52.7125142,27.0483176 51.2548204,27.0483176 L45.585879,27.0483176 C44.2901512,21.0555766 39.1072401,16.5205293 32.4666352,15.3867675 L32.4666352,13.2812098 L41.6986957,13.2812098 C43.1565217,13.2812098 44.4522495,12.147448 44.4522495,10.5277883 L44.4522495,4.53504726 C44.4522495,3.0773535 43.1565217,1.78162571 41.6986957,1.78162571 L32.3048015,1.78162571 C31.9808696,0.809829868 31.0090737,0 29.7132136,0 C28.2555198,0 26.9597921,1.29572779 26.9597921,2.75342155 L26.9597921,15.3867675 C20.3191871,16.3585633 14.97431,21.0555766 13.8405482,27.0483176 L8.17173913,27.0483176 C6.71404537,27.0483176 5.41831758,28.3440454 5.41831758,29.8017391 L5.41831758,41.4632892 L5.41831758,53.4487713 L5.41831758,64.4623251 L2.826862,64.4623251 C1.36916824,64.4623251 0.0734404537,65.596087 0.0734404537,67.215879 C0.0734404537,68.8356711 1.36916824,69.9693006 2.826862,69.9693006 L57.0854631,69.9693006 C58.5432892,69.9693006 59.839017,68.6735728 59.839017,67.215879 C59.839017,65.7580529 58.5432892,64.4623251 56.9236295,64.4623251 Z M25.5022306,32.5551607 L34.2483932,32.5551607 L34.2483932,38.7098677 L25.5022306,38.7098677 L25.5022306,32.5551607 Z M25.5022306,56.2021928 L34.2483932,56.2021928 L34.2483932,62.3568998 L25.5022306,62.3568998 L25.5022306,56.2021928 Z M39.5932703,56.2021928 L48.5012665,56.2021928 L48.5012665,62.3568998 L39.5932703,62.3568998 L39.5932703,56.2021928 Z M48.6633648,50.6952174 L39.5932703,50.6952174 L39.5932703,44.0546125 L48.5012665,44.0546125 L48.5012665,50.6952174 L48.6633648,50.6952174 Z M34.2482609,44.0547448 L34.2482609,50.6953497 L25.5020983,50.6953497 L25.5020983,44.0547448 L34.2482609,44.0547448 Z M20.1573535,50.6952174 L11.249225,50.6952174 L11.249225,44.0546125 L20.1573535,44.0546125 L20.1573535,50.6952174 Z M11.087259,56.2021928 L20.1573535,56.2021928 L20.1573535,62.3568998 L11.249225,62.3568998 L11.249225,56.2021928 L11.087259,56.2021928 Z M48.6633648,38.7098677 L39.5932703,38.7098677 L39.5932703,32.5551607 L48.5012665,32.5551607 L48.5012665,38.7098677 L48.6633648,38.7098677 Z M11.087259,32.5551607 L20.1573535,32.5551607 L20.1573535,38.7098677 L11.249225,38.7098677 L11.249225,32.5551607 L11.087259,32.5551607 Z" id="Shape"></path>
                            </g>
                        </g>
                    </g>
                </g>
            </g>
        </g>
    </g>
</svg>