<?xml version="1.0" encoding="UTF-8"?>
<svg width="14px" height="14px" viewBox="0 0 14 14" version="1.1" xmlns="http://www.w3.org/2000/svg" xmlns:xlink="http://www.w3.org/1999/xlink">
    <!-- Generator: Sketch 49 (51002) - http://www.bohemiancoding.com/sketch -->
    <title>call</title>
    <desc>Created with Sketch.</desc>
    <defs></defs>
    <g id="Page-1" stroke="none" stroke-width="1" fill="none" fill-rule="evenodd">
        <g id="Main-Page" transform="translate(-955.000000, -23.000000)" fill="#FFFFFF">
            <g id="Header">
                <g id="Phone-Number" transform="translate(946.000000, 14.000000)">
                    <g id="Group">
                        <g id="call" transform="translate(9.000000, 9.000000)">
                            <path d="M2.8,6.06666667 C3.88888889,8.24444444 5.75555556,10.0333333 7.93333333,11.2 L9.64444444,9.48888889 C9.87777778,9.25555556 10.1888889,9.17777778 10.4222222,9.33333333 C11.2777778,9.64444444 12.2111111,9.8 13.2222222,9.8 C13.6888889,9.8 14,10.1111111 14,10.5777778 L14,13.2222222 C14,13.6888889 13.6888889,14 13.2222222,14 C5.91111111,14 0,8.08888889 0,0.777777778 C0,0.311111111 0.311111111,0 0.777777778,0 L3.5,0 C3.96666667,0 4.27777778,0.311111111 4.27777778,0.777777778 C4.27777778,1.71111111 4.43333333,2.64444444 4.74444444,3.57777778 C4.82222222,3.81111111 4.74444444,4.12222222 4.58888889,4.35555556 L2.8,6.06666667 L2.8,6.06666667 Z" id="Shape"></path>
                        </g>
                    </g>
                </g>
            </g>
        </g>
    </g>
</svg>