<svg xmlns="http://www.w3.org/2000/svg" xmlns:xlink="http://www.w3.org/1999/xlink" width="14" height="14" version="1.1"><rect id="backgroundrect" width="100%" height="100%" x="0" y="0" fill="none" stroke="none"/>
    <!-- Generator: Sketch 49 (51002) - http://www.bohemiancoding.com/sketch -->
    <title>call</title>
    <desc>Created with Sketch.</desc>
    <defs/>
    
<g class="currentLayer" style=""><title>Layer 1</title><g id="Page-1" stroke="none" stroke-width="1" fill="#9b9b9b" fill-rule="evenodd" class="selected" fill-opacity="1">
        <g id="Main-Page" fill="#9b9b9b" fill-opacity="1">
            <g id="Header" fill="#9b9b9b" fill-opacity="1">
                <g id="Phone-Number" fill="#9b9b9b" fill-opacity="1">
                    <g id="Group" fill="#9b9b9b" fill-opacity="1">
                        <g id="call" fill="#9b9b9b" fill-opacity="1">
                            <path d="M2.7999999999999545,6.06666667 C3.8888888899999756,8.24444444 5.755555559999948,10.0333333 7.933333329999982,11.2 L9.64444444000003,9.48888889 C9.877777779999974,9.25555556 10.188888900000052,9.17777778 10.422222199999965,9.33333333 C11.277777799999967,9.644444440000001 12.21111110000004,9.8 13.222222200000033,9.8 C13.688888900000052,9.8 14,10.1111111 14,10.5777778 L14,13.222222200000001 C14,13.6888889 13.688888900000052,14 13.222222200000033,14 C5.911111109999979,14 0,8.08888889 0,0.7777777780000008 C0,0.3111111109999989 0.3111111109999456,0 0.7777777779999724,0 L3.5,0 C3.966666669999995,0 4.277777779999951,0.3111111109999989 4.277777779999951,0.7777777780000008 C4.277777779999951,1.711111110000001 4.433333329999982,2.644444440000001 4.744444440000052,3.577777779999998 C4.822222219999958,3.811111109999999 4.744444440000052,4.122222220000001 4.588888890000021,4.355555559999999 L2.7999999999999545,6.06666667 L2.7999999999999545,6.06666667 z" id="Shape" fill="#9b9b9b" fill-opacity="1"/>
                        </g>
                    </g>
                </g>
            </g>
        </g>
    </g></g></svg>