<?xml version="1.0" encoding="UTF-8"?>
<svg width="95px" height="17px" viewBox="0 0 95 17" version="1.1" xmlns="http://www.w3.org/2000/svg" xmlns:xlink="http://www.w3.org/1999/xlink">
    <!-- Generator: Sketch 49 (51002) - http://www.bohemiancoding.com/sketch -->
    <title>Logo</title>
    <desc>Created with Sketch.</desc>
    <defs></defs>
    <g id="Page-1" stroke="none" stroke-width="1" fill="none" fill-rule="evenodd">
        <g id="Main-Page" transform="translate(-126.000000, -3293.000000)">
            <g id="Group-22" transform="translate(126.000000, 3285.000000)">
                <g id="Logo" transform="translate(0.000000, 8.000000)">
                    <path d="M0.135304348,8.23095652 C0.135304348,3.77878261 3.71930435,0.194782609 8.17147826,0.194782609 C10.4198261,0.194782609 12.0448696,0.973913043 13.5586087,2.26504348 C13.7366957,2.44313043 13.7589565,2.71026087 13.5808696,2.88834783 L12.9798261,3.4893913 C12.8017391,3.712 12.6236522,3.68973913 12.4010435,3.46713043 C11.2434783,2.4653913 9.66295652,1.79756522 8.14921739,1.79756522 C4.632,1.79756522 1.93843478,4.75826087 1.93843478,8.20869565 C1.93843478,11.6368696 4.632,14.5975652 8.14921739,14.5975652 C10.085913,14.5975652 11.2212174,13.8184348 12.4010435,12.928 C12.6236522,12.749913 12.8017391,12.7721739 12.9353043,12.8612174 L13.6031304,13.4622609 C13.7812174,13.5958261 13.7366957,13.9074783 13.5808696,14.0633043 C12.0671304,15.5325217 10.1526957,16.2226087 8.17147826,16.2226087 C3.71930435,16.2226087 0.135304348,12.6831304 0.135304348,8.23095652 Z M35.6636522,15.4657391 L38.5353043,0.506434783 C38.5798261,0.328347826 38.757913,0.194782609 38.936,0.194782609 L39.2921739,0.194782609 C39.448,0.194782609 39.626087,0.306086957 39.6706087,0.439652174 L44.0782609,12.7053913 L44.1895652,12.7053913 L48.5304348,0.439652174 C48.5749565,0.306086957 48.7530435,0.194782609 48.9088696,0.194782609 L49.2650435,0.194782609 C49.4431304,0.194782609 49.6212174,0.328347826 49.6657391,0.506434783 L52.5373913,15.4657391 C52.6041739,15.7773913 52.4706087,16 52.1366957,16 L51.2462609,16 C51.0681739,16 50.890087,15.8441739 50.8455652,15.6883478 L48.8643478,4.224 L48.7753043,4.224 L44.6793043,15.9777391 C44.6347826,16.1113043 44.4344348,16.2226087 44.3008696,16.2226087 L43.9001739,16.2226087 C43.7666087,16.2226087 43.5662609,16.1113043 43.5217391,15.9777391 L39.3812174,4.224 L39.2921739,4.224 L37.3554783,15.6883478 C37.3332174,15.8441739 37.1328696,16 36.9547826,16 L36.0643478,16 C35.7304348,16 35.5968696,15.7773913 35.6636522,15.4657391 Z M55.9655652,15.5770435 L55.9655652,0.840347826 C55.9655652,0.61773913 56.1436522,0.417391304 56.3885217,0.417391304 L65.1593043,0.417391304 C65.4041739,0.417391304 65.5822609,0.61773913 65.5822609,0.840347826 L65.5822609,1.48591304 C65.5822609,1.70852174 65.4041739,1.90886957 65.1593043,1.90886957 L57.6796522,1.90886957 L57.6796522,7.34052174 L64.0685217,7.34052174 C64.2911304,7.34052174 64.4914783,7.54086957 64.4914783,7.76347826 L64.4914783,8.40904348 C64.4914783,8.65391304 64.2911304,8.832 64.0685217,8.832 L57.6796522,8.832 L57.6796522,14.5085217 L65.1593043,14.5085217 C65.4041739,14.5085217 65.5822609,14.7088696 65.5822609,14.9314783 L65.5822609,15.5770435 C65.5822609,15.7996522 65.4041739,16 65.1593043,16 L56.3885217,16 C56.1436522,16 55.9655652,15.7996522 55.9655652,15.5770435 Z M69.144,15.5770435 L69.144,0.595478261 C69.144,0.372869565 69.3443478,0.194782609 69.5669565,0.194782609 L70.1234783,0.194782609 L80.1631304,12.7053913 L80.2076522,12.7053913 L80.2076522,0.840347826 C80.2076522,0.61773913 80.3857391,0.417391304 80.6306087,0.417391304 L81.4097391,0.417391304 C81.6323478,0.417391304 81.8326957,0.61773913 81.8326957,0.840347826 L81.8326957,15.821913 C81.8326957,16.0445217 81.6323478,16.2226087 81.4097391,16.2226087 L81.0090435,16.2226087 L70.7913043,3.46713043 L70.7690435,3.46713043 L70.7690435,15.5770435 C70.7690435,15.7996522 70.5909565,16 70.346087,16 L69.5669565,16 C69.3443478,16 69.144,15.7996522 69.144,15.5770435 Z M88.5777391,15.5770435 L88.5777391,1.90886957 L84.7043478,1.90886957 C84.4594783,1.90886957 84.2813913,1.70852174 84.2813913,1.48591304 L84.2813913,0.840347826 C84.2813913,0.61773913 84.4594783,0.417391304 84.7043478,0.417391304 L94.1429565,0.417391304 C94.3878261,0.417391304 94.565913,0.61773913 94.565913,0.840347826 L94.565913,1.48591304 C94.565913,1.70852174 94.3878261,1.90886957 94.1429565,1.90886957 L90.2695652,1.90886957 L90.2695652,15.5770435 C90.2695652,15.7996522 90.0692174,16 89.8466087,16 L89.0006957,16 C88.778087,16 88.5777391,15.7996522 88.5777391,15.5770435 Z" id="C-MENT" fill="#18181A"></path>
                    <rect id="Rectangle-9" fill="#5192B3" x="17.0869565" y="1.34782609" width="6.95652174" height="6.95652174" rx="0.695652174"></rect>
                    <rect id="Rectangle-9-Copy" fill="#5192B3" x="17.0869565" y="9.69565217" width="6.95652174" height="6.95652174" rx="0.695652174"></rect>
                    <rect id="Rectangle-9-Copy-2" fill="#5192B3" x="25.4347826" y="9.69565217" width="6.95652174" height="6.95652174" rx="0.695652174"></rect>
                </g>
            </g>
        </g>
    </g>
</svg>