<?xml version="1.0" encoding="UTF-8"?>
<svg width="14px" height="14px" viewBox="0 0 14 14" version="1.1" xmlns="http://www.w3.org/2000/svg" xmlns:xlink="http://www.w3.org/1999/xlink">
    <!-- Generator: Sketch 49 (51002) - http://www.bohemiancoding.com/sketch -->
    <title>person</title>
    <desc>Created with Sketch.</desc>
    <defs></defs>
    <g id="Page-1" stroke="none" stroke-width="1" fill="none" fill-rule="evenodd">
        <g id="Main-Page" transform="translate(-240.000000, -371.000000)" fill="#FFFFFF">
            <g id="Group-3" transform="translate(215.000000, 192.000000)">
                <g id="Form" transform="translate(0.000000, 166.000000)">
                    <g id="Name">
                        <g id="person" transform="translate(25.000000, 13.000000)">
                            <path d="M7,7 C8.925,7 10.5,5.425 10.5,3.5 C10.5,1.575 8.925,0 7,0 C5.075,0 3.5,1.575 3.5,3.5 C3.5,5.425 5.075,7 7,7 L7,7 Z M7,8.75 C4.6375,8.75 0,9.8875 0,12.25 L0,14 L14,14 L14,12.25 C14,9.8875 9.3625,8.75 7,8.75 L7,8.75 Z" id="Shape"></path>
                        </g>
                    </g>
                </g>
            </g>
        </g>
    </g>
</svg>