<?xml version="1.0" encoding="UTF-8"?>
<svg width="68px" height="70px" viewBox="0 0 68 70" version="1.1" xmlns="http://www.w3.org/2000/svg" xmlns:xlink="http://www.w3.org/1999/xlink">
    <!-- Generator: Sketch 49 (51002) - http://www.bohemiancoding.com/sketch -->
    <title>cemetery-2</title>
    <desc>Created with Sketch.</desc>
    <defs></defs>
    <g id="Page-1" stroke="none" stroke-width="1" fill="none" fill-rule="evenodd">
        <g id="Main" transform="translate(-686.000000, -526.000000)" fill="#586C7D" fill-rule="nonzero">
            <g id="ABOUT-US" transform="translate(0.000000, 288.000000)">
                <g id="Group-2">
                    <g id="Group-9" transform="translate(167.000000, 238.000000)">
                        <g id="Group-3" transform="translate(428.000000, 0.000000)">
                            <g id="cemetery-2" transform="translate(91.000000, 0.000000)">
                                <path d="M65.5880897,61.1306043 L64.1325536,61.1306043 L64.1325536,53.8531969 C64.1325536,48.735692 60.3249903,44.5264133 55.3996101,43.8131774 L55.3996101,21.8323587 C55.3996101,9.79249513 45.607115,0 33.5672515,0 C21.5273879,0 11.7348928,9.79249513 11.7348928,21.8323587 L11.7348928,43.8131774 C6.80951267,44.5264133 3.00194932,48.735692 3.00194932,53.8531969 L3.00194932,61.1306043 L1.54641326,61.1306043 C0.742982456,61.1306043 0.090877193,61.7827096 0.090877193,62.5861404 L0.090877193,68.4081481 C0.090877193,69.2115789 0.742982456,69.8636842 1.54641326,69.8636842 L65.5879532,69.8636842 C66.391384,69.8636842 67.0434893,69.2115789 67.0434893,68.4081481 L67.0434893,62.5861404 C67.0434893,61.7827096 66.3915205,61.1306043 65.5880897,61.1306043 Z M11.7348928,61.1306043 L5.91288499,61.1306043 L5.91288499,53.8531969 C5.91288499,50.3366862 8.41637427,47.3995517 11.7348928,46.7212476 L11.7348928,61.1306043 Z M39.3892593,40.7537817 L27.7453801,40.7537817 C26.9419493,40.7537817 26.2898441,40.1016764 26.2898441,39.2982456 C26.2898441,38.4948148 26.9419493,37.8427096 27.7453801,37.8427096 L39.3892593,37.8427096 C40.1926901,37.8427096 40.8447953,38.4948148 40.8447953,39.2982456 C40.8447953,40.1016764 40.1926901,40.7537817 39.3892593,40.7537817 Z M42.3001949,32.0208382 L24.834308,32.0208382 C24.0308772,32.0208382 23.3787719,31.3687329 23.3787719,30.5653021 C23.3787719,29.7618713 24.0308772,29.1097661 24.834308,29.1097661 L42.3001949,29.1097661 C43.1036257,29.1097661 43.755731,29.7618713 43.755731,30.5653021 C43.755731,31.3687329 43.1036257,32.0208382 42.3001949,32.0208382 Z M42.3001949,23.2878947 L24.834308,23.2878947 C24.0308772,23.2878947 23.3787719,22.6357895 23.3787719,21.8323587 C23.3787719,21.0289279 24.0308772,20.3768226 24.834308,20.3768226 L42.3001949,20.3768226 C43.1036257,20.3768226 43.755731,21.0289279 43.755731,21.8323587 C43.755731,22.6357895 43.1036257,23.2878947 42.3001949,23.2878947 Z M61.2216179,61.1306043 L55.3996101,61.1306043 L55.3996101,46.7212476 C58.7181287,47.3995517 61.2216179,50.3366862 61.2216179,53.8531969 L61.2216179,61.1306043 Z" id="Shape"></path>
                            </g>
                        </g>
                    </g>
                </g>
            </g>
        </g>
    </g>
</svg>