<?xml version="1.0" encoding="UTF-8"?>
<svg width="80px" height="70px" viewBox="0 0 80 70" version="1.1" xmlns="http://www.w3.org/2000/svg" xmlns:xlink="http://www.w3.org/1999/xlink">
    <!-- Generator: Sketch 49 (51002) - http://www.bohemiancoding.com/sketch -->
    <title>shovel-and-ground</title>
    <desc>Created with Sketch.</desc>
    <defs></defs>
    <g id="Page-1" stroke="none" stroke-width="1" fill="none" fill-rule="evenodd">
        <g id="Main" transform="translate(-1108.000000, -526.000000)" fill="#586C7D" fill-rule="nonzero">
            <g id="ABOUT-US" transform="translate(0.000000, 288.000000)">
                <g id="Group-2">
                    <g id="Group-9" transform="translate(167.000000, 238.000000)">
                        <g id="Group-3-Copy" transform="translate(856.000000, 0.000000)">
                            <g id="shovel-and-ground" transform="translate(85.000000, 0.000000)">
                                <path d="M65.482,65.56 L68.63,69.226 L10.27,69.242 L10.984,64.732 L17.395,61.17 L16.398,53.62 L24.903,52.879 L25.343,48.949 L35.223,48.099 L35.79,41.037 L37.486,38.779 L41.437,39.629 L41.892,43.388 L48.212,42.99 L48.61,50.099 L55.719,52.87 L56.118,58.4 C56.728,59.249 59.83,57.887 60.374,58.679 C60.923,59.477 59.877,57.903 60.374,58.679 C59.675,61.957 64.521,62.516 64.521,62.516 L65.482,65.56 Z M57.757,41.839 L54.779,40.829 C53.769,41.61 53.386,42.424 53.681,43.272 L55.167,44.992 L57.42,44.241 C58.232,43.967 58.512,43.46 58.264,42.734 C58.192,42.48 58.026,42.175 57.757,41.839 Z M55.862,33.921 C55.204,33.605 54.526,33.55 53.79,33.794 C53.397,33.921 52.998,34.182 52.548,34.568 L52.662,38.094 L56.085,37.669 C56.981,36.647 57.322,35.821 57.115,35.184 C56.929,34.675 56.524,34.25 55.862,33.921 Z M66.343,38.819 L66.364,38.892 C66.24,38.933 65.618,38.788 64.5,38.436 C63.961,38.255 63.418,38.053 62.874,37.84 C62.098,38.099 61.621,38.871 61.435,40.145 C61.248,41.424 61.373,42.707 61.797,43.987 C61.905,44.34 62.18,44.712 62.605,45.147 L63.331,45.831 L64.594,45.764 C66.013,45.148 66.821,44.806 67.038,44.734 C67.546,44.428 67.897,43.781 68.068,42.818 C68.245,41.844 68.177,40.922 67.872,40.027 C67.533,39.001 67.036,38.592 66.343,38.819 Z M60.833,49.326 L60.093,52.003 C60.647,52.485 61.434,52.821 62.489,52.977 L64.985,52.138 L63.721,48.359 L60.833,49.326 Z M73.54,44.489 L72.794,47.172 C73.343,47.653 74.13,47.985 75.197,48.151 L77.692,47.317 L76.423,43.532 L73.54,44.489 Z M75.378,64.617 L74.638,67.294 C75.187,67.776 75.979,68.107 77.031,68.273 L79.537,67.44 L78.273,63.655 L75.378,64.617 Z M74.674,52.718 C73.23,51.108 71.438,50.657 69.304,51.372 L68.984,51.476 C67.979,52.367 67.14,53.671 66.447,55.359 C65.763,56.964 65.572,58.233 65.877,59.16 C65.908,59.232 66.571,59.834 67.85,60.983 C69.223,62.106 69.979,62.857 70.145,63.23 L74.189,61.878 C74.655,61.723 75.11,61.505 75.541,61.221 C75.98,60.941 76.338,60.61 76.644,60.257 C76.939,59.905 77.157,59.543 77.296,59.181 C77.426,58.824 77.446,58.487 77.332,58.16 C76.45,55.529 75.564,53.723 74.674,52.718 Z M33.378,35.534 C32.7,39.576 30.626,43.304 30.626,43.304 C30.626,43.304 26.365,43.63 22.409,42.554 C18.458,41.482 12.381,31.462 12.381,31.462 L18.618,27.464 L11.115,15.042 L5.271,13.763 L2.667,9.696 L1.533,10.424 L0,8.031 L12.073,0.295 L13.605,2.682 L12.471,3.407 L15.086,7.48 L13.791,13.385 L21.273,25.769 L27.482,21.779 C27.483,21.778 34.052,31.493 33.378,35.534 Z M6.532,11.956 L11.772,13.105 L12.917,7.873 L10.763,4.504 L4.381,8.597 L6.532,11.956 Z" id="Shape"></path>
                            </g>
                        </g>
                    </g>
                </g>
            </g>
        </g>
    </g>
</svg>