<?xml version="1.0" standalone="no"?>
<!DOCTYPE svg PUBLIC "-//W3C//DTD SVG 20010904//EN"
 "http://www.w3.org/TR/2001/REC-SVG-20010904/DTD/svg10.dtd">
<svg version="1.0" xmlns="http://www.w3.org/2000/svg"
 width="1588.000000pt" height="1588.000000pt" viewBox="0 0 1588.000000 1588.000000"
 preserveAspectRatio="xMidYMid meet">
<metadata>
Created by potrace 1.11, written by Peter Selinger 2001-2013
</metadata>
<g transform="translate(0.000000,1588.000000) scale(0.100000,-0.100000)"
fill="#000000" stroke="none">
<path d="M7600 15868 c-95 -14 -222 -65 -268 -108 -11 -11 -24 -20 -27 -20
-11 0 -86 -85 -127 -144 -72 -104 -149 -303 -172 -441 -3 -16 -9 -53 -14 -82
-5 -28 -7 -190 -5 -360 6 -457 7 -493 17 -493 5 0 3 -6 -3 -13 -6 -8 -9 -16
-6 -19 3 -2 7 -90 10 -194 3 -104 7 -250 10 -324 5 -145 13 -425 20 -690 3
-91 7 -235 9 -320 28 -882 28 -3306 1 -3760 -2 -30 -4 -84 -4 -120 0 -36 -1
-72 -1 -80 0 -8 -2 -37 -4 -65 -2 -27 -7 -126 -10 -220 -4 -93 -8 -204 -11
-245 -2 -41 -7 -127 -10 -190 -3 -63 -7 -127 -9 -142 -2 -16 1 -28 7 -28 5 0
5 -6 -2 -14 -6 -8 -11 -18 -9 -22 5 -19 -14 -187 -25 -227 -7 -23 -12 -49 -12
-57 0 -8 -2 -17 -5 -20 -3 -3 -14 -31 -24 -62 -11 -32 -23 -58 -27 -58 -4 0
-11 -9 -14 -20 -10 -33 -71 -88 -107 -98 -18 -5 -47 -5 -65 0 -70 18 -181 167
-224 299 -11 35 -23 71 -26 79 -9 23 -14 42 -17 71 -1 14 -6 31 -10 38 -5 7
-6 15 -3 18 3 3 2 16 -3 29 -5 13 -12 49 -16 81 -3 32 -8 72 -10 88 -12 85
-17 226 -16 465 0 289 4 395 14 405 4 4 3 17 -2 30 -5 13 -6 26 -2 29 8 8 15
210 25 687 2 91 7 170 10 176 4 7 4 14 -1 17 -5 3 -6 27 -3 53 3 26 6 91 6
143 0 52 4 98 10 102 6 5 6 8 -2 8 -7 0 -10 9 -7 22 4 21 5 37 3 88 0 8 3 188
7 400 10 586 6 2155 -6 2155 0 0 -3 56 -5 125 -7 185 -15 313 -20 318 -3 3 0
11 6 19 7 8 7 13 2 13 -6 0 -11 21 -11 48 -2 55 -10 177 -12 177 -1 0 -4 20
-6 45 -6 78 -13 144 -19 180 -3 19 -7 55 -10 80 -2 25 -6 55 -8 66 -3 12 -8
37 -11 55 -10 58 -23 123 -26 127 -2 1 -3 5 -4 10 -12 48 -38 122 -46 127 -6
4 -8 10 -5 15 6 10 -67 90 -83 90 -7 0 -12 4 -12 8 0 4 -26 21 -57 37 -32 16
-61 32 -64 37 -3 5 -10 8 -15 7 -5 -2 -26 5 -48 14 -21 9 -46 17 -56 17 -9 0
-20 3 -24 7 -8 8 -27 12 -76 16 -19 1 -39 5 -45 8 -12 5 -103 2 -160 -6 -61
-9 -166 -44 -207 -71 -21 -13 -40 -24 -44 -24 -16 0 -135 -132 -162 -180 -36
-66 -102 -266 -107 -325 -1 -11 -5 -27 -8 -35 -5 -14 -9 -30 -22 -110 -2 -14
-7 -41 -11 -60 -4 -19 -8 -49 -9 -66 -1 -17 -4 -35 -7 -40 -2 -5 -4 -24 -3
-41 0 -18 -2 -33 -5 -33 -3 0 -6 -8 -6 -17 -1 -10 -4 -45 -8 -78 -9 -84 -15
-141 -22 -210 -3 -33 -8 -80 -10 -105 -2 -25 -6 -67 -8 -95 -3 -27 -8 -88 -11
-135 -4 -47 -8 -115 -8 -152 -1 -38 -4 -68 -7 -68 -10 0 -11 -144 -6 -877 1
-167 5 -306 9 -309 3 -4 2 -15 -3 -25 -7 -12 -7 -20 0 -24 7 -4 7 -12 0 -25
-7 -13 -7 -21 0 -25 7 -4 7 -12 0 -24 -5 -10 -6 -21 -3 -25 4 -4 8 -145 9
-314 6 -732 12 -1121 19 -1131 3 -6 1 -11 -5 -11 -6 0 -8 -5 -5 -11 7 -10 14
-509 18 -1184 1 -193 6 -313 12 -317 6 -5 5 -8 -4 -8 -10 0 -11 -3 -2 -14 9
-11 9 -15 -1 -19 -8 -3 -8 -6 -2 -6 8 -1 9 -14 4 -40 -4 -22 -4 -45 0 -51 4
-7 4 -27 0 -46 -4 -18 -5 -35 -2 -38 8 -9 9 -50 0 -68 -5 -10 -5 -18 -1 -18 4
0 9 -177 10 -393 3 -685 9 -1012 16 -1024 4 -6 3 -14 -3 -18 -6 -4 -8 -11 -4
-16 3 -5 7 -37 10 -72 6 -77 12 -132 14 -132 1 0 3 -18 5 -40 2 -22 6 -58 8
-80 16 -122 19 -142 23 -165 3 -14 8 -43 10 -65 2 -22 7 -51 11 -65 3 -14 7
-34 8 -45 6 -41 14 -91 19 -115 5 -24 38 -216 51 -290 3 -19 15 -78 26 -130
11 -52 31 -153 45 -225 14 -71 29 -143 34 -160 5 -16 11 -43 13 -60 3 -16 14
-68 25 -115 12 -47 24 -98 27 -115 8 -39 13 -60 15 -60 2 0 5 -14 14 -65 8
-39 13 -64 16 -67 2 -2 4 -12 5 -23 1 -11 4 -23 5 -27 2 -5 4 -12 5 -18 2 -5
4 -12 5 -15 1 -3 3 -13 6 -22 2 -10 6 -26 8 -35 3 -10 5 -20 6 -23 1 -3 3 -9
5 -15 1 -5 3 -12 4 -15 1 -3 5 -16 8 -30 6 -33 9 -42 16 -60 4 -8 8 -27 11
-42 3 -15 7 -31 10 -36 3 -5 7 -22 10 -38 3 -16 15 -60 26 -99 12 -38 22 -76
22 -82 1 -7 5 -13 9 -13 4 0 5 -9 2 -20 -3 -11 0 -20 6 -20 6 0 11 -10 11 -23
0 -13 3 -27 7 -31 4 -3 8 -12 9 -19 3 -21 42 -130 66 -187 34 -78 52 -111 93
-164 19 -25 32 -46 29 -46 -3 0 1 -7 10 -15 8 -8 49 -68 92 -132 43 -65 82
-122 86 -128 5 -5 32 -41 61 -80 28 -38 54 -72 57 -75 3 -3 30 -34 60 -69 30
-36 86 -94 124 -130 38 -36 76 -73 85 -81 31 -30 117 -97 186 -146 39 -27 72
-52 73 -56 2 -5 8 -8 13 -8 6 0 48 -23 95 -51 46 -28 90 -52 98 -53 8 -1 20
-7 27 -12 12 -10 44 -25 59 -28 3 -1 14 -7 25 -13 26 -14 200 -80 215 -81 3 0
23 -7 45 -16 22 -9 51 -18 65 -20 14 -3 26 -5 28 -7 1 -1 7 -3 12 -4 6 -1 12
-4 15 -5 3 -1 8 -3 13 -5 37 -10 61 -15 85 -19 15 -3 35 -7 45 -10 30 -9 76
-18 100 -20 12 0 22 -4 22 -7 0 -3 12 -6 28 -6 15 0 44 -4 65 -7 38 -6 83 -13
152 -22 96 -13 460 -24 480 -15 5 3 26 6 45 7 48 2 130 12 160 20 14 3 40 6
58 7 17 1 32 5 32 9 0 5 3 7 8 7 4 -1 9 0 12 1 3 1 14 3 25 5 47 8 141 40 147
50 4 5 8 7 8 3 0 -16 193 77 278 133 102 69 137 94 152 109 9 8 43 38 76 67
32 28 75 66 95 85 20 18 61 53 90 78 30 25 67 58 84 73 16 16 35 32 41 35 44
27 191 277 239 407 37 97 52 145 48 145 -3 0 0 7 7 15 7 8 9 15 5 15 -4 0 -2
7 5 15 7 8 10 15 7 15 -4 0 0 18 8 40 8 22 12 40 10 40 -2 0 2 18 10 40 8 22
14 42 15 45 0 3 0 6 1 8 0 1 2 18 4 37 1 19 3 35 4 35 7 0 26 141 35 270 3 28
5 52 6 55 4 12 1 212 -5 275 -3 39 -7 87 -8 107 -1 21 -5 38 -9 38 -4 0 -5 7
-2 15 3 8 2 20 -2 27 -4 6 -9 26 -11 43 -2 16 -6 37 -10 45 -3 8 -8 24 -10 35
-2 11 -6 27 -10 35 -8 19 -14 42 -15 58 -1 6 -5 12 -10 12 -4 0 -7 3 -6 7 1 8
-5 24 -34 88 -26 59 -90 165 -99 165 -5 0 -9 5 -9 12 0 13 -87 116 -145 171
-51 49 -168 138 -220 168 -67 38 -120 63 -127 61 -5 -1 -8 2 -8 6 0 5 -19 15
-42 22 -24 8 -49 18 -55 23 -7 5 -13 6 -13 2 0 -4 -6 -3 -12 2 -7 6 -26 14
-43 18 -45 12 -45 12 -47 15 -5 3 -37 10 -113 25 -16 3 -37 8 -45 11 -8 3 -35
8 -60 11 -25 3 -63 8 -85 12 -48 9 -342 6 -405 -3 -25 -4 -58 -9 -75 -11 -44
-6 -85 -15 -130 -27 -22 -6 -47 -12 -55 -13 -8 -2 -16 -4 -17 -5 -2 -2 -6 -3
-10 -4 -24 -5 -94 -32 -143 -54 -30 -14 -58 -25 -62 -24 -5 1 -8 -2 -8 -8 0
-5 -5 -10 -10 -10 -9 0 -87 -47 -100 -60 -3 -3 -23 -18 -45 -35 -66 -49 -170
-163 -197 -214 -7 -14 -16 -28 -20 -31 -25 -19 -92 -220 -106 -318 -9 -60 -7
-266 3 -289 4 -10 9 -29 11 -43 2 -14 7 -34 13 -45 5 -11 16 -36 24 -55 39
-88 125 -188 222 -256 95 -68 273 -139 420 -168 17 -4 41 -9 55 -11 14 -3 41
-7 60 -10 19 -3 46 -7 60 -9 30 -6 177 -17 273 -20 50 -1 76 2 97 15 44 27 80
61 80 76 0 7 4 13 8 13 13 0 32 63 32 104 0 68 -38 119 -137 183 -69 45 -99
59 -263 125 -269 107 -317 143 -289 211 19 46 107 128 177 165 144 77 248 88
419 46 206 -50 369 -125 453 -207 39 -39 60 -66 60 -80 0 -7 5 -18 11 -24 14
-14 18 -122 7 -188 -15 -90 -17 -100 -23 -125 -3 -14 -8 -32 -10 -40 -2 -8 -4
-16 -5 -17 -2 -2 -4 -7 -5 -13 -1 -5 -4 -12 -5 -15 -1 -3 -3 -8 -4 -12 -5 -22
-21 -63 -42 -110 -13 -28 -24 -56 -24 -62 0 -5 -3 -11 -7 -13 -5 -2 -21 -27
-36 -57 -33 -61 -138 -210 -150 -210 -4 -1 -18 -11 -30 -24 -12 -13 -38 -34
-57 -47 -19 -13 -37 -27 -40 -30 -5 -5 -100 -53 -110 -55 -3 0 -39 -18 -80
-39 -181 -92 -401 -166 -495 -166 -11 0 -47 -2 -80 -4 -33 -2 -89 1 -125 6
-36 6 -73 10 -82 10 -10 -1 -18 4 -18 9 0 6 -4 8 -9 5 -8 -5 -51 6 -101 27
-14 6 -27 11 -30 12 -75 24 -344 179 -396 230 -6 5 -28 24 -49 40 -106 82
-325 328 -325 365 0 5 -4 10 -8 10 -5 0 -29 39 -53 88 -24 48 -48 90 -54 94
-5 4 -7 8 -3 8 3 0 -4 26 -16 58 -24 61 -37 108 -62 232 -3 14 -6 55 -7 92 -1
38 -6 68 -10 68 -5 0 -5 6 0 12 4 7 8 31 9 53 1 35 9 121 20 220 2 17 5 37 7
45 9 38 24 110 31 150 2 8 6 22 9 30 3 8 17 50 32 93 26 76 73 184 98 221 6
11 28 45 47 75 19 31 49 74 65 96 39 51 237 250 294 295 24 19 49 40 55 45 6
6 29 24 51 40 22 17 42 32 45 35 9 10 184 137 250 181 36 24 67 47 70 50 4 5
41 28 128 80 65 38 182 96 237 118 33 12 76 29 95 36 19 8 51 17 70 21 19 3
39 9 44 12 5 3 21 6 35 7 14 2 51 6 81 10 165 23 398 0 593 -59 26 -8 47 -12
47 -9 0 3 7 0 15 -7 8 -7 15 -9 15 -5 0 4 7 2 15 -5 8 -7 15 -9 15 -5 0 4 6 3
13 -3 6 -5 28 -13 47 -17 19 -4 85 -26 145 -50 106 -41 143 -55 148 -54 1 0
86 -42 188 -94 165 -83 320 -176 387 -232 50 -42 132 -129 132 -141 0 -3 11
-20 24 -37 33 -46 189 -340 187 -354 0 -2 11 -28 25 -60 14 -31 26 -65 27 -75
1 -10 5 -18 9 -18 4 0 8 -6 8 -13 0 -7 9 -32 20 -55 11 -23 20 -45 19 -49 -1
-4 0 -11 1 -15 1 -5 3 -11 5 -15 1 -5 4 -15 8 -23 7 -18 31 -93 32 -100 0 -3
6 -15 13 -26 6 -12 9 -23 7 -26 -2 -2 2 -25 10 -50 7 -25 11 -49 8 -52 -4 -3
-2 -6 3 -6 5 0 10 -8 11 -17 0 -10 4 -29 7 -43 3 -14 8 -36 11 -50 3 -14 7
-36 10 -50 30 -138 37 -323 21 -565 -18 -267 -25 -361 -31 -395 -4 -23 -11
-73 -19 -137 -2 -15 -7 -39 -11 -53 -3 -14 -8 -38 -10 -55 -2 -16 -4 -31 -6
-32 -1 -2 -3 -7 -4 -13 -1 -5 -3 -11 -4 -12 -2 -2 -4 -14 -7 -28 -2 -14 -14
-55 -25 -92 -11 -37 -20 -71 -19 -74 1 -4 -3 -10 -9 -13 -6 -4 -12 -16 -14
-27 -3 -25 -78 -177 -92 -186 -5 -4 -6 -8 -2 -8 5 0 -5 -18 -22 -39 -17 -21
-31 -42 -31 -45 0 -9 -90 -118 -185 -225 -74 -83 -340 -347 -419 -416 -37 -33
-73 -65 -80 -70 -78 -72 -363 -285 -382 -285 -4 0 -15 -6 -23 -14 -9 -8 -56
-31 -106 -51 -49 -21 -108 -46 -130 -55 -56 -24 -78 -33 -90 -34 -10 -1 -76
-22 -105 -33 -23 -9 -31 -11 -95 -28 -84 -21 -137 -31 -305 -60 -106 -18 -490
-26 -580 -11 -19 3 -57 8 -85 11 -27 3 -66 7 -85 11 -19 3 -44 6 -55 8 -19 3
-37 6 -110 22 -16 3 -40 7 -52 8 -13 0 -23 5 -23 9 0 5 -8 7 -17 5 -10 -1 -23
1 -29 4 -6 4 -25 10 -42 13 -18 3 -51 11 -75 19 -65 21 -188 58 -201 61 -6 1
-18 4 -26 7 -13 5 -93 29 -112 34 -5 1 -10 3 -13 4 -3 1 -9 4 -15 5 -5 1 -11
3 -12 5 -2 1 -10 3 -18 5 -48 11 -375 137 -495 190 -117 52 -270 129 -277 139
-5 7 -8 7 -8 1 0 -7 -3 -7 -8 0 -4 6 -25 19 -47 30 -22 11 -42 22 -45 25 -5 5
-32 21 -75 44 -65 36 -277 189 -334 242 -228 210 -337 348 -449 569 -65 129
-102 207 -102 220 -1 6 -8 20 -16 32 -8 13 -12 23 -9 23 3 0 0 10 -7 23 -6 12
-13 28 -14 36 -2 8 -6 17 -11 20 -4 3 -10 13 -12 21 -2 8 -4 20 -6 25 -1 6 -7
21 -13 35 -14 35 -29 74 -31 82 -1 4 -20 58 -42 120 -43 120 -106 313 -134
413 -10 33 -20 67 -23 75 -3 8 -13 42 -23 75 -9 33 -25 85 -34 115 -9 30 -18
62 -20 70 -5 18 -35 139 -40 160 -2 8 -4 15 -6 15 -1 0 -3 9 -5 20 -1 11 -12
52 -22 92 -11 40 -17 74 -14 77 3 4 0 6 -7 6 -7 0 -11 6 -8 14 3 7 0 19 -6 25
-6 6 -8 11 -5 11 3 0 2 17 -3 38 -5 20 -12 48 -15 62 -3 14 -7 34 -9 45 -2 11
-7 31 -9 45 -3 14 -8 34 -10 45 -2 11 -10 43 -16 70 -15 62 -17 73 -25 121 -8
45 -13 69 -15 69 -1 0 -3 16 -5 36 -1 20 -6 47 -10 60 -5 13 -9 38 -10 54 -2
17 -8 62 -13 100 -17 108 -24 201 -26 331 -1 66 -5 125 -10 132 -4 7 -4 12 1
12 9 0 8 101 -1 125 -3 8 -1 15 5 15 6 0 8 4 5 9 -3 5 -8 83 -11 173 -6 213
-18 461 -31 633 -2 33 -6 98 -9 145 -4 47 -8 108 -10 135 -10 116 -17 182 -20
205 -6 42 -15 122 -20 185 -3 33 -7 71 -9 85 -5 27 -16 107 -22 155 -3 28 -19
127 -30 185 -2 14 -13 68 -25 120 -11 52 -21 104 -24 115 -2 11 -4 21 -5 23
-2 1 -4 7 -5 12 -1 6 -3 11 -4 13 -2 1 -4 13 -7 27 -2 14 -11 43 -20 65 -9 22
-18 48 -19 58 -11 54 -130 246 -215 348 -61 72 -178 189 -190 189 -5 0 -13 6
-17 13 -4 7 -24 24 -43 37 -19 13 -37 27 -40 30 -23 28 -307 173 -321 164 -5
-3 -9 -1 -9 5 0 5 -24 17 -52 27 -29 9 -59 21 -65 27 -7 5 -13 6 -13 2 0 -4
-6 -3 -12 2 -7 6 -21 9 -30 8 -10 -2 -18 1 -18 5 0 14 -54 0 -73 -19 -9 -9
-18 -33 -18 -52 -1 -39 10 -139 16 -150 6 -8 75 -247 78 -269 2 -8 5 -19 9
-25 3 -5 9 -23 12 -40 10 -46 18 -88 21 -105 1 -8 5 -23 9 -32 4 -9 5 -22 1
-28 -3 -5 -2 -10 3 -10 5 0 9 -15 9 -32 0 -18 4 -69 8 -113 4 -44 8 -115 9
-157 0 -43 3 -78 6 -78 3 0 6 -28 6 -63 2 -70 12 -318 19 -482 3 -60 8 -166
10 -235 3 -69 7 -179 10 -245 3 -66 7 -159 8 -207 1 -49 4 -88 7 -88 3 0 6
-44 7 -98 3 -193 8 -312 13 -312 3 0 6 -28 6 -63 1 -59 7 -160 19 -347 4 -47
8 -110 10 -140 2 -30 7 -91 11 -135 4 -44 7 -95 7 -113 0 -17 3 -32 6 -32 3 0
7 -24 7 -53 1 -53 9 -161 18 -232 2 -22 7 -71 10 -110 3 -38 8 -86 11 -105 2
-19 7 -59 11 -89 3 -30 7 -61 9 -70 1 -9 6 -45 10 -81 11 -101 62 -396 95
-548 17 -75 33 -148 36 -162 13 -60 67 -271 85 -335 11 -38 25 -88 32 -110 6
-22 15 -46 20 -52 5 -7 7 -13 4 -13 -4 0 0 -18 8 -40 8 -22 12 -40 8 -40 -3 0
-1 -6 5 -13 6 -6 11 -16 12 -22 6 -28 69 -225 80 -250 5 -11 21 -56 36 -100
28 -84 146 -389 169 -440 19 -42 28 -69 27 -77 -1 -5 2 -8 7 -8 7 0 15 -17 26
-60 0 -3 11 -25 23 -49 12 -25 22 -51 22 -58 0 -7 4 -13 10 -13 5 0 9 -3 8 -8
-1 -4 8 -29 20 -55 12 -27 22 -53 22 -58 0 -5 4 -9 10 -9 5 0 9 -3 8 -7 -3 -8
141 -304 151 -313 3 -3 14 -21 23 -40 32 -62 73 -137 84 -151 6 -8 22 -34 35
-59 13 -25 28 -49 32 -55 4 -5 29 -44 54 -85 26 -41 51 -77 55 -78 4 -2 8 -10
8 -18 0 -8 5 -14 10 -14 6 0 10 -4 10 -10 0 -5 21 -38 47 -72 165 -219 276
-333 433 -448 88 -64 217 -171 350 -290 15 -14 47 -41 70 -60 23 -19 47 -39
54 -45 24 -21 124 -94 181 -133 69 -46 275 -155 275 -146 0 3 11 -1 25 -10 14
-9 25 -14 25 -10 0 4 6 2 13 -3 10 -9 46 -21 165 -59 7 -2 13 -3 15 -3 1 0 16
-5 32 -11 17 -7 38 -14 48 -16 41 -10 64 -15 91 -20 16 -2 33 -7 38 -10 9 -6
38 -12 83 -18 17 -2 51 -9 78 -15 26 -6 64 -14 85 -16 20 -3 48 -8 62 -10 28
-5 78 -13 130 -19 19 -3 52 -7 73 -10 72 -11 103 -15 182 -21 44 -4 91 -9 105
-11 14 -2 59 -7 100 -10 41 -3 98 -7 125 -9 150 -11 358 -19 495 -19 155 0
405 11 451 19 13 2 49 7 79 10 89 8 208 26 330 50 13 3 42 7 64 11 22 3 44 8
48 11 5 2 21 7 36 9 63 11 160 36 257 64 39 12 77 23 85 25 8 2 27 8 43 14 15
6 27 8 27 5 0 -4 6 -1 14 5 7 6 53 24 102 40 113 37 356 139 365 152 3 6 8 9
11 7 5 -3 169 72 178 82 7 7 64 32 69 30 2 -1 7 2 10 7 3 5 35 26 71 45 73 40
149 84 188 111 15 9 35 20 45 23 9 4 17 11 17 16 0 5 5 6 10 3 6 -3 10 -2 10
2 0 5 18 19 40 33 22 14 40 28 40 32 0 5 4 8 10 8 8 0 154 98 193 130 7 5 41
32 77 59 36 28 74 59 85 71 12 11 26 20 32 20 6 0 13 4 15 9 2 5 23 25 48 46
208 172 283 250 375 398 44 70 86 135 93 145 7 9 25 37 40 62 16 25 37 59 47
75 11 17 29 46 40 66 57 100 141 235 150 241 5 4 6 8 2 8 -5 0 -1 7 7 16 9 8
14 20 11 25 -4 5 -2 9 3 9 5 0 12 8 16 18 3 9 24 49 46 87 22 39 47 84 56 100
9 17 22 33 28 37 6 4 8 8 4 8 -4 0 32 80 81 177 105 211 134 274 134 291 0 6
4 12 8 12 4 0 11 10 15 22 3 12 13 37 22 57 9 20 17 45 19 56 2 10 7 22 11 25
4 3 8 10 9 15 1 6 16 46 33 90 17 44 32 87 34 95 2 8 6 22 9 30 7 15 56 183
62 210 2 8 4 15 5 15 1 0 3 7 5 15 1 8 8 42 16 75 7 33 13 65 15 70 3 18 13
79 21 140 10 74 9 332 -1 440 -4 44 -10 100 -12 125 -2 25 -6 61 -9 80 -2 19
-7 58 -10 85 -3 28 -8 68 -11 90 -9 67 -15 119 -18 150 -2 17 -6 48 -10 70 -8
46 -15 102 -20 160 -2 22 -5 40 -6 40 -3 0 -8 40 -14 115 -3 30 -8 69 -11 85
-4 17 -8 48 -10 70 -2 22 -6 69 -10 105 -4 36 -9 76 -10 90 -2 14 -4 25 -5 25
0 0 -3 34 -6 75 -9 137 -12 175 -14 175 -3 0 -9 96 -13 218 -2 64 -7 120 -10
124 -4 3 -1 13 6 21 7 9 7 13 1 9 -8 -5 -10 102 -8 391 2 218 5 422 8 452 3
30 8 89 11 130 2 41 7 93 10 115 9 79 16 141 20 185 2 25 4 45 5 45 1 0 4 11
5 25 2 14 7 39 10 55 3 17 7 41 9 55 2 14 5 25 6 25 1 0 3 11 4 25 2 14 6 39
10 55 4 17 10 39 13 50 3 11 6 28 6 38 1 9 4 17 7 17 3 0 7 14 8 32 2 17 8 38
14 45 6 7 8 13 5 13 -4 0 0 19 9 41 8 23 16 51 19 63 2 12 36 127 76 256 39
129 75 249 79 265 5 17 18 61 29 99 11 38 18 73 15 77 -3 5 -1 9 3 9 7 0 31
76 49 153 1 4 3 9 4 12 1 3 3 8 4 13 1 4 7 25 14 46 6 22 9 43 7 47 -3 4 -1 9
5 11 5 1 11 17 13 33 2 17 6 35 9 40 5 9 11 32 24 88 2 9 6 25 8 35 2 9 9 29
15 45 6 15 8 27 6 27 -2 0 0 11 5 25 5 14 12 37 15 50 3 14 7 37 11 52 3 15 7
30 9 34 3 4 7 24 11 45 3 22 9 43 12 49 3 5 7 16 7 25 1 8 9 49 19 90 9 41 18
86 20 100 3 14 5 25 6 25 1 0 4 11 6 25 2 14 12 63 21 110 8 47 17 94 19 105
27 162 34 370 15 442 -6 21 -11 41 -11 45 -1 10 -28 88 -39 113 -5 11 -16 37
-25 57 -18 41 -78 123 -110 150 -12 10 -50 33 -86 50 -62 31 -70 33 -180 32
-164 -2 -280 -43 -428 -153 -102 -76 -252 -227 -252 -253 0 -6 -3 -9 -6 -5 -3
3 -24 -20 -46 -51 -79 -114 -88 -127 -103 -147 -19 -23 -162 -314 -195 -395
-12 -30 -26 -64 -31 -75 -35 -85 -57 -145 -52 -145 3 0 0 -6 -6 -13 -6 -8 -8
-17 -4 -20 3 -4 0 -7 -7 -7 -7 0 -11 -2 -8 -6 5 -4 -9 -50 -45 -144 -9 -26
-94 -336 -103 -377 -1 -6 -11 -53 -23 -105 -18 -83 -27 -128 -46 -245 -3 -18
-7 -45 -10 -60 -6 -42 -13 -143 -20 -298 -6 -155 -14 -294 -20 -370 -2 -27 -7
-86 -10 -130 -3 -44 -8 -96 -11 -116 -2 -20 -7 -65 -9 -100 -2 -35 -5 -64 -6
-64 0 0 -2 -11 -4 -25 -6 -58 -16 -139 -21 -161 -2 -13 -6 -44 -9 -69 -2 -25
-5 -45 -5 -45 -2 0 -7 -29 -13 -75 -5 -30 -10 -60 -31 -156 -2 -12 -7 -38 -10
-59 -4 -20 -8 -40 -11 -44 -2 -4 -6 -18 -8 -32 -3 -13 -13 -51 -23 -84 -10
-33 -19 -62 -19 -65 -1 -3 -8 -18 -15 -35 -7 -16 -13 -33 -12 -37 1 -5 -3 -8
-9 -8 -5 0 -8 -4 -4 -9 3 -5 0 -15 -7 -23 -7 -7 -14 -20 -16 -28 -2 -8 -7 -17
-11 -20 -4 -3 -13 -20 -20 -37 -8 -18 -17 -33 -22 -33 -4 0 -11 -9 -14 -21 -7
-20 -53 -92 -85 -133 -27 -35 -74 -76 -93 -82 -24 -8 -77 15 -77 32 0 8 -5 14
-11 14 -5 0 -7 5 -4 10 3 6 2 10 -3 10 -5 0 -15 19 -22 43 -8 23 -17 47 -22
53 -6 9 -23 71 -44 169 -8 37 -21 146 -38 315 -2 19 -6 80 -10 135 -4 55 -9
116 -11 135 -2 19 -5 72 -6 118 -2 45 -7 82 -12 82 -5 0 -4 6 2 13 6 8 8 16 5
19 -5 6 -7 47 -18 355 -3 68 -7 127 -11 133 -3 5 -1 10 5 10 6 0 9 4 5 9 -8
13 -18 498 -17 851 0 238 8 615 13 615 1 0 4 101 13 383 3 95 8 178 11 183 4
5 1 9 -5 9 -6 0 -8 5 -4 12 4 7 9 41 10 77 1 37 5 143 8 236 3 94 8 222 11
285 3 63 7 186 9 273 3 87 7 161 10 164 3 3 1 13 -4 23 -5 10 -6 20 -3 24 4 4
8 44 9 89 1 45 5 161 9 257 9 263 15 440 19 591 2 75 6 142 10 148 4 6 2 11
-4 11 -7 0 -8 6 -1 18 6 11 6 24 0 35 -6 9 -6 17 -2 17 4 0 9 62 10 138 6 374
5 611 -1 652 -3 25 -8 59 -11 75 -2 17 -11 64 -20 105 -9 41 -18 83 -20 93
-41 192 -185 529 -297 694 -98 144 -253 277 -350 299 -43 10 -151 12 -182 3
-27 -8 -61 -16 -103 -23 -7 -1 -16 -5 -19 -9 -4 -4 -14 -7 -23 -7 -29 -1 -151
-69 -193 -107 -36 -35 -123 -151 -121 -163 0 -3 -4 -16 -10 -30 -6 -14 -11
-27 -12 -30 -2 -10 -37 -115 -42 -130 -3 -8 -7 -19 -8 -25 -2 -5 -11 -37 -21
-70 -10 -33 -19 -64 -20 -70 -1 -5 -14 -51 -28 -101 -34 -118 -36 -127 -44
-204 -12 -132 -5 -551 13 -730 2 -19 7 -78 10 -130 4 -52 8 -111 10 -130 2
-19 6 -71 9 -115 4 -44 8 -102 11 -130 8 -85 17 -188 21 -245 2 -30 6 -77 8
-105 3 -27 7 -79 10 -115 3 -36 8 -96 11 -134 3 -38 8 -101 10 -140 2 -39 5
-71 6 -71 1 0 3 -25 4 -55 4 -68 14 -195 21 -275 2 -33 6 -90 8 -126 1 -36 6
-71 10 -77 4 -7 2 -12 -4 -12 -6 0 -8 -5 -4 -11 4 -7 8 -39 10 -73 1 -33 6
-113 9 -176 10 -196 15 -339 19 -498 2 -84 6 -155 9 -158 3 -3 2 -17 -3 -30
-5 -13 -6 -24 -2 -24 5 0 7 -845 2 -1007 0 -7 0 -19 0 -25 -1 -73 -18 -433
-25 -533 -3 -33 -7 -87 -9 -120 -2 -33 -7 -76 -11 -96 -3 -20 -7 -51 -9 -70
-9 -76 -17 -137 -22 -160 -5 -24 -7 -34 -19 -104 -14 -86 -46 -222 -60 -257
-8 -21 -13 -38 -10 -38 3 0 -6 -25 -20 -55 -13 -31 -24 -58 -24 -60 -2 -21
-60 -114 -90 -145 -43 -44 -70 -54 -117 -45 -45 8 -115 77 -136 135 -34 93
-59 210 -73 343 -4 32 -8 66 -10 76 -2 10 -6 58 -10 107 -4 49 -8 105 -10 124
-6 60 -17 340 -19 455 -1 61 -5 115 -9 122 -4 6 -4 14 0 16 7 4 9 91 3 107 -2
3 -1 9 0 15 1 5 1 82 0 170 -1 88 -2 187 -2 220 0 131 1 301 1 315 1 8 3 110
5 225 3 116 7 287 10 380 14 448 19 648 20 742 1 57 3 103 6 103 3 0 5 28 6
63 1 34 5 148 10 252 7 157 12 1106 6 1265 -1 25 -2 52 -1 60 3 36 -26 820
-36 985 -2 44 -7 134 -10 200 -3 66 -8 143 -11 170 -3 28 -7 79 -9 115 -7 109
-15 203 -20 240 -5 34 -8 67 -21 219 -3 41 -8 84 -10 95 -2 12 -7 46 -10 76
-4 30 -8 66 -10 80 -2 14 -5 45 -8 70 -3 25 -8 56 -11 70 -3 14 -8 44 -11 66
-2 23 -7 52 -9 65 -3 13 -7 41 -11 64 -3 22 -12 67 -19 99 -8 33 -12 63 -9 67
2 4 0 10 -5 14 -5 3 -10 13 -9 23 0 9 -3 28 -7 42 -4 14 -9 36 -12 50 -2 14
-7 32 -10 40 -6 14 -11 37 -17 67 -1 7 -5 16 -9 19 -4 4 -7 18 -7 30 0 13 -5
26 -10 29 -6 4 -8 10 -5 15 3 5 1 11 -5 15 -5 3 -10 13 -10 21 0 8 -9 36 -21
62 -11 26 -27 63 -36 82 -43 96 -123 189 -189 216 -56 24 -205 35 -294 22z"/>
</g>
</svg>
