<?xml version="1.0" standalone="no"?>
<!DOCTYPE svg PUBLIC "-//W3C//DTD SVG 20010904//EN"
 "http://www.w3.org/TR/2001/REC-SVG-20010904/DTD/svg10.dtd">
<svg version="1.0" xmlns="http://www.w3.org/2000/svg"
 width="545.000000pt" height="545.000000pt" viewBox="0 0 545.000000 545.000000"
 preserveAspectRatio="xMidYMid meet">
<metadata>
Created by potrace 1.11, written by Peter Selinger 2001-2013
</metadata>
<g transform="translate(0.000000,545.000000) scale(0.100000,-0.100000)"
fill="#000000" stroke="none">
<path d="M2050 3823 c49 -32 110 -96 110 -116 0 -7 -6 -22 -14 -32 -11 -16
-18 -17 -42 -7 -47 18 -234 70 -312 87 -183 38 -511 39 -684 1 -104 -23 -281
-77 -318 -98 -19 -10 -27 -17 -17 -14 73 22 400 56 541 56 135 0 204 -14 218
-45 7 -16 7 -29 -1 -43 -6 -11 -11 -30 -11 -41 0 -11 -12 -26 -27 -34 -243
-127 -402 -286 -524 -526 -62 -121 -88 -229 -96 -391 -5 -128 -4 -142 26 -264
75 -307 260 -545 528 -679 148 -74 283 -107 438 -107 135 0 330 33 380 65 11
6 44 20 74 30 29 9 80 33 113 51 33 19 63 34 67 34 4 0 25 13 47 29 59 43 293
181 307 181 7 0 35 -26 62 -58 58 -68 243 -222 266 -222 5 0 33 -12 62 -26 75
-37 166 -62 296 -80 94 -13 129 -13 205 -4 114 15 215 41 286 73 30 13 65 28
78 32 12 3 22 11 22 16 0 5 9 9 19 9 11 0 23 5 26 10 4 6 24 19 45 30 21 11
44 25 51 32 8 7 33 26 56 42 69 46 180 155 227 220 59 83 113 191 149 300 28
84 31 104 35 264 l4 173 -51 -31 c-29 -16 -54 -30 -56 -30 -2 0 -63 -37 -137
-82 -73 -44 -158 -95 -188 -111 -30 -17 -57 -33 -60 -37 -3 -4 -30 -20 -60
-37 -30 -16 -97 -55 -148 -86 -51 -31 -96 -57 -100 -57 -4 0 -20 -11 -37 -25
l-30 -24 136 -1 c75 0 139 -3 143 -7 13 -13 -117 -123 -194 -164 -89 -48 -247
-93 -305 -86 -85 11 -220 48 -235 66 -3 3 -24 18 -47 33 -42 27 -113 95 -113
108 0 7 84 57 300 180 16 9 175 103 295 175 39 23 124 73 190 110 66 37 131
76 145 85 14 9 45 28 70 42 25 14 72 41 105 60 262 152 271 158 247 158 -7 0
-12 5 -12 11 0 21 -94 163 -154 234 -70 84 -123 136 -182 181 -44 34 -172 114
-181 114 -3 0 -46 15 -97 34 -195 74 -442 70 -651 -9 -124 -47 -345 -177 -345
-204 0 -16 106 -97 240 -185 30 -19 65 -43 76 -51 20 -15 26 -14 85 19 181 99
426 83 582 -38 25 -20 21 -34 -17 -53 -19 -10 -74 -40 -123 -68 -48 -27 -98
-54 -110 -58 -13 -5 -23 -14 -23 -19 0 -6 -3 -8 -6 -5 -4 4 -19 -2 -33 -12
-14 -10 -75 -44 -136 -76 -60 -32 -115 -62 -122 -67 -6 -5 -35 -21 -65 -37
-73 -38 -156 -84 -198 -110 -60 -36 -66 -31 -64 54 1 41 -1 75 -5 75 -4 0 -22
-15 -41 -33 -19 -18 -60 -48 -91 -65 -67 -38 -116 -41 -184 -11 -45 20 -50 20
-82 5 -32 -15 -33 -17 -33 -76 0 -34 5 -93 12 -131 13 -82 13 -81 -77 -129
-67 -35 -154 -82 -230 -125 -163 -92 -241 -127 -312 -138 -73 -11 -73 -12 -73
-43 0 -22 -12 -44 -41 -78 -22 -25 -46 -46 -52 -46 -6 0 -18 -6 -26 -14 -14
-12 -144 -56 -167 -56 -5 0 -20 16 -33 35 -28 41 -77 68 -118 63 -37 -4 -41
-31 -9 -63 33 -33 33 -45 1 -45 -57 0 -116 57 -101 97 6 14 -36 29 -53 18 -6
-3 -11 -26 -11 -51 0 -24 -3 -44 -6 -44 -17 0 -46 24 -59 50 -22 42 -19 74 9
101 18 17 22 27 14 36 -21 25 -44 13 -68 -34 l-23 -46 -22 27 c-27 34 -23 57
17 108 60 76 168 79 310 8 44 -23 95 -52 112 -65 37 -28 130 -60 151 -51 16 6
21 62 7 82 -4 6 -25 14 -47 18 -22 5 -42 11 -45 15 -3 4 -31 20 -63 36 -98 49
-191 163 -248 306 -32 80 -34 90 -34 209 0 124 1 126 41 218 64 147 165 247
322 319 115 52 171 64 253 54 111 -14 143 -48 99 -103 l-19 -25 77 -12 c75
-12 101 -18 247 -59 158 -43 275 -121 275 -182 0 -41 -35 -86 -89 -116 -28
-15 -49 -29 -46 -32 2 -2 47 10 99 28 93 32 94 32 142 16 26 -9 62 -16 80 -16
37 0 100 33 114 60 8 14 5 18 -15 18 -35 0 -86 35 -149 102 -74 80 -149 187
-141 200 4 7 11 8 18 2 7 -5 23 -13 37 -17 14 -4 57 -23 97 -41 40 -19 75 -34
79 -34 4 0 45 -18 91 -41 97 -47 154 -102 180 -171 15 -44 33 -63 33 -38 0 11
43 78 95 149 58 79 11 160 -153 258 -122 74 -256 193 -306 272 -40 62 -91 111
-155 148 -68 38 -362 186 -411 206 -108 44 -169 66 -205 72 l-40 7 45 -29z
m710 -534 c0 -14 -8 -11 -76 27 -58 32 -64 39 -64 68 0 18 3 36 7 40 8 8 133
-120 133 -135z"/>
<path d="M2800 2960 c0 -4 21 -27 48 -49 51 -44 125 -74 169 -69 28 3 27 3
-17 32 -55 36 -200 99 -200 86z"/>
</g>
</svg>
