<?xml version="1.0" standalone="no"?>
<!DOCTYPE svg PUBLIC "-//W3C//DTD SVG 20010904//EN"
 "http://www.w3.org/TR/2001/REC-SVG-20010904/DTD/svg10.dtd">
<svg version="1.0" xmlns="http://www.w3.org/2000/svg"
 width="128.000000pt" height="128.000000pt" viewBox="0 0 128.000000 128.000000"
 preserveAspectRatio="xMidYMid meet">
<metadata>
Created by potrace 1.11, written by Peter Selinger 2001-2013
</metadata>
<g transform="translate(0.000000,128.000000) scale(0.100000,-0.100000)"
fill="#000000" stroke="none">
<path d="M415 995 c-30 -29 -31 -45 -4 -79 25 -31 61 -34 89 -6 28 28 25 64
-6 89 -34 27 -50 26 -79 -4z"/>
<path d="M822 1004 c-15 -10 -22 -25 -22 -49 0 -62 71 -87 109 -39 27 34 26
50 -4 79 -28 29 -51 31 -83 9z"/>
<path d="M400 545 l0 -225 -45 0 -45 0 0 -50 0 -51 138 3 137 3 3 48 3 47 -40
0 -41 0 0 180 0 180 40 0 40 0 0 45 0 45 -95 0 -95 0 0 -225z"/>
<path d="M730 720 l0 -50 40 0 40 0 0 -175 0 -175 -40 0 -40 0 0 -50 0 -51
138 3 137 3 3 48 3 47 -45 0 -46 0 0 225 0 225 -95 0 -95 0 0 -50z"/>
</g>
</svg>
