<?xml version="1.0" encoding="UTF-8"?>
<svg width="90px" height="60px" viewBox="0 0 90 60" version="1.1" xmlns="http://www.w3.org/2000/svg" xmlns:xlink="http://www.w3.org/1999/xlink">
    <!-- Generator: Sketch 49 (51002) - http://www.bohemiancoding.com/sketch -->
    <title>bricks-triangle-of-rectangles</title>
    <desc>Created with Sketch.</desc>
    <defs></defs>
    <g id="Page-1" stroke="none" stroke-width="1" fill="none" fill-rule="evenodd">
        <g id="Karmod_main" transform="translate(-1050.000000, -1438.000000)" fill-rule="nonzero">
            <g id="Group-26" transform="translate(1050.000000, 1438.000000)">
                <g id="bricks-triangle-of-rectangles">
                    <path d="M26.3492195,41.6685366 C26.3375122,41.6685366 26.3167317,41.669122 26.2953659,41.669561 L2.14097561,41.669561 C2.11273171,41.669561 2.08434146,41.6710244 2.05595122,41.6732195 C1.13502439,41.7497561 0.192146341,42.4052195 0.172536585,43.5178537 C0.167414634,44.0306341 0.114878049,56.3498049 0.173853659,57.726439 C0.252878049,59.4412683 1.39595122,59.8991707 2.05858537,59.8991707 C2.07570732,59.8991707 2.10131707,59.8987317 2.12736585,59.8972683 L26.394439,59.8972683 C26.4125854,59.8977073 26.4292683,59.8982927 26.4408293,59.8982927 C27.3482927,59.8982927 28.3390244,59.2451707 28.3677073,57.8082439 C28.3886341,56.5794146 28.3775122,44.6508293 28.3677073,43.6549756 C28.349122,42.2900488 27.3081951,41.6685366 26.3492195,41.6685366 Z M26.3195122,57.7697561 C26.3186341,57.7994634 26.3171707,57.8255122 26.3148293,57.846878 L2.24692683,57.846878 C2.23668293,57.798 2.22643902,57.7283415 2.22234146,57.635561 C2.17170732,56.4433171 2.2097561,45.4669756 2.22146341,43.7196585 L26.3195122,43.7181951 C26.3287317,44.9086829 26.3383902,56.6304878 26.3195122,57.7697561 Z" id="Shape" fill="#F79016"></path>
                    <path d="M57.0163902,41.6685366 C57.0048293,41.6685366 56.9839024,41.669122 56.9625366,41.669561 L32.8046341,41.669561 C32.7762439,41.669561 32.748,41.6710244 32.7196098,41.6732195 C31.8,41.7497561 30.8581463,42.4052195 30.839122,43.511122 C30.828,44.1636585 30.7805854,56.3345854 30.839561,57.7232195 C30.9134634,59.4406829 32.0591707,59.8991707 32.7242927,59.8991707 C32.742,59.8991707 32.7674634,59.8987317 32.7935122,59.8972683 L57.0605854,59.8972683 C57.0781463,59.8977073 57.0954146,59.8982927 57.1069756,59.8982927 C58.0112195,59.8982927 58.9996098,59.2461951 59.0320976,57.81 C59.0543415,56.6158537 59.0427805,44.6673659 59.0325366,43.6590732 C59.0184878,42.2913659 57.9777073,41.6685366 57.0163902,41.6685366 Z M56.982439,57.7674146 C56.9814146,57.7985854 56.9795122,57.8250732 56.9773171,57.846878 L32.9114634,57.846878 C32.9016585,57.798 32.8914146,57.7283415 32.8877561,57.635561 C32.8381463,56.4665854 32.8687317,45.492439 32.886439,43.7196585 L56.9825854,43.7181951 C56.9932683,44.9541951 57.0038049,56.598439 56.982439,57.7674146 Z" id="Shape" fill="#F79016"></path>
                    <path d="M89.6960488,43.6587805 C89.681561,42.2913659 88.6412195,41.6685366 87.6799024,41.6685366 C87.6683415,41.6685366 87.6472683,41.669122 87.6260488,41.669561 L63.4662439,41.669561 C63.4374146,41.669561 63.4094634,41.6710244 63.3807805,41.6732195 C62.4620488,41.7497561 61.5229756,42.4056585 61.5043902,43.511122 C61.4932683,44.171122 61.4454146,56.3749756 61.5048293,57.7214634 C61.5753659,59.4403902 62.7226829,59.898878 63.389561,59.898878 C63.4072683,59.898878 63.4322927,59.898439 63.4589268,59.8969756 L87.7254146,59.8969756 C87.743561,59.8974146 87.7602439,59.8978537 87.7718049,59.8978537 C88.6813171,59.8978537 89.6710244,59.2438537 89.6956098,57.8092683 C89.7169756,56.6313659 89.7058537,44.6754146 89.6960488,43.6587805 Z M87.6463902,57.7729756 C87.6459512,57.8016585 87.6440488,57.8258049 87.6422927,57.846878 L63.5767317,57.846878 C63.5670732,57.797561 63.5572683,57.7280488 63.5530244,57.6336585 C63.4997561,56.4256098 63.539122,45.3507805 63.5521463,43.7196585 L87.6465366,43.7181951 C87.6561951,44.9629756 87.6673171,56.6146829 87.6463902,57.7729756 Z" id="Shape" fill="#F79016"></path>
                    <path d="M16.0006829,39.1175122 C16.0183902,39.1175122 16.0438537,39.1169268 16.0699024,39.1156098 L40.3365366,39.1156098 C40.3542439,39.1160488 40.3703415,39.1164878 40.3820488,39.1164878 C41.2886341,39.1164878 42.2770244,38.4610244 42.3033659,37.025122 C42.3289756,35.7914634 42.3155122,23.8653659 42.3038049,22.8778537 C42.2893171,21.509561 41.2494146,20.886878 40.2894146,20.886878 C40.2772683,20.886878 40.2541463,20.8873171 40.230878,20.8877561 L16.0782439,20.8877561 C16.0513171,20.8877561 16.0248293,20.8890732 15.9983415,20.8909756 C15.0769756,20.9629756 14.1326341,21.6155122 14.1112683,22.7306341 C14.1048293,23.2972683 14.0555122,35.573122 14.1127317,36.9446341 C14.1911707,38.6599024 15.3365854,39.1175122 16.0006829,39.1175122 Z M16.1596098,22.9378537 L40.2542927,22.9363902 C40.2654146,24.1053659 40.277561,35.8365366 40.2542927,36.9851707 C40.2534146,37.0163415 40.2519512,37.043122 40.2496098,37.0655122 L16.1846341,37.0655122 C16.1743902,37.0167805 16.1641463,36.948 16.1600488,36.8550732 C16.1113171,35.6799512 16.1461463,24.7194146 16.1596098,22.9378537 Z" id="Shape" fill="#F79016"></path>
                    <path d="M49.4537561,20.8909756 C48.5281463,20.9629756 47.5814634,21.6165366 47.5639024,22.7278537 C47.5542439,23.3673659 47.5062439,35.6009268 47.5643415,36.9409756 C47.6367805,38.6594634 48.7826341,39.1179512 49.4476098,39.1179512 C49.4653171,39.1179512 49.4909268,39.1175122 49.5169756,39.1160488 L73.7872683,39.1160488 C73.8045366,39.1164878 73.8212195,39.1169268 73.8324878,39.1169268 C74.7403902,39.1169268 75.7296585,38.4616098 75.7562927,37.0236585 C75.7794146,35.7822439 75.7674146,23.7816585 75.7562927,22.8765366 C75.7400488,21.5097073 74.7019024,20.8873171 73.7452683,20.8873171 C73.733122,20.8873171 73.71,20.8877561 73.6867317,20.8881951 L49.5336585,20.8881951 C49.5065854,20.8877561 49.4802439,20.8890732 49.4537561,20.8909756 Z M49.6116585,22.9378537 L73.7063415,22.9363902 C73.7202439,24.299561 73.7263902,35.9038537 73.7063415,36.9851707 C73.7053171,37.0167805 73.704,37.043122 73.7016585,37.0655122 L49.6362439,37.0655122 C49.626,37.0163415 49.6161951,36.947122 49.6125366,36.8533171 C49.5605854,35.6517073 49.5999512,24.5809756 49.6116585,22.9378537 Z" id="Shape" fill="#F79016"></path>
                    <path d="M32.7269268,18.335561 C32.7436098,18.335561 32.7677561,18.3346829 32.7929268,18.3336585 L57.0619024,18.3336585 C57.078,18.3340976 57.0929268,18.3340976 57.1040488,18.3340976 C58.0101951,18.3340976 58.9999024,17.6806829 59.0320976,16.2418537 C59.0543415,15.0547317 59.0427805,3.10302439 59.0325366,2.09136585 C59.0180488,0.724097561 57.9753659,0.101121951 57.0125854,0.101121951 C57.0019024,0.101121951 56.982878,0.101560976 56.9634146,0.102146341 L32.8046341,0.102146341 C32.7777073,0.102146341 32.7512195,0.103463415 32.7247317,0.105365854 C31.8023415,0.177365854 30.8581463,0.831804878 30.839122,1.94370732 C30.828439,2.59668293 30.7805854,14.7686341 30.839561,16.1563902 C30.9133171,17.8761951 32.0604878,18.335561 32.7269268,18.335561 Z M32.8862927,2.1522439 L56.982439,2.15136585 C56.9925366,3.39146341 57.0038049,15.0370244 56.982439,16.199561 C56.9814146,16.2326341 56.9795122,16.260878 56.976878,16.2837073 L32.9123415,16.2837073 C32.9020976,16.2345366 32.8918537,16.1638537 32.8877561,16.0685854 C32.838,14.9000488 32.8687317,3.92546341 32.8862927,2.1522439 Z" id="Shape" fill="#F79016"></path>
                    <path d="M19.2017561,34.2885366 C19.7679512,34.2885366 20.2267317,33.8296098 20.2267317,33.263561 L20.2267317,25.8564878 C20.2267317,25.2902927 19.7678049,24.8315122 19.2017561,24.8315122 C18.635561,24.8315122 18.1767805,25.2902927 18.1767805,25.8564878 L18.1767805,33.263561 C18.1761951,33.8296098 18.635561,34.2885366 19.2017561,34.2885366 Z" id="Shape" fill="#1B1F7C"></path>
                    <path d="M5.28439024,46.3810244 C4.71819512,46.3810244 4.25941463,46.8399512 4.25941463,47.4061463 L4.25941463,54.8130732 C4.25941463,55.3792683 4.71834146,55.8381951 5.28439024,55.8381951 C5.85043902,55.8381951 6.30936585,55.3792683 6.30936585,54.8130732 L6.30936585,47.4061463 C6.3095122,46.8398049 5.85014634,46.3810244 5.28439024,46.3810244 Z" id="Shape" fill="#1B1F7C"></path>
                    <path d="M36.0677561,46.3810244 C35.501561,46.3810244 35.0427805,46.8399512 35.0427805,47.4061463 L35.0427805,54.8130732 C35.0427805,55.3792683 35.501561,55.8381951 36.0677561,55.8381951 C36.6339512,55.8381951 37.0927317,55.3792683 37.0927317,54.8130732 L37.0927317,47.4061463 C37.092878,46.8398049 36.6339512,46.3810244 36.0677561,46.3810244 Z" id="Shape" fill="#1B1F7C"></path>
                    <path d="M66.3709756,46.3810244 C65.8047805,46.3810244 65.3458537,46.8399512 65.3458537,47.4061463 L65.3458537,54.8130732 C65.3458537,55.3792683 65.8047805,55.8381951 66.3709756,55.8381951 C66.9370244,55.8381951 67.3959512,55.3792683 67.3959512,54.8130732 L67.3959512,47.4061463 C67.3959512,46.8398049 66.9370244,46.3810244 66.3709756,46.3810244 Z" id="Shape" fill="#1B1F7C"></path>
                    <path d="M35.8123902,13.6381463 C36.3785854,13.6381463 36.8373659,13.1792195 36.8373659,12.6131707 L36.8373659,5.20565854 C36.8373659,4.63946341 36.378439,4.18053659 35.8123902,4.18053659 C35.2461951,4.18053659 34.7874146,4.63946341 34.7874146,5.20565854 L34.7874146,12.6127317 C34.7872683,13.1787805 35.2461951,13.6381463 35.8123902,13.6381463 Z" id="Shape" fill="#1B1F7C"></path>
                    <path d="M52.872,34.962439 C53.4381951,34.962439 53.897122,34.5035122 53.897122,33.9373171 L53.897122,26.5298049 C53.897122,25.9636098 53.4381951,25.5046829 52.872,25.5046829 C52.3058049,25.5046829 51.8470244,25.9636098 51.8470244,26.5298049 L51.8470244,33.936878 C51.8471707,34.5030732 52.3058049,34.962439 52.872,34.962439 Z" id="Shape" fill="#1B1F7C"></path>
                </g>
            </g>
        </g>
    </g>
</svg>