<?xml version="1.0" encoding="UTF-8"?>
<svg width="40px" height="40px" viewBox="0 0 40 40" version="1.1" xmlns="http://www.w3.org/2000/svg" xmlns:xlink="http://www.w3.org/1999/xlink">
    <!-- Generator: Sketch 49 (51002) - http://www.bohemiancoding.com/sketch -->
    <title>discount</title>
    <desc>Created with Sketch.</desc>
    <defs></defs>
    <g id="Page-1" stroke="none" stroke-width="1" fill="none" fill-rule="evenodd">
        <g id="Karmod_main" transform="translate(-408.000000, -3719.000000)" fill="#FC971F" fill-rule="nonzero">
            <g id="discount" transform="translate(428.000000, 3739.000000) scale(1, -1) translate(-428.000000, -3739.000000) translate(408.000000, 3719.000000)">
                <path d="M39.8948289,25.130716 C39.7181618,24.5932724 39.2061696,24.2290422 38.6276383,24.2290422 L34.6363306,24.2290422 L34.6363306,1.29801217 C34.6363306,0.581446635 34.0403478,0 33.3058681,0 L6.69717644,0 C5.96269676,0 5.36671396,0.581446635 5.36671396,1.29801217 L5.36671396,24.2290422 L1.37548591,24.2290422 C0.796954673,24.2290422 0.284962495,24.5932724 0.10829531,25.130716 C-0.0674953112,25.6681596 0.131723435,26.255437 0.601959364,26.5833608 L19.2280356,39.5631715 C19.4592887,39.7245679 19.7303856,39.8048773 20.0015621,39.8048773 C20.2727387,39.8048773 20.5437559,39.7245679 20.7750887,39.5631715 L39.4011649,26.5833608 C39.8714805,26.255437 40.0706993,25.6681596 39.8948289,25.130716 Z M20.6884842,9.08592971 C20.6884842,6.93872091 22.4789029,5.19197094 24.6797919,5.19197094 C26.8806809,5.19197094 28.6710997,6.93872091 28.6710997,9.08592971 C28.6710997,11.2331385 26.8806809,12.9798885 24.6797919,12.9798885 C22.4789029,12.9798885 20.6884842,11.2331385 20.6884842,9.08592971 Z M24.704798,20.7035896 L13.4161076,9.68930012 C12.8964654,9.1822544 12.8964654,8.36081234 13.4161076,7.85384437 C13.9358294,7.34687639 14.7778075,7.34687639 15.2974497,7.85384437 L26.5860604,18.8681338 C27.1057026,19.3751795 27.1057026,20.1966216 26.5860604,20.7035896 C26.3262792,20.9571124 25.9857745,21.0839127 25.6454292,21.0839127 C25.3050839,21.0839127 24.9646589,20.9571124 24.704798,20.7035896 Z M15.3232527,23.3637526 C13.1223636,23.3637526 11.3319449,21.6170026 11.3319449,19.4697938 C11.3319449,17.322585 13.1223636,15.5758351 15.3232527,15.5758351 C17.5241417,15.5758351 19.3145604,17.322585 19.3145604,19.4697938 C19.3145604,21.6170026 17.5241417,23.3637526 15.3232527,23.3637526 Z" id="Shape"></path>
            </g>
        </g>
    </g>
</svg>