<?xml version="1.0" encoding="UTF-8"?>
<svg width="38px" height="60px" viewBox="0 0 38 60" version="1.1" xmlns="http://www.w3.org/2000/svg" xmlns:xlink="http://www.w3.org/1999/xlink">
    <!-- Generator: Sketch 49 (51002) - http://www.bohemiancoding.com/sketch -->
    <title>fire</title>
    <desc>Created with Sketch.</desc>
    <defs></defs>
    <g id="Page-1" stroke="none" stroke-width="1" fill="none" fill-rule="evenodd">
        <g id="Karmod_main" transform="translate(-428.000000, -1438.000000)">
            <g id="Group-22" transform="translate(427.000000, 1438.000000)">
                <g id="fire" transform="translate(1.000000, 0.000000)">
                    <path d="M36.3887109,29.6839453 C35.2917188,24.6440625 34.344375,20.2914844 36.2203125,16.3768359 C36.3732422,16.0578516 36.3338672,15.6799219 36.1185938,15.3990234 C35.9033203,15.1182422 35.5484766,14.9823047 35.2006641,15.0473437 C34.9747266,15.0895313 29.9361328,16.1096484 26.7113672,23.2298438 C25.8378516,22.1446875 24.5108203,20.2898438 23.3656641,17.8291406 C20.8353516,12.3916406 20.3984766,6.7996875 22.0671094,1.20808594 C22.17,0.863789063 22.0672266,0.49078125 21.8025,0.247734375 C21.5378906,0.0045703125 21.1579687,-0.0664453125 20.8231641,0.06515625 C20.7107812,0.109335938 18.0425391,1.17820313 15.5085937,3.9365625 C13.1770312,6.47460938 10.5191016,10.98375 11.0977734,18.0516797 C11.4052734,21.8074219 11.3719922,24.4383984 11.2269141,26.2325391 C10.4854687,23.7349219 9.25828125,21.8274609 8.16550781,20.5074609 C6.31429687,18.2710547 4.45863281,17.2025391 4.38046875,17.1582422 C4.06277344,16.9777734 3.66925781,16.9976953 3.37148437,17.2095703 C3.07382812,17.4213281 2.9259375,17.7866016 2.9925,18.1460156 C4.13484375,24.3167578 3.0028125,27.8217187 1.80421875,31.5324609 C0.920742187,34.2676172 0.0071484375,37.0960547 0.0071484375,41.0228906 C0.0073828125,51.4870312 8.52046875,60 18.984375,60 C29.4482813,60 37.9613672,51.4870312 37.9613672,41.0230078 C37.9613672,36.9089063 37.1259375,33.0705469 36.3887109,29.6839453 Z M25.9839844,56.6217187 C27.2069531,55.0903125 27.9405469,53.1517969 27.9405469,51.0438281 C27.9405469,44.6487891 25.9792969,39.3839062 24.3339844,36.0933984 C22.5469922,32.5192969 20.7683203,30.4689844 20.6935547,30.3835547 C20.3518359,29.9929687 19.7583984,29.9533594 19.3679297,30.2950781 C18.9774609,30.6367969 18.9378516,31.2302344 19.2794531,31.6207031 C19.3471875,31.6982812 26.0615625,39.5051953 26.0615625,51.0438281 C26.0615625,54.9461719 22.8867188,58.1211328 18.9842578,58.1211328 C14.9336719,58.1211328 11.9070703,54.3847266 11.9070703,51.0438281 C11.9070703,49.3878516 12.2671875,48.264375 12.6195703,47.3838281 C12.8123438,46.9020703 12.5779688,46.3552734 12.0962109,46.1625 C11.6143359,45.9697266 11.0676563,46.2041016 10.875,46.6857422 C10.4807813,47.6715234 10.0280859,49.0573828 10.0280859,51.0438281 C10.0280859,53.0380078 10.8139453,55.0712109 12.1992188,56.7157031 C6.13722656,54.0847266 1.88613281,48.0414844 1.88613281,41.0230078 C1.88613281,37.3921875 2.71488281,34.8263672 3.59226563,32.1099609 C4.66171875,28.7987109 5.76328125,25.3886719 5.18273438,20.1097266 C7.13121094,21.8654297 10.0280859,25.4153906 10.0280859,31.0021875 C10.0280859,31.3766016 10.2503906,31.7152734 10.5939844,31.8641016 C10.9373438,32.0130469 11.3364844,31.9436719 11.6098828,31.6877344 C11.9960156,31.3259766 13.8764063,28.9608984 12.9705469,17.8983984 C12.553125,12.8016797 13.8536719,8.5528125 16.8355078,5.26992188 C17.8432031,4.16050781 18.8851172,3.35191406 19.7288672,2.79714844 C18.358125,9.39960938 19.9645313,14.9742188 21.6619922,18.6220313 C23.690625,22.9814063 26.229375,25.5469922 26.3364844,25.6541016 C26.5621875,25.8799219 26.8873828,25.9755469 27.1996875,25.9080469 C27.511875,25.8404297 27.7682813,25.6188281 27.8804297,25.3197656 C29.6029688,20.7260156 32.0848828,18.6 33.7548047,17.6410547 C32.6947266,21.5479688 33.6010547,25.7132813 34.5525,30.0839063 C35.3047266,33.5387109 36.0822656,37.1112891 36.0822656,41.0232422 C36.0825,47.9585156 31.9317188,53.9423437 25.9839844,56.6217187 Z" id="Shape" fill="#F79016" fill-rule="nonzero"></path>
                    <path d="M19.9975781,37.0999219 C19.4916797,36.9863672 18.9888281,37.3046484 18.8752734,37.8107812 C18.6123047,38.9824219 18.2516016,39.8378906 17.9436328,40.4150391 C16.0060547,38.1534375 14.1989063,38.0792578 13.9740234,38.0792578 C13.4552344,38.0792578 13.0345313,38.4998437 13.0345313,39.01875 C13.0345313,40.4103516 12.8707031,41.5973437 12.5189063,42.7538672 C12.3679688,43.2502734 12.6480469,43.7751562 13.1444531,43.9260937 C13.235625,43.95375 13.3276172,43.9671094 13.4182031,43.9671094 C13.8208594,43.9671094 14.1932813,43.7060156 14.3165625,43.3006641 C14.608125,42.3418359 14.7910547,41.3408203 14.8693359,40.2669141 C14.8879688,40.2766406 14.9069531,40.2867187 14.9260547,40.2971484 C15.4809375,40.5990234 16.3260938,41.2340625 17.2007813,42.5460937 C17.356875,42.7803516 17.6097656,42.9321094 17.8898438,42.9598828 C18.1705078,42.9878906 18.4477734,42.8883984 18.6466406,42.6892969 C18.7864453,42.5494922 20.0321484,41.2362891 20.7085547,38.2222266 C20.8222266,37.7159766 20.5039453,37.2133594 19.9975781,37.0999219 Z" id="Shape" fill="#1B1F7C" fill-rule="nonzero"></path>
                    <path d="M19,55.4223524 C20.6568542,55.4223524 22,51.4422006 22,49.7853463 C22,48.1284921 20.6568542,46 19,46 C17.3431458,46 16,48.1284921 16,49.7853463 C16,51.4422006 17.3431458,55.4223524 19,55.4223524 Z" id="Oval" stroke="#1B1F7C" stroke-width="2" transform="translate(19.000000, 50.711176) scale(-1, -1) translate(-19.000000, -50.711176) "></path>
                </g>
            </g>
        </g>
    </g>
</svg>