<?xml version="1.0" encoding="UTF-8"?>
<svg width="60px" height="60px" viewBox="0 0 60 60" version="1.1" xmlns="http://www.w3.org/2000/svg" xmlns:xlink="http://www.w3.org/1999/xlink">
    <!-- Generator: Sketch 49 (51002) - http://www.bohemiancoding.com/sketch -->
    <title>guarantee-certificate</title>
    <desc>Created with Sketch.</desc>
    <defs></defs>
    <g id="Page-1" stroke="none" stroke-width="1" fill="none" fill-rule="evenodd">
        <g id="Karmod_main" transform="translate(-115.000000, -1438.000000)" fill-rule="nonzero">
            <g id="Group-21" transform="translate(115.000000, 1438.000000)">
                <g id="guarantee-certificate">
                    <path d="M39.9999609,33 C36.6909375,33 33.9999609,35.6909766 33.9999609,39 C33.9999609,42.3090234 36.6909375,45 39.9999609,45 C43.3089844,45 45.9999609,42.3090234 45.9999609,39 C45.9999609,35.6909766 43.3089844,33 39.9999609,33 Z M39.9999609,42.9999609 C37.7939063,42.9999609 36,41.2059375 36,39 C36,36.7939453 37.7940234,35.0000391 39.9999609,35.0000391 C42.2060156,35.0000391 43.9999219,36.7940625 43.9999219,39 C44.0000391,41.2060547 42.2060156,42.9999609 39.9999609,42.9999609 Z" id="Shape" fill="#1B1F7C"></path>
                    <path d="M42,42.9999609 L42,47.1319922 L40.5540234,46.1680078 C40.2180469,45.9430078 39.7810547,45.9430078 39.4449609,46.1680078 L37.9999219,47.1319922 L37.9999219,42.9999609 L36,42.9999609 L36,48.9999609 C36,49.3689844 36.2029687,49.7080078 36.5289844,49.8819141 C36.8530078,50.0559375 37.2489844,50.0358984 37.5549609,49.831875 L39.9999609,48.2019141 L42.4449609,49.831875 C42.6119531,49.9428516 42.8060156,49.9999219 42.9999609,49.9999219 C43.1619141,49.9999219 43.3239844,49.9608984 43.4719922,49.8819141 C43.7969531,49.7078906 44.0000391,49.3688672 44.0000391,48.9999609 L44.0000391,42.9999609 L42,42.9999609 Z" id="Shape" fill="#1B1F7C"></path>
                    <rect id="Rectangle-path" fill="#F79016" x="23.0000391" y="9.99996094" width="12.9999609" height="2.00003906"></rect>
                    <rect id="Rectangle-path" fill="#F79016" x="14.0000391" y="15.9999609" width="32.0000391" height="2.00003906"></rect>
                    <rect id="Rectangle-path" fill="#F79016" x="14.0000391" y="21.9999609" width="21.9999609" height="2.00003906"></rect>
                    <rect id="Rectangle-path" fill="#F79016" x="39.9999609" y="21.9999609" width="6" height="2.00003906"></rect>
                    <rect id="Rectangle-path" fill="#F79016" x="14.0000391" y="27.9999609" width="32.0000391" height="2.00003906"></rect>
                    <rect id="Rectangle-path" fill="#F79016" x="14.0000391" y="33.9999609" width="12" height="2.00003906"></rect>
                    <rect id="Rectangle-path" fill="#F79016" x="14.0000391" y="39" width="5.00003906" height="2.00003906"></rect>
                    <rect id="Rectangle-path" fill="#F79016" x="23.0000391" y="39" width="3" height="2.00003906"></rect>
                    <path d="M54.9999609,0 C52.2430078,0 49.9999219,2.24296875 49.9999219,5.00003906 L49.9999219,7.00007812 C49.9999219,7.55203125 50.446875,8.00003906 50.9998828,8.00003906 L58.9999219,8.00003906 C59.5529297,8.00003906 59.9998828,7.55203125 59.9998828,7.00007812 L59.9998828,5.00003906 C60,2.24296875 57.7570312,0 54.9999609,0 Z M57.9999609,6 L51.9999609,6 L51.9999609,5.00003906 C51.9999609,3.34605469 53.3459766,2.00003906 54.9999609,2.00003906 C56.6539453,2.00003906 57.9999609,3.34605469 57.9999609,5.00003906 L57.9999609,6 Z" id="Shape" fill="#F79016"></path>
                    <path d="M54.9999609,0 L12.9999609,0 C10.2430078,0 8.00003906,2.24296875 8.00003906,5.00003906 L8.00003906,53.0000391 L10.0000781,53.0000391 L10.0000781,5.00003906 C10.0000781,3.34605469 11.3460937,2.00003906 13.0000781,2.00003906 L51.0021094,2.00003906 C50.3731641,2.83605469 50.0001562,3.87503906 50.0001562,5.00003906 L50.0001562,55.0000781 C50.0001562,56.6540625 48.6541406,58.0000781 47.0001562,58.0000781 L9,58.0000781 L9,60 L47.0000391,60 C49.7569922,60 52.0000781,57.7570313 52.0000781,54.9999609 L52.0000781,5.00003906 C52.0000781,3.34605469 53.3460937,2.00003906 55.0000781,2.00003906 C55.5530859,2.00003906 56.0000391,1.55203125 56.0000391,1.00007813 C56.0000391,0.448125 55.5529687,0 54.9999609,0 Z" id="Shape" fill="#F79016"></path>
                    <path d="M47.0000391,57.9999609 C45.3460547,57.9999609 44.0000391,56.6539453 44.0000391,54.9999609 L44.0000391,52.9999219 C44.0000391,52.4469141 43.5530859,51.9999609 43.0000781,51.9999609 L0.999960937,51.9999609 C0.448007812,51.9999609 0,52.4469141 0,52.9999219 L0,54.9999609 C0,57.7570313 2.24296875,60 5.00003906,60 L47.0000391,60 C47.5530469,60 48,59.5530469 48,59.0000391 C48,58.4470313 47.5530469,57.9999609 47.0000391,57.9999609 Z M5.00003906,57.9999609 C3.34605469,57.9999609 2.00003906,56.6539453 2.00003906,54.9999609 L2.00003906,54 L42,54 L42,54.9999609 C42,56.1249609 42.3730078,57.1639453 43.0019531,57.9999609 L5.00003906,57.9999609 Z" id="Shape" fill="#F79016"></path>
                </g>
            </g>
        </g>
    </g>
</svg>