<?xml version="1.0" encoding="UTF-8"?>
<svg width="17px" height="20px" viewBox="0 0 17 20" version="1.1" xmlns="http://www.w3.org/2000/svg" xmlns:xlink="http://www.w3.org/1999/xlink">
    <!-- Generator: Sketch 49 (51002) - http://www.bohemiancoding.com/sketch -->
    <title>pdf-file</title>
    <desc>Created with Sketch.</desc>
    <defs></defs>
    <g id="Page-1" stroke="none" stroke-width="1" fill="none" fill-rule="evenodd">
        <g id="Karmod_main" transform="translate(-385.000000, -998.000000)" fill="#FFFFFF" fill-rule="nonzero">
            <g id="Group-9" transform="translate(113.000000, 983.000000)">
                <g id="Group-7" transform="translate(2.000000, 0.000000)">
                    <g id="Group-20" transform="translate(30.000000, 15.000000)">
                        <g id="pdf-file" transform="translate(240.000000, 0.000000)">
                            <path d="M4.0589648,12.844472 C4.0589648,12.5129193 3.82890269,12.3151967 3.42298137,12.3151967 C3.25722567,12.3151967 3.14496894,12.3315528 3.08625259,12.347205 L3.08625259,13.4109731 C3.1557764,13.4266253 3.24124224,13.4318427 3.35904762,13.4318427 C3.79171843,13.4318427 4.0589648,13.2132505 4.0589648,12.844472 Z" id="Shape"></path>
                            <path d="M6.57180124,12.3263354 C6.3900207,12.3263354 6.27254658,12.342029 6.20306418,12.3583023 L6.20306418,14.7142443 C6.27258799,14.730559 6.38484472,14.730559 6.4863354,14.730559 C7.22376812,14.7357764 7.7047205,14.3298551 7.7047205,13.4697308 C7.70993789,12.7217805 7.27167702,12.3263354 6.57180124,12.3263354 Z" id="Shape"></path>
                            <path d="M11.2404969,0 L3.22198758,0 C2.05055901,0 1.09714286,0.954078675 1.09714286,2.12484472 L1.09714286,9.98215321 L0.889606625,9.98215321 C0.416811594,9.98215321 0.0333747412,10.3652174 0.0333747412,10.8384265 L0.0333747412,16.0311387 C0.0333747412,16.5043064 0.416770186,16.8873292 0.889606625,16.8873292 L1.09714286,16.8873292 L1.09714286,17.8395031 C1.09714286,19.0115528 2.05055901,19.9643478 3.22198758,19.9643478 L14.1628986,19.9643478 C15.3335818,19.9643478 16.2871222,19.0115114 16.2871222,17.8395031 L16.2871222,5.0289441 L11.2404969,0 Z M2.27962733,11.775528 C2.53055901,11.7331263 2.88327122,11.7011594 3.38020704,11.7011594 C3.88240166,11.7011594 4.24033126,11.7970186 4.48082816,11.9895652 C4.71055901,12.1710145 4.86559006,12.4705176 4.86559006,12.8229814 C4.86559006,13.1753623 4.74811594,13.4749482 4.53436853,13.6778882 C4.25635611,13.9395859 3.84521739,14.05706 3.36426501,14.05706 C3.25722567,14.05706 3.16128364,14.0517598 3.08625259,14.0413665 L3.08625259,15.3289855 L2.27962733,15.3289855 L2.27962733,11.775528 Z M14.1628986,18.6630642 L3.22198758,18.6630642 C2.7684058,18.6630642 2.39904762,18.293706 2.39904762,17.8395031 L2.39904762,16.8873292 L12.5982195,16.8873292 C13.0710973,16.8873292 13.4544928,16.5043064 13.4544928,16.0311387 L13.4544928,10.8384265 C13.4544928,10.3652174 13.0710973,9.98215321 12.5982195,9.98215321 L2.39904762,9.98215321 L2.39904762,2.12484472 C2.39904762,1.67192547 2.7684472,1.30256729 3.22198758,1.30256729 L10.7536646,1.29469979 L10.7536646,4.07867495 C10.7536646,4.89184265 11.4134576,5.55225673 12.2272464,5.55225673 L14.9544513,5.54443064 L14.9851346,17.8394617 C14.9851346,18.293706 14.6164389,18.6630642 14.1628986,18.6630642 Z M5.38571429,15.3126708 L5.38571429,11.775528 C5.68488613,11.7279089 6.07482402,11.7011594 6.4863354,11.7011594 C7.17022774,11.7011594 7.613706,11.8238509 7.96120083,12.0855072 C8.33515528,12.3635197 8.57006211,12.8066667 8.57006211,13.4428986 C8.57006211,14.1320497 8.31913043,14.6078261 7.9715942,14.9014493 C7.59242236,15.216646 7.0152381,15.3661284 6.31010352,15.3661284 C5.88782609,15.3661284 5.58865424,15.3393789 5.38571429,15.3126708 Z M11.21706,13.2184679 L11.21706,13.8808282 L9.92389234,13.8808282 L9.92389234,15.3289855 L9.10650104,15.3289855 L9.10650104,11.7279089 L11.3077433,11.7279089 L11.3077433,12.3954865 L9.92389234,12.3954865 L9.92389234,13.2184679 L11.21706,13.2184679 Z" id="Shape"></path>
                        </g>
                    </g>
                </g>
            </g>
        </g>
    </g>
</svg>