<?xml version="1.0" encoding="UTF-8"?>
<svg width="22px" height="22px" viewBox="0 0 22 22" version="1.1" xmlns="http://www.w3.org/2000/svg" xmlns:xlink="http://www.w3.org/1999/xlink">
    <!-- Generator: Sketch 49 (51002) - http://www.bohemiancoding.com/sketch -->
    <title>search</title>
    <desc>Created with Sketch.</desc>
    <defs></defs>
    <g id="Page-1" stroke="none" stroke-width="1" fill="none" fill-rule="evenodd">
        <g id="Karmod_main" transform="translate(-1304.000000, -112.000000)" fill="#1B1F7C">
            <g id="Group-5" transform="translate(1061.000000, 112.000000)">
                <g id="search" transform="translate(243.000000, 0.000000)">
                    <path d="M15.2777778,13.4444444 L14.3,13.4444444 L13.9333333,13.0777778 C15.1555556,11.7333333 15.8888889,9.9 15.8888889,7.94444444 C15.8888889,3.54444444 12.3444444,0 7.94444444,0 C3.54444444,0 0,3.54444444 0,7.94444444 C0,12.3444444 3.54444444,15.8888889 7.94444444,15.8888889 C9.9,15.8888889 11.7333333,15.1555556 13.0777778,13.9333333 L13.4444444,14.3 L13.4444444,15.2777778 L19.5555556,21.3888889 L21.3888889,19.5555556 L15.2777778,13.4444444 L15.2777778,13.4444444 Z M7.94444444,13.4444444 C4.88888889,13.4444444 2.44444444,11 2.44444444,7.94444444 C2.44444444,4.88888889 4.88888889,2.44444444 7.94444444,2.44444444 C11,2.44444444 13.4444444,4.88888889 13.4444444,7.94444444 C13.4444444,11 11,13.4444444 7.94444444,13.4444444 L7.94444444,13.4444444 Z" id="Shape"></path>
                </g>
            </g>
        </g>
    </g>
</svg>