<?xml version="1.0" encoding="UTF-8"?>
<svg width="60px" height="60px" viewBox="0 0 60 60" version="1.1" xmlns="http://www.w3.org/2000/svg" xmlns:xlink="http://www.w3.org/1999/xlink">
    <!-- Generator: Sketch 49 (51002) - http://www.bohemiancoding.com/sketch -->
    <title>smartphone</title>
    <desc>Created with Sketch.</desc>
    <defs></defs>
    <g id="Page-1" stroke="none" stroke-width="1" fill="none" fill-rule="evenodd">
        <g id="Karmod_main" transform="translate(-738.000000, -1438.000000)" fill-rule="nonzero">
            <g id="Group-24" transform="translate(738.000000, 1438.000000)">
                <g id="smartphone">
                    <path d="M42.1875,14.0634375 L42.204375,1.876875 C42.204375,1.3753125 42.009375,0.9046875 41.6559375,0.5503125 C41.3015625,0.195 40.8309375,0 40.329375,0 L32.8125,0 L10.3125,0 L1.875,0 C0.8409375,0 0,0.8409375 0,1.875 L0,58.125 C0,59.1590625 0.8409375,60 1.875,60 L40.3125,60 C41.3465625,60 42.1875,59.1590625 42.1875,58.125 L42.1875,45.9375 L40.3125,45.9375 L40.3125,58.125 L1.875,58.125 L1.875,1.875 L9.375,1.875 L9.375,5.625 L4.6875,5.625 C4.17,5.625 3.75,6.0440625 3.75,6.5625 L3.75,53.4375 C3.75,53.9559375 4.17,54.375 4.6875,54.375 L37.5,54.375 C38.0175,54.375 38.4375,53.9559375 38.4375,53.4375 L38.4375,44.0625 L36.5625,44.0625 L36.5625,52.5 L5.625,52.5 L5.625,7.5 L9.375,7.5 L9.375,8.4375 C9.375,9.988125 10.636875,11.25 12.1875,11.25 L30.9375,11.25 C32.488125,11.25 33.75,9.988125 33.75,8.4375 L33.75,7.5 L36.5625,7.5 L36.5625,15 L38.4375,15 L38.4375,6.5625 C38.4375,6.0440625 38.0175,5.625 37.5,5.625 L33.75,5.625 L33.75,1.875 L40.329375,1.875 L40.3125,14.0615625 L42.1875,14.0634375 Z M31.875,8.4375 C31.875,8.955 31.4540625,9.375 30.9375,9.375 L12.1875,9.375 C11.6709375,9.375 11.25,8.955 11.25,8.4375 L11.25,1.875 L31.875,1.875 L31.875,8.4375 Z" id="Shape" fill="#F79016"></path>
                    <rect id="Rectangle-path" fill="#F79016" x="14.0625" y="4.6875" width="1.875" height="1.875"></rect>
                    <rect id="Rectangle-path" fill="#F79016" x="27.1875" y="4.6875" width="1.875" height="1.875"></rect>
                    <rect id="Rectangle-path" fill="#F79016" x="20.625" y="4.6875" width="1.875" height="1.875"></rect>
                    <path d="M29.424375,41.2425 L22.49625,46.6275 L11.25,37.97625 L11.25,21.2690625 L22.50375,16.940625 L29.6709375,19.6284375 L30.3290625,17.8725 L22.8290625,15.0590625 C22.614375,14.979375 22.3771875,14.9803125 22.1634375,15.061875 L9.9759375,19.749375 C9.6140625,19.8890625 9.375,20.236875 9.375,20.625 L9.375,38.4375 C9.375,38.7290625 9.51,39.00375 9.740625,39.1809375 L21.928125,48.5559375 C22.096875,48.6853125 22.2984375,48.75 22.5,48.75 C22.7034375,48.75 22.9059375,48.684375 23.075625,48.5521875 L30.575625,42.721875 L29.424375,41.2425 Z" id="Shape" fill="#F79016"></path>
                    <path d="M24.5803125,27.5390625 L21.4846875,31.4090625 L20.3503125,30.2746875 L19.0246875,31.6003125 L20.8996875,33.4753125 C21.0759375,33.6525 21.3140625,33.75 21.5625,33.75 C21.5803125,33.75 21.5971875,33.7490625 21.6140625,33.748125 C21.8803125,33.733125 22.1278125,33.6065625 22.2946875,33.3984375 L26.0446875,28.7109375 L24.5803125,27.5390625 Z" id="Shape" fill="#1B1F7C"></path>
                    <path d="M22.5,23.4375 C18.3646875,23.4375 15,26.8021875 15,30.9375 C15,35.0728125 18.3646875,38.4375 22.5,38.4375 C26.6353125,38.4375 30,35.0728125 30,30.9375 C30,26.8021875 26.6353125,23.4375 22.5,23.4375 Z M22.5,36.5625 C19.3978125,36.5625 16.875,34.0396875 16.875,30.9375 C16.875,27.8353125 19.3978125,25.3125 22.5,25.3125 C25.6021875,25.3125 28.125,27.8353125 28.125,30.9375 C28.125,34.0396875 25.6021875,36.5625 22.5,36.5625 Z" id="Shape" fill="#1B1F7C"></path>
                    <path d="M45.9375,15.9375 C38.1834375,15.9375 31.875,22.2459375 31.875,30 C31.875,37.7540625 38.1834375,44.0625 45.9375,44.0625 C53.6915625,44.0625 60,37.7540625 60,30 C60,22.2459375 53.6915625,15.9375 45.9375,15.9375 Z M56.739375,24.375 C57.4828125,25.7971875 57.9496875,27.3825 58.078125,29.0625 L53.4028125,29.0625 C53.32125,27.4134375 53.038125,25.8328125 52.6059375,24.375 L56.739375,24.375 Z M55.524375,22.5 L51.945,22.5 C51.279375,20.8725 50.4534375,19.4578125 49.575,18.3675 C51.95625,19.11375 54.0178125,20.5790625 55.524375,22.5 Z M40.3471875,29.0625 C40.438125,27.3496875 40.764375,25.77375 41.2284375,24.375 L50.6475,24.375 C51.110625,25.77375 51.4378125,27.3496875 51.52875,29.0625 L40.3471875,29.0625 Z M51.5278125,30.9375 C51.436875,32.6503125 51.110625,34.22625 50.6465625,35.625 L41.2275,35.625 C40.764375,34.22625 40.4371875,32.6503125 40.34625,30.9375 L51.5278125,30.9375 Z M45.9375,17.8125 C46.7409375,17.8125 48.553125,19.58625 49.9059375,22.5 L41.968125,22.5 C43.321875,19.58625 45.1340625,17.8125 45.9375,17.8125 Z M42.3,18.3675 C41.4215625,19.4578125 40.5946875,20.8725 39.93,22.5 L36.350625,22.5 C37.8571875,20.5790625 39.91875,19.11375 42.3,18.3675 Z M35.1365625,24.375 L39.27,24.375 C38.836875,25.8328125 38.55375,27.4134375 38.4721875,29.0625 L33.7978125,29.0625 C33.92625,27.3825 34.393125,25.7971875 35.1365625,24.375 Z M35.135625,35.625 C34.393125,34.2028125 33.92625,32.6175 33.7978125,30.9375 L38.4721875,30.9375 C38.55375,32.5865625 38.836875,34.1671875 39.2690625,35.625 L35.135625,35.625 Z M36.350625,37.5 L39.93,37.5 C40.595625,39.1275 41.4215625,40.5421875 42.3,41.6325 C39.91875,40.88625 37.8571875,39.4209375 36.350625,37.5 Z M45.9375,42.1875 C45.1340625,42.1875 43.321875,40.41375 41.9690625,37.5 L49.906875,37.5 C48.553125,40.41375 46.7409375,42.1875 45.9375,42.1875 Z M49.575,41.6325 C50.4534375,40.5421875 51.2803125,39.1275 51.945,37.5 L55.524375,37.5 C54.0178125,39.4209375 51.95625,40.88625 49.575,41.6325 Z M56.7384375,35.625 L52.605,35.625 C53.038125,34.1671875 53.32125,32.5865625 53.4028125,30.9375 L58.0771875,30.9375 C57.94875,32.6175 57.481875,34.2028125 56.7384375,35.625 Z" id="Shape" fill="#F79016"></path>
                </g>
            </g>
        </g>
    </g>
</svg>