<?xml version="1.0" encoding="UTF-8"?>
<svg width="21px" height="21px" viewBox="0 0 21 21" version="1.1" xmlns="http://www.w3.org/2000/svg" xmlns:xlink="http://www.w3.org/1999/xlink">
    <!-- Generator: Sketch 49 (51002) - http://www.bohemiancoding.com/sketch -->
    <title>vk</title>
    <desc>Created with Sketch.</desc>
    <defs></defs>
    <g id="Page-1" stroke="none" stroke-width="1" fill="none" fill-rule="evenodd">
        <g id="Karmod_main" transform="translate(-1200.000000, -32.000000)">
            <g id="Group-2" transform="translate(1108.000000, 32.000000)">
                <g id="vk" transform="translate(92.000000, 0.000000)">
                    <rect id="Rectangle-8" fill="#3C8EB7" x="0" y="0" width="21" height="21" rx="2"></rect>
                    <g id="vk-social-network-logo" transform="translate(3.333333, 6.333333)" fill="#FFFFFF" fill-rule="nonzero">
                        <path d="M14.2573169,7.52591467 C14.2399609,7.48779895 14.2237811,7.45618234 14.2087515,7.43085176 C13.960069,6.97444858 13.4848434,6.41424597 12.7833622,5.75008411 L12.7685416,5.73487511 L12.7611182,5.72741711 L12.7536165,5.71977265 L12.7460886,5.71977265 C12.4277206,5.41050523 12.2261137,5.2025601 12.1416861,5.0960971 C11.987207,4.89329268 11.9525996,4.68801113 12.0370272,4.48001273 C12.0966754,4.32286194 12.3207354,3.99098078 12.7086842,3.48391645 C12.9127482,3.2151886 13.074363,2.99981211 13.1937118,2.83754726 C14.0544815,1.67143513 14.4276621,0.926274024 14.3131751,0.601770961 L14.2687134,0.525939046 C14.238837,0.480285409 14.1617281,0.438520589 14.0374915,0.400431499 C13.9129672,0.362422317 13.7538094,0.356136285 13.5597304,0.381466862 L11.4105115,0.396595955 C11.3756949,0.384023891 11.3259793,0.385195863 11.2612079,0.400431499 C11.1965149,0.415667135 11.1641553,0.423311589 11.1641553,0.423311589 L11.126751,0.442356134 L11.0970575,0.465236223 C11.0721736,0.480365316 11.0448065,0.506974408 11.0149301,0.545010226 C10.9852105,0.582912866 10.9603528,0.62739453 10.9404874,0.678082319 C10.7064948,1.29152975 10.4404563,1.86188057 10.1418753,2.38910816 C9.95778121,2.70348964 9.78871685,2.9759465 9.63431623,3.20663853 C9.48012472,3.43725065 9.35076487,3.60715996 9.24636736,3.71607345 C9.14181303,3.82509348 9.04745274,3.91243203 8.96271145,3.97840872 C8.87810085,4.04441205 8.81351241,4.07229966 8.76878929,4.06209818 C8.72396162,4.05189669 8.68174781,4.04177512 8.64178191,4.03165354 C8.57217486,3.9859999 8.51618601,3.92391202 8.4739722,3.84533663 C8.43157542,3.76676123 8.40303208,3.66786278 8.38810695,3.54872117 C8.37326023,3.42949966 8.36447767,3.32695211 8.36196837,3.24073226 C8.35964203,3.15461895 8.36071371,3.03281377 8.36575846,2.87566298 C8.3709339,2.71843229 8.37326023,2.61204919 8.37326023,2.55627398 C8.37326023,2.36359113 8.37694577,2.15447404 8.38434299,1.92886943 C8.39187091,1.70326482 8.3979612,1.52451245 8.40305822,1.39282542 C8.4081291,1.26100521 8.41048158,1.12154054 8.41048158,0.974511326 C8.41048158,0.827482112 8.40169901,0.712176049 8.38434299,0.628486595 C8.36719608,0.544903683 8.34087453,0.463771258 8.30618863,0.385115956 C8.27129362,0.306540561 8.22021882,0.245757832 8.15319949,0.202607954 C8.08604947,0.159511348 8.00256283,0.125311074 7.90321007,0.0999005905 C7.63949789,0.0390912255 7.3036955,0.0061961025 6.89564606,0.0010820429 C5.97031404,-0.0090395334 5.37573966,0.0518497388 5.11205362,0.183669952 C5.0075777,0.239365258 4.91303444,0.31546353 4.82850226,0.411725048 C4.73892533,0.523302109 4.72643109,0.584191381 4.79109795,0.594206414 C5.08965286,0.639780143 5.30100945,0.748800174 5.42540297,0.921159964 L5.47023065,1.01249387 C5.50509952,1.07839066 5.53991611,1.19505515 5.57475884,1.36232751 C5.6095493,1.52959988 5.63200234,1.71463827 5.64188273,1.91733616 C5.66671438,2.28749286 5.66671438,2.60435147 5.64188273,2.86793862 C5.61697266,3.13163232 5.59344793,3.33691387 5.57099489,3.48394308 C5.54854184,3.6309723 5.5149799,3.7501139 5.47023065,3.84134127 C5.42540297,3.93259527 5.39557885,3.98837048 5.38062758,4.00861364 C5.36570245,4.02885679 5.35326048,4.0416153 5.3433801,4.04662282 C5.27871324,4.07187349 5.21145866,4.08473854 5.14185161,4.08473854 C5.07214001,4.08473854 4.98760782,4.04920648 4.88812437,3.97819564 C4.78866706,3.90718479 4.68544579,3.80964475 4.57846056,3.68541572 C4.47147534,3.56116006 4.35081963,3.38752175 4.21644117,3.16447417 C4.08216726,2.94142659 3.94284861,2.6778128 3.79856362,2.3736328 L3.67918871,2.15303571 C3.60456305,2.01112055 3.50262257,1.80448058 3.37326272,1.53330224 C3.24382445,1.26201736 3.12941587,0.999602181 3.02995855,0.746109966 C2.99020177,0.639646965 2.9304751,0.558594447 2.85088311,0.502819234 L2.81353108,0.479939145 C2.78869942,0.459695992 2.74883808,0.43820096 2.69415616,0.415294235 C2.63939583,0.392414146 2.58225688,0.376006538 2.52250408,0.365911597 L0.477708767,0.38104069 C0.268756924,0.38104069 0.126981243,0.429277992 0.0523294458,0.525619417 L0.0224530439,0.571193146 C0.00752791228,0.596576994 0,0.63711657 0,0.692918419 C0,0.748693631 0.0149251316,0.81714745 0.0448015335,0.898199968 C0.343304166,1.61310288 0.667919245,2.30256868 1.01864677,2.9667039 C1.36937429,3.63083912 1.67415019,4.1658177 1.93279148,4.57116019 C2.19148505,4.97679568 2.45517108,5.35963099 2.72384959,5.71947966 C2.9925281,6.07946151 3.17037503,6.31015354 3.25739038,6.41150249 C3.34451028,6.51303788 3.41294109,6.5889497 3.46268282,6.63963749 L3.64928617,6.82211885 C3.76868722,6.94381749 3.94402485,7.08956819 4.17537746,7.25937095 C4.40678234,7.42928025 4.66296661,7.59655262 4.94406094,7.76145441 C5.22520756,7.92608984 5.55227966,8.06044044 5.92546023,8.16434641 C6.29858852,8.26835893 6.66175801,8.31009711 7.01502098,8.2899605 L7.87325525,8.2899605 C8.04731209,8.27464496 8.17918125,8.21886975 8.26881045,8.12260823 L8.29850388,8.0844925 C8.31847376,8.05423432 8.33716285,8.00722226 8.35441431,7.94396241 C8.37187489,7.88059601 8.3805529,7.81078377 8.3805529,7.73484532 C8.37545587,7.51688516 8.39174021,7.32044667 8.42896156,7.14555649 C8.46615676,6.97071958 8.50855355,6.83889936 8.55596894,6.75012248 C8.60335819,6.66142551 8.65683773,6.58657912 8.71635529,6.52590293 C8.77600354,6.46509357 8.81850488,6.42825636 8.84344109,6.41557775 C8.86822047,6.40281924 8.88800737,6.39416263 8.90293251,6.38896866 C9.02233356,6.34842908 9.16285459,6.38769015 9.3247047,6.5069383 C9.48642412,6.6260799 9.63810633,6.77318902 9.77998656,6.94802594 C9.92178838,7.12302266 10.0921597,7.31935461 10.2911266,7.53731476 C10.4902242,7.75535483 10.6643071,7.91743322 10.8135062,8.02405604 L10.9627052,8.11531004 C11.0623455,8.17619931 11.1917054,8.23197453 11.3509416,8.28266231 C11.5098903,8.33332347 11.6491567,8.34600207 11.7687407,8.3206715 L13.6791315,8.29030677 C13.8680873,8.29030677 14.0151168,8.2584238 14.1194098,8.19516395 C14.2239118,8.13179756 14.285991,8.06198532 14.3060131,7.98604686 C14.325983,7.91002849 14.3270547,7.82378201 14.3098032,7.72736068 C14.2921074,7.63117907 14.274673,7.56392385 14.2573169,7.52591467 Z" id="Shape"></path>
                    </g>
                </g>
            </g>
        </g>
    </g>
</svg>