<?xml version="1.0" encoding="UTF-8"?>
<svg width="120px" height="120px" viewBox="0 0 120 120" version="1.1" xmlns="http://www.w3.org/2000/svg" xmlns:xlink="http://www.w3.org/1999/xlink">
    <!-- Generator: Sketch 47.1 (45422) - http://www.bohemiancoding.com/sketch -->
    <title>box-2</title>
    <desc>Created with Sketch.</desc>
    <defs></defs>
    <g id="Page-1" stroke="none" stroke-width="1" fill="none" fill-rule="evenodd">
        <g id="china_consulting" transform="translate(-1060.000000, -2906.000000)" fill-rule="nonzero" fill="#217DD1">
            <g id="box-2" transform="translate(1060.000000, 2906.000000)">
                <path d="M99.108,0 L20.892,0 L0,33.426 L0,120 L120,120 L120,33.426 L99.108,0 Z M114.392,32 L62,32 L62,4 L96.892,4 L114.392,32 Z M23.108,4 L58,4 L58,32 L5.608,32 L23.108,4 Z M4,116 L4,36 L116,36 L116,116 L4,116 Z" id="Shape"></path>
                <path d="M72,46 L48,46 C44.692,46 42,48.692 42,52 C42,55.308 44.692,58 48,58 L72,58 C75.308,58 78,55.308 78,52 C78,48.692 75.308,46 72,46 Z M72,54 L48,54 C46.898,54 46,53.104 46,52 C46,50.896 46.898,50 48,50 L72,50 C73.102,50 74,50.896 74,52 C74,53.104 73.102,54 72,54 Z" id="Shape"></path>
                <path d="M76,104 L44,104 C42.896,104 42,104.894 42,106 C42,107.106 42.896,108 44,108 L76,108 C77.104,108 78,107.106 78,106 C78,104.894 77.104,104 76,104 Z" id="Shape"></path>
                <path d="M50,100 C51.104,100 52,99.106 52,98 L52,84.828 L54.586,87.414 C54.976,87.804 55.488,88 56,88 C56.512,88 57.024,87.804 57.414,87.414 C58.196,86.632 58.196,85.368 57.414,84.586 L51.416,78.588 C51.232,78.402 51.01,78.256 50.764,78.154 C50.276,77.952 49.724,77.952 49.236,78.154 C48.99,78.256 48.77,78.402 48.584,78.588 L42.586,84.586 C41.804,85.368 41.804,86.632 42.586,87.414 C42.976,87.804 43.488,88 44,88 C44.512,88 45.024,87.804 45.414,87.414 L48,84.828 L48,98 C48,99.106 48.896,100 50,100 Z" id="Shape"></path>
                <path d="M71.416,78.588 C71.232,78.402 71.01,78.256 70.764,78.154 C70.276,77.952 69.724,77.952 69.236,78.154 C68.99,78.256 68.77,78.402 68.584,78.588 L62.586,84.586 C61.804,85.368 61.804,86.632 62.586,87.414 C62.976,87.804 63.488,88 64,88 C64.512,88 65.024,87.804 65.414,87.414 L68,84.828 L68,98 C68,99.106 68.896,100 70,100 C71.104,100 72,99.106 72,98 L72,84.828 L74.586,87.414 C74.976,87.804 75.488,88 76,88 C76.512,88 77.024,87.804 77.414,87.414 C78.196,86.632 78.196,85.368 77.414,84.586 L71.416,78.588 Z" id="Shape"></path>
            </g>
        </g>
    </g>
</svg>