<?xml version="1.0" encoding="UTF-8"?>
<svg width="63px" height="60px" viewBox="0 0 63 60" version="1.1" xmlns="http://www.w3.org/2000/svg" xmlns:xlink="http://www.w3.org/1999/xlink">
    <!-- Generator: Sketch 47.1 (45422) - http://www.bohemiancoding.com/sketch -->
    <title>box</title>
    <desc>Created with Sketch.</desc>
    <defs></defs>
    <g id="Page-1" stroke="none" stroke-width="1" fill="none" fill-rule="evenodd">
        <g id="china_consulting" transform="translate(-580.000000, -1095.000000)" fill-rule="nonzero" fill="#217DD1">
            <g id="Group-4" transform="translate(545.000000, 1070.000000)">
                <g id="box" transform="translate(35.000000, 25.000000)">
                    <path d="M57.5086423,43.8263563 C57.2702109,43.1844534 56.5535725,42.8561538 55.9076936,43.092996 L42.9446535,47.8467206 C42.2987746,48.0835628 41.9684414,48.7959109 42.2067506,49.4378138 C42.3926317,49.9382186 42.8691278,50.2480567 43.3762985,50.2480567 C43.5195285,50.2480567 43.6653248,50.2232794 43.8076992,50.1711741 L56.7707394,45.4174494 C57.4166183,45.1806073 57.7469515,44.4682591 57.5086423,43.8263563 Z" id="Shape"></path>
                    <path d="M40.9814749,49.8872065 C40.7432879,49.2451822 40.0264051,48.9168826 39.3805262,49.1537247 L38.8315597,49.3549798 C38.185803,49.5918219 37.8553477,50.30417 38.0936568,50.9459514 C38.2794157,51.4463563 38.756034,51.7563158 39.2632048,51.7563158 C39.4064347,51.7563158 39.552231,51.7315385 39.6946055,51.6794332 L40.243572,51.4781781 C40.8893287,51.241336 41.219784,50.5291093 40.9814749,49.8872065 Z" id="Shape"></path>
                    <path d="M57.5086423,38.7784615 C57.2702109,38.1365587 56.5535725,37.808502 55.9076936,38.0451012 L45.6634554,41.8017814 C45.0175765,42.0386235 44.6872433,42.7509717 44.9255525,43.3928745 C45.1114336,43.8932794 45.5879297,44.2031174 46.0951004,44.2031174 C46.2383304,44.2031174 46.3841267,44.1783401 46.5265011,44.1262348 L56.7707394,40.3695547 C57.4166183,40.1327126 57.7469515,39.4203644 57.5086423,38.7784615 Z" id="Shape"></path>
                    <path d="M57.5086423,33.7830364 C57.2702109,33.1411336 56.5535725,32.8130769 55.9076936,33.0496761 L45.6634554,36.8063563 C45.0175765,37.0431984 44.6872433,37.7555466 44.9255525,38.3974494 C45.1114336,38.8978543 45.5879297,39.2076923 46.0951004,39.2076923 C46.2383304,39.2076923 46.3841267,39.182915 46.5265011,39.1308097 L56.7707394,35.3741296 C57.4166183,35.1372874 57.7469515,34.4249393 57.5086423,33.7830364 Z" id="Shape"></path>
                    <path d="M61.7565335,11.1167611 L31.7172372,0.101052632 C31.438721,-0.000971659919 31.1327076,-0.000971659919 30.8543136,0.101052632 L0.815017299,11.1167611 L0.814772879,11.1177328 C0.716393973,11.1539271 0.621803571,11.2017814 0.5338125,11.2626316 C0.199324219,11.4943725 0,11.8739271 0,12.2789879 L0,47.7210121 C0,48.2397571 0.325200335,48.7036032 0.814895089,48.8832389 L30.8541914,59.8989474 C30.9942439,59.9503239 31.1402846,59.9754656 31.2855921,59.9754656 C31.4323661,59.9754656 31.5784068,59.9489879 31.7167483,59.8982186 L31.7172372,59.8989474 L61.7565335,48.8832389 C62.2462282,48.7036032 62.5714286,48.2398785 62.5714286,47.7210121 L62.5714286,12.2789879 C62.5714286,11.7601215 62.2462282,11.2963968 61.7565335,11.1167611 Z M30.0392963,56.9593117 L2.49283594,46.8576923 L2.49283594,14.0565182 L8.1017779,16.1135223 L8.1017779,31.122996 C8.1017779,31.6417409 8.42697824,32.105587 8.91667299,32.2852227 L22.378207,37.2218623 C22.5182595,37.2732389 22.6643002,37.2983806 22.8096077,37.2983806 C23.0611155,37.2983806 23.3104235,37.2227126 23.5224576,37.0758704 C23.8568237,36.844251 24.0561479,36.4646964 24.0561479,36.0596356 L24.0561479,21.9641296 L30.0390519,24.1581377 L30.0390519,56.9593117 L30.0392963,56.9593117 Z M21.5634342,21.049919 L21.5634342,34.2818623 L10.594736,30.2594332 L10.594736,17.0274899 L21.5634342,21.049919 Z M12.948986,15.2401215 L22.8098521,11.6239676 L32.6707182,15.2401215 L22.8098521,18.8562753 L12.948986,15.2401215 Z M31.2857143,21.974332 L26.3971992,20.1816194 L36.7030313,16.4022267 C37.192726,16.2225911 37.5179263,15.7588664 37.5179263,15.24 C37.5179263,14.7211336 37.192726,14.2574089 36.7030313,14.0777733 L23.241375,9.14125506 C22.9628588,9.03923077 22.6569676,9.03923077 22.3783292,9.14125506 L9.33475279,13.9247368 L4.84720815,12.2789879 L31.2857143,2.58376518 L57.7242204,12.2791093 L31.2857143,21.974332 Z M60.0785926,46.8576923 L32.5322545,56.9591903 L32.5322545,24.1581377 L60.0785926,14.0565182 L60.0785926,46.8576923 Z" id="Shape"></path>
                </g>
            </g>
        </g>
    </g>
</svg>