<?xml version="1.0" encoding="UTF-8"?>
<svg width="70px" height="43px" viewBox="0 0 70 43" version="1.1" xmlns="http://www.w3.org/2000/svg" xmlns:xlink="http://www.w3.org/1999/xlink">
    <!-- Generator: Sketch 47.1 (45422) - http://www.bohemiancoding.com/sketch -->
    <title>delivery-truck</title>
    <desc>Created with Sketch.</desc>
    <defs></defs>
    <g id="Page-1" stroke="none" stroke-width="1" fill="none" fill-rule="evenodd">
        <g id="china_consulting" transform="translate(-180.000000, -1100.000000)" fill-rule="nonzero" fill="#217DD1">
            <g id="Group-5" transform="translate(145.000000, 1070.000000)">
                <g id="delivery-truck" transform="translate(35.000000, 30.000000)">
                    <path d="M69.4732943,22.2064873 C69.5009942,22.1793726 69.5185965,22.1629395 69.5185965,22.1629395 L59.1845224,10.3231497 C59.1845224,10.3231497 59.1592788,10.3341051 59.1168421,10.3513599 C58.86154,10.0431019 58.4767446,9.84672611 58.0462378,9.84672611 L49.1496881,9.84672611 L49.1496881,1.46884713 C49.1496881,0.697585987 48.5266472,0.0721687898 47.7580117,0.0721687898 L3.99805068,0.0721687898 C3.2294152,0.0721687898 2.60637427,0.697585987 2.60637427,1.46884713 L2.60637427,32.1494841 L1.39167641,32.1494841 C0.623040936,32.1494841 0,32.7749013 0,33.5461624 C0,34.3174236 0.623040936,34.9428408 1.39167641,34.9428408 L2.60637427,34.9428408 L2.60637427,36.5750605 C2.60637427,37.3463217 3.2294152,37.9717389 3.99805068,37.9717389 L6.74060429,37.9717389 C7.37660819,40.804672 9.90247563,42.9278312 12.9146589,42.9278312 C15.9268421,42.9278312 18.4527096,40.804672 19.0888499,37.9717389 L51.7351852,37.9717389 L51.7351852,37.9716019 C52.3711891,40.804535 54.8970565,42.9276943 57.9092398,42.9276943 C60.921423,42.9276943 63.4472904,40.804535 64.0834308,37.9716019 L68.4720078,37.9716019 C69.2406433,37.9716019 69.8636842,37.3461847 69.8636842,36.5749236 L69.8636842,23.1749459 C69.8635478,22.7984904 69.7145419,22.4576401 69.4732943,22.2064873 Z M12.9146589,40.1343376 C10.9590253,40.1343376 9.3679922,38.537449 9.3679922,36.5749236 C9.3679922,34.6123981 10.9590253,33.0155096 12.9146589,33.0155096 C14.8702924,33.0155096 16.461462,34.6123981 16.461462,36.5749236 C16.4613255,38.537449 14.8704288,40.1343376 12.9146589,40.1343376 Z M46.3663353,35.1781083 L19.0887135,35.1781083 C18.4527096,32.3451752 15.9268421,30.2220159 12.9145224,30.2220159 C9.90233918,30.2220159 7.37647173,32.3451752 6.74046784,35.1781083 L5.3897271,35.1781083 L5.3897271,29.0229459 L46.3661988,29.0229459 L46.3661988,35.1781083 L46.3663353,35.1781083 Z M46.3663353,26.2295892 L5.3897271,26.2295892 L5.3897271,2.86538854 L46.3661988,2.86538854 L46.3661988,26.2295892 L46.3663353,26.2295892 Z M59.4380507,14.8528025 L65.4827485,21.7782675 L59.4380507,21.7782675 L59.4380507,14.8528025 Z M57.9091033,40.1343376 C55.9534698,40.1343376 54.3624366,38.537449 54.3624366,36.5749236 C54.3624366,34.6123981 55.9534698,33.0155096 57.9091033,33.0155096 C59.8647368,33.0155096 61.4559064,34.6123981 61.4559064,36.5749236 C61.4559064,38.537449 59.8647368,40.1343376 57.9091033,40.1343376 Z M67.0801949,35.1781083 L64.0832943,35.1781083 C63.4472904,32.3451752 60.921423,30.2220159 57.9091033,30.2220159 C54.8969201,30.2220159 52.3710526,32.3451752 51.7350487,35.1781083 L49.1496881,35.1781083 L49.1496881,12.6399459 L56.6545614,12.6399459 L56.6545614,23.1748089 C56.6545614,23.9460701 57.2776023,24.5714873 58.0462378,24.5714873 L67.0800585,24.5714873 L67.0800585,35.1781083 L67.0801949,35.1781083 Z" id="Shape"></path>
                    <path d="M43.0036062,21.9189076 L31.3133333,21.9189076 C30.5446979,21.9189076 29.9216569,22.5443248 29.9216569,23.315586 C29.9216569,24.0868471 30.5446979,24.7122643 31.3133333,24.7122643 L43.0036062,24.7122643 C43.7722417,24.7122643 44.3952827,24.0868471 44.3952827,23.315586 C44.3952827,22.5443248 43.7722417,21.9189076 43.0036062,21.9189076 Z" id="Shape"></path>
                    <path d="M26.9991228,21.9189076 L26.1640351,21.9189076 C25.3953996,21.9189076 24.7723587,22.5443248 24.7723587,23.315586 C24.7723587,24.0868471 25.3953996,24.7122643 26.1640351,24.7122643 L26.9991228,24.7122643 C27.7677583,24.7122643 28.3907992,24.0868471 28.3907992,23.315586 C28.3907992,22.5443248 27.7677583,21.9189076 26.9991228,21.9189076 Z" id="Shape"></path>
                </g>
            </g>
        </g>
    </g>
</svg>