<?xml version="1.0" encoding="UTF-8"?>
<svg width="21px" height="21px" viewBox="0 0 21 21" version="1.1" xmlns="http://www.w3.org/2000/svg" xmlns:xlink="http://www.w3.org/1999/xlink">
    <!-- Generator: Sketch 47.1 (45422) - http://www.bohemiancoding.com/sketch -->
    <title>fb</title>
    <desc>Created with Sketch.</desc>
    <defs></defs>
    <g id="Page-1" stroke="none" stroke-width="1" fill="none" fill-rule="evenodd">
        <g id="china_consulting" transform="translate(-664.000000, -5117.000000)" fill-rule="nonzero" fill="#9B9B9B">
            <g id="Group-2" transform="translate(664.000000, 5117.000000)">
                <g id="fb">
                    <path d="M18.9,0 L2.1,0 C0.945,0 0,0.945 0,2.1 L0,18.9 C0,20.055 0.945,21 2.1,21 L18.9,21 C20.055,21 21,20.055 21,18.9 L21,2.1 C21,0.945 20.055,0 18.9,0 Z M17.85,2.1 L17.85,5.25 L15.75,5.25 C15.12,5.25 14.7,5.67 14.7,6.3 L14.7,8.4 L17.85,8.4 L17.85,11.55 L14.7,11.55 L14.7,18.9 L11.55,18.9 L11.55,11.55 L9.45,11.55 L9.45,8.4 L11.55,8.4 L11.55,5.775 C11.55,3.78 13.23,2.1 15.225,2.1 L17.85,2.1 Z" id="Shape"></path>
                </g>
            </g>
        </g>
    </g>
</svg>