<?xml version="1.0" encoding="UTF-8"?>
<svg width="21px" height="21px" viewBox="0 0 21 21" version="1.1" xmlns="http://www.w3.org/2000/svg" xmlns:xlink="http://www.w3.org/1999/xlink">
    <!-- Generator: Sketch 47.1 (45422) - http://www.bohemiancoding.com/sketch -->
    <title>inst</title>
    <desc>Created with Sketch.</desc>
    <defs></defs>
    <g id="Page-1" stroke="none" stroke-width="1" fill="none" fill-rule="evenodd">
        <g id="china_consulting" transform="translate(-710.000000, -5117.000000)" fill-rule="nonzero" fill="#9B9B9B">
            <g id="Group-2" transform="translate(664.000000, 5117.000000)">
                <g id="inst" transform="translate(46.000000, 0.000000)">
                    <path d="M18.9,0 L2.1,0 C0.945,0 0,0.945 0,2.1 L0,18.9 C0,20.055 0.945,21 2.1,21 L18.9,21 C20.055,21 21,20.055 21,18.9 L21,2.1 C21,0.945 20.055,0 18.9,0 Z M10.5,6.3 C12.81,6.3 14.7,8.19 14.7,10.5 C14.7,12.81 12.81,14.7 10.5,14.7 C8.19,14.7 6.3,12.81 6.3,10.5 C6.3,8.19 8.19,6.3 10.5,6.3 Z M2.625,18.9 C2.31,18.9 2.1,18.69 2.1,18.375 L2.1,9.45 L4.305,9.45 C4.2,9.765 4.2,10.185 4.2,10.5 C4.2,13.965 7.035,16.8 10.5,16.8 C13.965,16.8 16.8,13.965 16.8,10.5 C16.8,10.185 16.8,9.765 16.695,9.45 L18.9,9.45 L18.9,18.375 C18.9,18.69 18.69,18.9 18.375,18.9 L2.625,18.9 Z M18.9,4.725 C18.9,5.04 18.69,5.25 18.375,5.25 L16.275,5.25 C15.96,5.25 15.75,5.04 15.75,4.725 L15.75,2.625 C15.75,2.31 15.96,2.1 16.275,2.1 L18.375,2.1 C18.69,2.1 18.9,2.31 18.9,2.625 L18.9,4.725 Z" id="Shape"></path>
                </g>
            </g>
        </g>
    </g>
</svg>