<?xml version="1.0" encoding="UTF-8"?>
<svg width="31px" height="27px" viewBox="0 0 31 27" version="1.1" xmlns="http://www.w3.org/2000/svg" xmlns:xlink="http://www.w3.org/1999/xlink">
    <!-- Generator: Sketch 47.1 (45422) - http://www.bohemiancoding.com/sketch -->
    <title>right-quote-sign</title>
    <desc>Created with Sketch.</desc>
    <defs></defs>
    <g id="Page-1" stroke="none" stroke-width="1" fill="none" fill-rule="evenodd">
        <g id="china_consulting" transform="translate(-705.000000, -3812.000000)" fill-rule="nonzero" fill="#D3E3F6">
            <g id="Group-31" transform="translate(140.000000, 3719.000000)">
                <g id="Group-27" transform="translate(255.000000, 0.000000)">
                    <g id="Group-26">
                        <g id="Group-24" transform="translate(126.000000, 93.000000)">
                            <g id="right-quote-sign" transform="translate(184.000000, 0.000000)">
                                <path d="M29.0394564,0.00617770035 L19.5063554,0.00617770035 C18.6408502,0.00617770035 17.9384111,0.708616725 17.9384111,1.57412195 L17.9384111,11.107223 C17.9384111,11.9727596 18.6408502,12.6751672 19.5063554,12.6751672 L24.0690732,12.6751672 C24.0094913,15.1713659 23.4293519,17.1688955 22.3317909,18.6709861 C21.4662857,19.8563519 20.1555157,20.837885 18.4025226,21.6124495 C17.5965993,21.9668049 17.2485157,22.920115 17.6248223,23.716662 L18.7537422,26.0999373 C19.1175052,26.8650627 20.0175052,27.2006341 20.7952056,26.8650627 C22.8711638,25.9681986 24.6241568,24.833007 26.0540906,23.453216 C27.797676,21.7692439 28.9924181,19.8688955 29.6384111,17.7490348 C30.2844355,15.6291742 30.6074007,12.737885 30.6074007,9.06889547 L30.6074007,1.57412195 C30.6074007,0.708648084 29.9049303,0.00617770035 29.0394564,0.00617770035 Z" id="Shape"></path>
                                <path d="M3.35652962,26.8587909 C5.4074007,25.9650627 7.1509547,24.8299024 8.59032753,23.453216 C10.349561,21.7692439 11.5506063,19.8751672 12.1965993,17.7709861 C12.8425923,15.6668049 13.1655575,12.766108 13.1655575,9.06889547 L13.1655575,1.57412195 C13.1655575,0.708616725 12.4631498,0.00617770035 11.5976132,0.00617770035 L2.0645122,0.00617770035 C1.19900697,0.00617770035 0.496567944,0.708616725 0.496567944,1.57412195 L0.496567944,11.107223 C0.496567944,11.9727596 1.19900697,12.6751672 2.0645122,12.6751672 L6.62722997,12.6751672 C6.56764808,15.1713659 5.98750871,17.1688955 4.88994774,18.6709861 C4.02444251,19.8563519 2.71364111,20.837885 0.960679443,21.6124495 C0.154756098,21.9668049 -0.193327526,22.920115 0.182979094,23.716662 L1.30876307,26.0936655 C1.67255749,26.8587909 2.57882927,27.1974983 3.35652962,26.8587909 Z" id="Shape"></path>
                            </g>
                        </g>
                    </g>
                </g>
            </g>
        </g>
    </g>
</svg>