<?xml version="1.0" encoding="UTF-8"?>
<svg width="58px" height="60px" viewBox="0 0 58 60" version="1.1" xmlns="http://www.w3.org/2000/svg" xmlns:xlink="http://www.w3.org/1999/xlink">
    <!-- Generator: Sketch 47.1 (45422) - http://www.bohemiancoding.com/sketch -->
    <title>route</title>
    <desc>Created with Sketch.</desc>
    <defs></defs>
    <g id="Page-1" stroke="none" stroke-width="1" fill="none" fill-rule="evenodd">
        <g id="china_consulting" transform="translate(-398.000000, -1487.000000)" fill-rule="nonzero" fill="#217DD1">
            <g id="Group-5-Copy" transform="translate(357.000000, 1465.000000)">
                <g id="route" transform="translate(41.000000, 22.000000)">
                    <path d="M11.2756098,0 C5.06340244,0 0.00945470383,5.07410156 0.00945470383,11.3108203 C0.00945470383,15.496875 1.84962021,19.8803906 5.33116899,23.9876953 C7.9182561,27.0397266 10.4825819,28.8657422 10.5904355,28.9420312 C10.7958711,29.0872266 11.0357404,29.1597656 11.2756098,29.1597656 C11.5153624,29.1597656 11.7552317,29.0872266 11.9609007,28.9420312 C12.0687544,28.8657422 14.6330801,27.0398437 17.2201672,23.9876953 C20.7015993,19.8803906 22.5417648,15.496875 22.5417648,11.3108203 C22.5418815,5.07410156 17.4879338,0 11.2756098,0 Z M11.2745592,26.4595312 C9.08130139,24.6978516 2.39040592,18.7157812 2.39040592,11.3108203 C2.39040592,6.39199219 6.3763223,2.39039063 11.2756098,2.39039063 C16.1748972,2.39039063 20.1606969,6.39199219 20.1606969,11.3108203 C20.1606969,18.6984375 13.465716,24.6952734 11.2745592,26.4595312 Z" id="Shape"></path>
                    <path d="M11.2756098,5.6746875 C8.18006969,5.6746875 5.66173345,8.20300781 5.66173345,11.3108203 C5.66173345,14.4186328 8.18006969,16.9469531 11.2756098,16.9469531 C14.3710331,16.9469531 16.8894861,14.4186328 16.8894861,11.3108203 C16.8896028,8.20300781 14.3711498,5.6746875 11.2756098,5.6746875 Z M11.2756098,14.5565625 C9.49298955,14.5565625 8.04268467,13.1005078 8.04268467,11.3108203 C8.04268467,9.52113281 9.49298955,8.06507812 11.2756098,8.06507812 C13.05823,8.06507812 14.5085348,9.52113281 14.5085348,11.3108203 C14.5085348,13.1005078 13.0583467,14.5565625 11.2756098,14.5565625 Z" id="Shape"></path>
                    <path d="M32.9027195,34.1709375 C27.3817561,34.1709375 22.8901882,38.6804297 22.8901882,44.2231641 C22.8901882,53.0895703 31.8366725,59.5130859 32.2175453,59.7821484 C32.4230976,59.9273437 32.6629669,59.9998828 32.9028362,59.9998828 C33.1427056,59.9998828 33.3824582,59.9273437 33.5881272,59.7821484 C33.9691167,59.5130859 42.9154843,53.0895703 42.9154843,44.2231641 C42.9153676,38.6804297 38.4236829,34.1709375 32.9027195,34.1709375 Z M32.9027195,57.2954297 C30.9108118,55.6741406 25.2711394,50.5262109 25.2711394,44.2231641 C25.2711394,39.9984375 28.694676,36.5613281 32.9027195,36.5613281 C37.1107631,36.5613281 40.5342997,39.9984375 40.5342997,44.2231641 C40.5342997,50.5267969 34.8938101,55.6748438 32.9027195,57.2954297 Z" id="Shape"></path>
                    <path d="M32.9027195,39.1395703 C30.1106638,39.1395703 27.8392003,41.4200391 27.8392003,44.2231641 C27.8392003,47.0262891 30.1106638,49.3067578 32.9027195,49.3067578 C35.6947753,49.3067578 37.9662387,47.0262891 37.9662387,44.2231641 C37.9663554,41.4200391 35.6947753,39.1395703 32.9027195,39.1395703 Z M32.9027195,46.91625 C31.4235836,46.91625 30.2201516,45.7081641 30.2201516,44.2230469 C30.2201516,42.7379297 31.4234669,41.5298438 32.9027195,41.5298438 C34.3819721,41.5298438 35.5852875,42.7379297 35.5852875,44.2230469 C35.5852875,45.7081641 34.3819721,46.91625 32.9027195,46.91625 Z" id="Shape"></path>
                    <path d="M40.1967317,57.6096094 L39.6014355,57.6096094 C38.9440418,57.6096094 38.4109599,58.1446875 38.4109599,58.8048047 C38.4109599,59.4649219 38.9440418,60 39.6014355,60 L40.1967317,60 C40.8541254,60 41.3872073,59.4649219 41.3872073,58.8048047 C41.3872073,58.1446875 40.8541254,57.6096094 40.1967317,57.6096094 Z" id="Shape"></path>
                    <path d="M47.707385,57.2574609 C47.4626132,56.6446875 46.7692683,56.3472656 46.1593815,56.5928906 C45.9903641,56.6608594 45.8174948,56.7266016 45.6459094,56.788125 C45.0265679,57.0098438 44.7037073,57.6936328 44.9245505,58.3153125 C45.0983537,58.8044531 45.5568484,59.1092578 46.0459251,59.1092578 C46.1787578,59.1092578 46.3138084,59.0867578 46.4460575,59.0395312 C46.6463571,58.9676953 46.8480575,58.8910547 47.045439,58.8116016 C47.6557927,58.5659766 47.9521568,57.8701172 47.707385,57.2574609 Z" id="Shape"></path>
                    <path d="M52.8073223,53.1837891 C52.3322526,52.7273437 51.5789111,52.74375 51.1239181,53.2205859 C50.9987892,53.3518359 50.8682909,53.4834375 50.7362753,53.6117578 C50.2638902,54.0708984 50.2515174,54.8275781 50.7087282,55.3018359 C50.9421777,55.5440625 51.2531324,55.6659375 51.5643206,55.6659375 C51.8624355,55.6659375 52.1610174,55.5541406 52.3920157,55.3296094 C52.5458589,55.1801953 52.6977178,55.0269141 52.8438571,54.87375 C53.2986167,54.3967969 53.2821585,53.6402344 52.8073223,53.1837891 Z" id="Shape"></path>
                    <path d="M55.7799512,47.3602734 C55.1600261,47.1418359 54.4802213,47.4698438 54.2627631,48.0928125 C54.2027666,48.2644922 54.138101,48.43875 54.0705174,48.6106641 C53.8292474,49.2246094 54.12923,49.9188281 54.7407509,50.1611719 C54.8843223,50.2180078 55.0320958,50.2449609 55.1775348,50.2449609 C55.6519042,50.2449609 56.1004774,49.9582031 56.2851359,49.4882813 C56.3639251,49.2876563 56.4395627,49.0842188 56.5095976,48.8834766 C56.7271725,48.260625 56.4004599,47.5787109 55.7799512,47.3602734 Z" id="Shape"></path>
                    <path d="M57.3738275,41.9094141 C57.3160488,41.2517578 56.7374443,40.7656641 56.0834355,40.8235547 C55.428493,40.8814453 54.9443188,41.4612891 55.0018641,42.1189453 C55.0178554,42.3012891 55.0305784,42.4863281 55.0393328,42.6687891 C55.0704983,43.3082812 55.5966934,43.8053906 56.2274739,43.8053906 C56.2470836,43.8053906 56.2669268,43.8049219 56.2868868,43.8039844 C56.9436969,43.7717578 57.4499321,43.2108984 57.4175993,42.5516016 C57.4070941,42.3383203 57.3923868,42.1223437 57.3738275,41.9094141 Z" id="Shape"></path>
                    <path d="M55.5983275,35.7638672 C55.5013293,35.5755469 55.3987282,35.3853516 55.2932091,35.1987891 C54.9689477,34.6245703 54.2423362,34.423125 53.670385,34.7486719 C53.0983171,35.0743359 52.8976672,35.8038281 53.2220453,36.3780469 C53.3121568,36.5378906 53.4000505,36.7005469 53.4829251,36.8615625 C53.694547,37.2726562 54.110554,37.5083203 54.5415017,37.5083203 C54.7255767,37.5083203 54.9123362,37.4653125 55.0873066,37.3746094 C55.6713972,37.0712109 55.900061,36.3501562 55.5983275,35.7638672 Z" id="Shape"></path>
                    <path d="M51.145162,30.3442969 C50.9790627,30.2123437 50.8071272,30.0812109 50.6339077,29.9542969 C50.1028101,29.5653516 49.3581063,29.6820703 48.9704634,30.2152734 C48.583054,30.7485937 48.6994286,31.4961328 49.2304094,31.8853125 C49.3786498,31.9939453 49.5256063,32.1060937 49.6674268,32.2188281 C49.886169,32.3925 50.1465819,32.476875 50.4054774,32.476875 C50.7568188,32.476875 51.1047753,32.3213672 51.3397422,32.023125 C51.7479286,31.5057422 51.6607352,30.7541016 51.145162,30.3442969 Z" id="Shape"></path>
                    <path d="M44.8573171,27.2505469 C44.6509477,27.1995703 44.440493,27.1517578 44.231439,27.1086328 C43.5877021,26.9759766 42.9580889,27.3924609 42.8258397,28.0391016 C42.6935906,28.6858594 43.108547,29.3176172 43.7526341,29.4502734 C43.9314564,29.4870703 44.111446,29.5279688 44.2875836,29.5714453 C44.3831812,29.5951172 44.4790122,29.6064844 44.5733258,29.6064844 C45.1085087,29.6064844 45.5946672,29.2417969 45.7284338,28.696875 C45.8857787,28.0559766 45.4955679,27.4083984 44.8573171,27.2505469 Z" id="Shape"></path>
                    <path d="M38.0618362,26.769375 L37.4665401,26.769375 C36.8091463,26.769375 36.2760645,27.3044531 36.2760645,27.9645703 C36.2760645,28.6246875 36.8091463,29.1597656 37.4665401,29.1597656 L38.0618362,29.1597656 C38.7193467,29.1597656 39.2523118,28.6246875 39.2523118,27.9645703 C39.2524286,27.3044531 38.7193467,26.769375 38.0618362,26.769375 Z" id="Shape"></path>
                    <path d="M31.5140453,26.769375 L30.9187491,26.769375 C30.2613554,26.769375 29.7282735,27.3044531 29.7282735,27.9645703 C29.7282735,28.6246875 30.2613554,29.1597656 30.9187491,29.1597656 L31.5140453,29.1597656 C32.1715557,29.1597656 32.7045209,28.6246875 32.7045209,27.9645703 C32.7045209,27.3044531 32.171439,26.769375 31.5140453,26.769375 Z" id="Shape"></path>
                    <path d="M24.9663711,26.769375 L24.3710749,26.769375 C23.7135645,26.769375 23.1805993,27.3044531 23.1805993,27.9645703 C23.1805993,28.6246875 23.7135645,29.1597656 24.3710749,29.1597656 L24.9663711,29.1597656 C25.6237648,29.1597656 26.1568467,28.6246875 26.1568467,27.9645703 C26.1568467,27.3044531 25.6238815,26.769375 24.9663711,26.769375 Z" id="Shape"></path>
                    <path d="M18.4186969,26.769375 L17.8234007,26.769375 C17.1658902,26.769375 16.6329251,27.3044531 16.6329251,27.9645703 C16.6329251,28.6246875 17.1658902,29.1597656 17.8234007,29.1597656 L18.4186969,29.1597656 C19.0760906,29.1597656 19.6091725,28.6246875 19.6091725,27.9645703 C19.6091725,27.3044531 19.0762073,26.769375 18.4186969,26.769375 Z" id="Shape"></path>
                </g>
            </g>
        </g>
    </g>
</svg>