<?xml version="1.0" encoding="UTF-8"?>
<svg width="109px" height="120px" viewBox="0 0 109 120" version="1.1" xmlns="http://www.w3.org/2000/svg" xmlns:xlink="http://www.w3.org/1999/xlink">
    <!-- Generator: Sketch 47.1 (45422) - http://www.bohemiancoding.com/sketch -->
    <title>skyline</title>
    <desc>Created with Sketch.</desc>
    <defs></defs>
    <g id="Page-1" stroke="none" stroke-width="1" fill="none" fill-rule="evenodd">
        <g id="china_consulting" transform="translate(-1065.000000, -2425.000000)" fill-rule="nonzero" fill="#217DD1">
            <g id="skyline" transform="translate(1065.000000, 2425.000000)">
                <path d="M106.979056,115.955156 L103.615026,115.955156 L103.615026,10.1123438 C103.615026,8.99507812 102.711215,8.08992187 101.596655,8.08992187 L63.9193777,8.08992187 C62.8045837,8.08992187 61.9010064,8.99507813 61.9010064,10.1123438 L61.9010064,18.8763281 L57.8642639,18.8763281 L57.8642639,10.1123438 C57.8642639,8.99507812 56.9604528,8.08992187 55.8458927,8.08992187 L47.0992275,8.08992187 L47.0992275,2.02242188 C47.0992275,0.90515625 46.1954163,0 45.0808562,0 C43.9662961,0 43.062485,0.90515625 43.062485,2.02242188 L43.062485,8.08992187 L34.3160536,8.08992187 C33.2012597,8.08992187 32.2976824,8.99507813 32.2976824,10.1123438 L32.2976824,18.8763281 L26.2423348,18.8763281 C25.1275408,18.8763281 24.2239635,19.7814844 24.2239635,20.89875 L24.2239635,37.7526563 L7.4038133,37.7526563 C6.28901931,37.7526563 5.38544206,38.6578125 5.38544206,39.7750781 L5.38544206,115.954922 L2.02094421,115.954922 C0.906150215,115.954922 0.00257296137,116.860078 0.00257296137,117.977344 C0.00257296137,119.094609 0.90638412,120 2.02094421,120 L106.979056,120 C108.09385,120 108.997427,119.094844 108.997427,117.977578 C108.997427,116.860312 108.093616,115.955156 106.979056,115.955156 Z M36.334191,12.1347656 L53.8270536,12.1347656 L53.8270536,18.8763281 L36.334191,18.8763281 L36.334191,12.1347656 Z M29.6061309,115.955156 L28.2604721,115.955156 L28.2604721,112.584375 C28.2604721,111.467109 27.3566609,110.561953 26.2421009,110.561953 C25.1275408,110.561953 24.2237296,111.467109 24.2237296,112.584375 L24.2237296,115.955156 L22.8780708,115.955156 L22.8780708,109.213594 L29.6061309,109.213594 L29.6061309,115.955156 Z M43.0622511,64.0448437 L43.0622511,67.5241406 L43.0622511,115.955156 L33.6428734,115.955156 L33.6428734,107.191172 C33.6428734,106.073906 32.7390622,105.16875 31.6245021,105.16875 L20.8596996,105.16875 C19.7449056,105.16875 18.8413283,106.073906 18.8413283,107.191172 L18.8413283,115.955156 L9.42195064,115.955156 L9.42195064,41.7977344 L43.0622511,41.7977344 L43.0622511,64.0448437 Z M45.0806223,37.7528906 L28.2604721,37.7528906 L28.2604721,22.9214063 L61.9007725,22.9214063 L61.9007725,62.0224219 L47.0992275,62.0224219 L47.0992275,55.2808594 L53.1545751,55.2808594 C54.2693691,55.2808594 55.1729464,54.3757031 55.1729464,53.2584375 C55.1729464,52.1411719 54.2691352,51.2360156 53.1545751,51.2360156 L47.0992275,51.2360156 L47.0992275,44.4944531 L53.1545751,44.4944531 C54.2693691,44.4944531 55.1729464,43.5892969 55.1729464,42.4720313 C55.1729464,41.3547656 54.2691352,40.4496094 53.1545751,40.4496094 L47.0992275,40.4496094 L47.0992275,39.7755469 C47.0992275,38.6580469 46.1954163,37.7528906 45.0806223,37.7528906 Z M80.7395279,115.955156 L47.0992275,115.955156 L47.0992275,67.5241406 L47.0992275,66.0675 L80.7395279,66.0675 L80.7395279,115.955156 Z M99.5780494,115.955156 L84.7762704,115.955156 L84.7762704,64.0448437 L84.7762704,61.348125 C84.7762704,60.2308594 83.8724592,59.3257031 82.7578991,59.3257031 C81.6433391,59.3257031 80.7395279,60.2308594 80.7395279,61.348125 L80.7395279,62.0221875 L76.7027854,62.0221875 L76.7027854,61.348125 C76.7027854,60.2308594 75.7989742,59.3257031 74.6844142,59.3257031 C73.5698541,59.3257031 72.6660429,60.2308594 72.6660429,61.348125 L72.6660429,62.0221875 L65.9379828,62.0221875 L65.9379828,20.8989844 L65.9379828,12.1347656 L99.5782833,12.1347656 L99.5782833,115.955156 L99.5780494,115.955156 Z" id="Shape"></path>
                <path d="M55.8456588,111.910547 C56.9604528,111.910547 57.86403,111.004922 57.86403,109.888125 L57.86403,72.1354688 C57.86403,71.0182031 56.9602189,70.1130469 55.8456588,70.1130469 C54.7310987,70.1130469 53.8272876,71.0182031 53.8272876,72.1354688 L53.8272876,109.888359 C53.8272876,111.005156 54.7308648,111.910547 55.8456588,111.910547 Z" id="Shape"></path>
                <path d="M63.9193777,111.910547 C65.0341717,111.910547 65.9377489,111.004922 65.9377489,109.888125 L65.9377489,72.1354688 C65.9377489,71.0182031 65.0339378,70.1130469 63.9193777,70.1130469 C62.8048176,70.1130469 61.9010064,71.0182031 61.9010064,72.1354688 L61.9010064,109.888359 C61.9007725,111.005156 62.8045837,111.910547 63.9193777,111.910547 Z" id="Shape"></path>
                <path d="M71.9928627,111.910547 C73.1076567,111.910547 74.0112339,111.004922 74.0112339,109.888125 L74.0112339,72.1354688 C74.0112339,71.0182031 73.1074227,70.1130469 71.9928627,70.1130469 C70.8783026,70.1130469 69.9744914,71.0182031 69.9744914,72.1354688 L69.9744914,109.888359 C69.9744914,111.005156 70.8783026,111.910547 71.9928627,111.910547 Z" id="Shape"></path>
                <path d="M74.6841803,25.6178906 C75.7989742,25.6178906 76.7025515,24.7127344 76.7025515,23.5954688 L76.7025515,20.8989844 C76.7025515,19.7817187 75.7987403,18.8765625 74.6841803,18.8765625 C73.5696202,18.8765625 72.665809,19.7817187 72.665809,20.8989844 L72.665809,23.5957031 C72.665809,24.7127344 73.5693863,25.6178906 74.6841803,25.6178906 Z" id="Shape"></path>
                <path d="M82.7578991,25.6178906 C83.8726931,25.6178906 84.7762704,24.7127344 84.7762704,23.5954688 L84.7762704,20.8989844 C84.7762704,19.7817187 83.8724592,18.8765625 82.7578991,18.8765625 C81.6433391,18.8765625 80.7395279,19.7817187 80.7395279,20.8989844 L80.7395279,23.5957031 C80.7395279,24.7127344 81.6431052,25.6178906 82.7578991,25.6178906 Z" id="Shape"></path>
                <path d="M90.831618,25.6178906 C91.946412,25.6178906 92.8499893,24.7127344 92.8499893,23.5954688 L92.8499893,20.8989844 C92.8499893,19.7817187 91.9461781,18.8765625 90.831618,18.8765625 C89.7170579,18.8765625 88.8132468,19.7817187 88.8132468,20.8989844 L88.8132468,23.5957031 C88.8132468,24.7127344 89.716824,25.6178906 90.831618,25.6178906 Z" id="Shape"></path>
                <path d="M74.6841803,39.1010156 C75.7989742,39.1010156 76.7025515,38.1958594 76.7025515,37.0785937 L76.7025515,34.381875 C76.7025515,33.2646094 75.7987403,32.3594531 74.6841803,32.3594531 C73.5696202,32.3594531 72.665809,33.2646094 72.665809,34.381875 L72.665809,37.0785937 C72.665809,38.1958594 73.5693863,39.1010156 74.6841803,39.1010156 Z" id="Shape"></path>
                <path d="M82.7578991,39.1010156 C83.8726931,39.1010156 84.7762704,38.1958594 84.7762704,37.0785937 L84.7762704,34.381875 C84.7762704,33.2646094 83.8724592,32.3594531 82.7578991,32.3594531 C81.6433391,32.3594531 80.7395279,33.2646094 80.7395279,34.381875 L80.7395279,37.0785937 C80.7395279,38.1958594 81.6431052,39.1010156 82.7578991,39.1010156 Z" id="Shape"></path>
                <path d="M90.831618,39.1010156 C91.946412,39.1010156 92.8499893,38.1958594 92.8499893,37.0785937 L92.8499893,34.381875 C92.8499893,33.2646094 91.9461781,32.3594531 90.831618,32.3594531 C89.7170579,32.3594531 88.8132468,33.2646094 88.8132468,34.381875 L88.8132468,37.0785937 C88.8132468,38.1958594 89.716824,39.1010156 90.831618,39.1010156 Z" id="Shape"></path>
                <path d="M74.6841803,52.584375 C75.7989742,52.584375 76.7025515,51.6792187 76.7025515,50.5619531 L76.7025515,47.8652344 C76.7025515,46.7479687 75.7987403,45.8428125 74.6841803,45.8428125 C73.5696202,45.8428125 72.665809,46.7479687 72.665809,47.8652344 L72.665809,50.5619531 C72.665809,51.6789844 73.5693863,52.584375 74.6841803,52.584375 Z" id="Shape"></path>
                <path d="M82.7578991,52.584375 C83.8726931,52.584375 84.7762704,51.6792187 84.7762704,50.5619531 L84.7762704,47.8652344 C84.7762704,46.7479687 83.8724592,45.8428125 82.7578991,45.8428125 C81.6433391,45.8428125 80.7395279,46.7479687 80.7395279,47.8652344 L80.7395279,50.5619531 C80.7395279,51.6789844 81.6431052,52.584375 82.7578991,52.584375 Z" id="Shape"></path>
                <path d="M90.831618,52.584375 C91.946412,52.584375 92.8499893,51.6792187 92.8499893,50.5619531 L92.8499893,47.8652344 C92.8499893,46.7479687 91.9461781,45.8428125 90.831618,45.8428125 C89.7170579,45.8428125 88.8132468,46.7479687 88.8132468,47.8652344 L88.8132468,50.5619531 C88.8132468,51.6789844 89.716824,52.584375 90.831618,52.584375 Z" id="Shape"></path>
                <path d="M18.168382,57.9775781 C19.283176,57.9775781 20.1867532,57.0724219 20.1867532,55.9551563 L20.1867532,53.2584375 C20.1867532,52.1411719 19.2829421,51.2360156 18.168382,51.2360156 C17.0538219,51.2360156 16.1500107,52.1411719 16.1500107,53.2584375 L16.1500107,55.9551563 C16.1500107,57.0721875 17.0538219,57.9775781 18.168382,57.9775781 Z" id="Shape"></path>
                <path d="M26.2421009,57.9775781 C27.3568948,57.9775781 28.2604721,57.0724219 28.2604721,55.9551563 L28.2604721,53.2584375 C28.2604721,52.1411719 27.3566609,51.2360156 26.2421009,51.2360156 C25.1275408,51.2360156 24.2237296,52.1411719 24.2237296,53.2584375 L24.2237296,55.9551563 C24.2237296,57.0721875 25.1273069,57.9775781 26.2421009,57.9775781 Z" id="Shape"></path>
                <path d="M34.3158197,57.9775781 C35.4306137,57.9775781 36.334191,57.0724219 36.334191,55.9551563 L36.334191,53.2584375 C36.334191,52.1411719 35.4303798,51.2360156 34.3158197,51.2360156 C33.2012597,51.2360156 32.2974485,52.1411719 32.2974485,53.2584375 L32.2974485,55.9551563 C32.2974485,57.0721875 33.2010258,57.9775781 34.3158197,57.9775781 Z" id="Shape"></path>
                <path d="M18.168382,71.4607031 C19.283176,71.4607031 20.1867532,70.5555469 20.1867532,69.4382812 L20.1867532,66.7415625 C20.1867532,65.6242969 19.2829421,64.7191406 18.168382,64.7191406 C17.0538219,64.7191406 16.1500107,65.6242969 16.1500107,66.7415625 L16.1500107,69.4382812 C16.1500107,70.5553125 17.0538219,71.4607031 18.168382,71.4607031 Z" id="Shape"></path>
                <path d="M26.2421009,71.4607031 C27.3568948,71.4607031 28.2604721,70.5555469 28.2604721,69.4382812 L28.2604721,66.7415625 C28.2604721,65.6242969 27.3566609,64.7191406 26.2421009,64.7191406 C25.1275408,64.7191406 24.2237296,65.6242969 24.2237296,66.7415625 L24.2237296,69.4382812 C24.2237296,70.5553125 25.1273069,71.4607031 26.2421009,71.4607031 Z" id="Shape"></path>
                <path d="M34.3158197,71.4607031 C35.4306137,71.4607031 36.334191,70.5555469 36.334191,69.4382812 L36.334191,66.7415625 C36.334191,65.6242969 35.4303798,64.7191406 34.3158197,64.7191406 C33.2012597,64.7191406 32.2974485,65.6242969 32.2974485,66.7415625 L32.2974485,69.4382812 C32.2974485,70.5553125 33.2010258,71.4607031 34.3158197,71.4607031 Z" id="Shape"></path>
                <path d="M18.168382,84.9438281 C19.283176,84.9438281 20.1867532,84.0386719 20.1867532,82.9214063 L20.1867532,80.2246875 C20.1867532,79.1074219 19.2829421,78.2022656 18.168382,78.2022656 C17.0538219,78.2022656 16.1500107,79.1074219 16.1500107,80.2246875 L16.1500107,82.9214063 C16.1500107,84.0386719 17.0538219,84.9438281 18.168382,84.9438281 Z" id="Shape"></path>
                <path d="M26.2421009,84.9438281 C27.3568948,84.9438281 28.2604721,84.0386719 28.2604721,82.9214063 L28.2604721,80.2246875 C28.2604721,79.1074219 27.3566609,78.2022656 26.2421009,78.2022656 C25.1275408,78.2022656 24.2237296,79.1074219 24.2237296,80.2246875 L24.2237296,82.9214063 C24.2237296,84.0386719 25.1273069,84.9438281 26.2421009,84.9438281 Z" id="Shape"></path>
                <path d="M34.3158197,84.9438281 C35.4306137,84.9438281 36.334191,84.0386719 36.334191,82.9214063 L36.334191,80.2246875 C36.334191,79.1074219 35.4303798,78.2022656 34.3158197,78.2022656 C33.2012597,78.2022656 32.2974485,79.1074219 32.2974485,80.2246875 L32.2974485,82.9214063 C32.2974485,84.0386719 33.2010258,84.9438281 34.3158197,84.9438281 Z" id="Shape"></path>
                <path d="M18.168382,98.4269531 C19.283176,98.4269531 20.1867532,97.5217969 20.1867532,96.4045312 L20.1867532,93.7078125 C20.1867532,92.5905469 19.2829421,91.6853906 18.168382,91.6853906 C17.0538219,91.6853906 16.1500107,92.5905469 16.1500107,93.7078125 L16.1500107,96.4045313 C16.1500107,97.5217969 17.0538219,98.4269531 18.168382,98.4269531 Z" id="Shape"></path>
                <path d="M26.2421009,98.4269531 C27.3568948,98.4269531 28.2604721,97.5217969 28.2604721,96.4045312 L28.2604721,93.7078125 C28.2604721,92.5905469 27.3566609,91.6853906 26.2421009,91.6853906 C25.1275408,91.6853906 24.2237296,92.5905469 24.2237296,93.7078125 L24.2237296,96.4045313 C24.2237296,97.5217969 25.1273069,98.4269531 26.2421009,98.4269531 Z" id="Shape"></path>
                <path d="M34.3158197,98.4269531 C35.4306137,98.4269531 36.334191,97.5217969 36.334191,96.4045312 L36.334191,93.7078125 C36.334191,92.5905469 35.4303798,91.6853906 34.3158197,91.6853906 C33.2012597,91.6853906 32.2974485,92.5905469 32.2974485,93.7078125 L32.2974485,96.4045313 C32.2974485,97.5217969 33.2010258,98.4269531 34.3158197,98.4269531 Z" id="Shape"></path>
                <path d="M90.831618,66.0675 C91.946412,66.0675 92.8499893,65.1623437 92.8499893,64.0450781 L92.8499893,61.3483594 C92.8499893,60.2310937 91.9461781,59.3259375 90.831618,59.3259375 C89.7170579,59.3259375 88.8132468,60.2310937 88.8132468,61.3483594 L88.8132468,64.0450781 C88.8132468,65.1621094 89.716824,66.0675 90.831618,66.0675 Z" id="Shape"></path>
                <path d="M90.831618,79.550625 C91.946412,79.550625 92.8499893,78.6454687 92.8499893,77.5282031 L92.8499893,74.8314844 C92.8499893,73.7142187 91.9461781,72.8090625 90.831618,72.8090625 C89.7170579,72.8090625 88.8132468,73.7142187 88.8132468,74.8314844 L88.8132468,77.5282031 C88.8132468,78.6452344 89.716824,79.550625 90.831618,79.550625 Z" id="Shape"></path>
                <path d="M90.831618,93.03375 C91.946412,93.03375 92.8499893,92.1285937 92.8499893,91.0113281 L92.8499893,88.3146094 C92.8499893,87.1973437 91.9461781,86.2921875 90.831618,86.2921875 C89.7170579,86.2921875 88.8132468,87.1973437 88.8132468,88.3146094 L88.8132468,91.0113281 C88.8132468,92.1283594 89.716824,93.03375 90.831618,93.03375 Z" id="Shape"></path>
                <path d="M90.831618,106.516875 C91.946412,106.516875 92.8499893,105.611719 92.8499893,104.494453 L92.8499893,101.797734 C92.8499893,100.680469 91.9461781,99.7753125 90.831618,99.7753125 C89.7170579,99.7753125 88.8132468,100.680469 88.8132468,101.797734 L88.8132468,104.494453 C88.8132468,105.611484 89.716824,106.516875 90.831618,106.516875 Z" id="Shape"></path>
                <path d="M55.1727124,31.6853906 C55.1727124,30.568125 54.2689013,29.6629688 53.1543412,29.6629688 L37.0069034,29.6629688 C35.8921094,29.6629688 34.9885322,30.568125 34.9885322,31.6853906 C34.9885322,32.8026562 35.8923433,33.7078125 37.0069034,33.7078125 L53.1543412,33.7078125 C54.2691352,33.7078125 55.1727124,32.8026562 55.1727124,31.6853906 Z" id="Shape"></path>
            </g>
        </g>
    </g>
</svg>