<?xml version="1.0" encoding="UTF-8"?>
<svg width="120px" height="120px" viewBox="0 0 120 120" version="1.1" xmlns="http://www.w3.org/2000/svg" xmlns:xlink="http://www.w3.org/1999/xlink">
    <!-- Generator: Sketch 47.1 (45422) - http://www.bohemiancoding.com/sketch -->
    <title>support</title>
    <desc>Created with Sketch.</desc>
    <defs></defs>
    <g id="Page-1" stroke="none" stroke-width="1" fill="none" fill-rule="evenodd">
        <g id="china_consulting" transform="translate(-265.000000, -3139.000000)" fill-rule="nonzero" fill="#217DD1">
            <g id="Group-14" transform="translate(265.000000, 3139.000000)">
                <g id="support">
                    <path d="M52,38 C48.692,38 46,40.692 46,44 L50,44 C50,42.898 50.896,42 52,42 C53.104,42 54,42.898 54,44 L58,44 C58,40.692 55.308,38 52,38 Z" id="Shape"></path>
                    <path d="M68,38 C64.692,38 62,40.692 62,44 L66,44 C66,42.898 66.896,42 68,42 C69.104,42 70,42.898 70,44 L74,44 C74,40.692 71.308,38 68,38 Z" id="Shape"></path>
                    <path d="M60,92 C55.588,92 52,95.588 52,100 C52,104.412 55.588,108 60,108 C64.412,108 68,104.412 68,100 C68,95.588 64.412,92 60,92 Z M60,104 C57.794,104 56,102.206 56,100 C56,97.794 57.794,96 60,96 C62.206,96 64,97.794 64,100 C64,102.206 62.206,104 60,104 Z" id="Shape"></path>
                    <path d="M108,116 L108,90 C108,73.458 94.542,60 78,60 L75.822,60 C76.534,59.374 77.204,58.706 77.838,58 L80,58 C85.514,58 90,53.514 90,48 L90,44.476 C92.41,42.86 94,40.112 94,37 C94,33.876 92.398,31.124 89.976,29.51 C89.71,13.196 76.378,0 60,0 C43.622,0 30.29,13.196 30.024,29.51 C27.602,31.124 26,33.876 26,37 C26,41.962 30.038,46 35,46 L36.362,46 C37.298,51.542 40.13,56.436 44.18,60 L42,60 C25.458,60 12,73.458 12,90 L12,116 L0,116 L0,120 L14,120 L24,120 L96,120 L106,120 L120,120 L120,116 L108,116 Z M86,48 C86,51.034 83.728,53.522 80.802,53.918 C82.188,51.508 83.16,48.838 83.638,46 L85,46 C85.342,46 85.668,45.936 86,45.898 L86,48 Z M90,37 C90,39.756 87.758,42 85,42 L84,42 L84,32 L85,32 C87.758,32 90,34.244 90,37 Z M36,42 L35,42 C32.242,42 30,39.756 30,37 C30,34.244 32.242,32 35,32 L36,32 L36,42 Z M35,28 C34.69,28 34.398,28.06 34.096,28.092 C35.08,14.646 46.308,4 60,4 C73.692,4 84.92,14.646 85.904,28.092 C85.602,28.06 85.31,28 85,28 L83.638,28 C81.726,16.668 71.868,8 60,8 C48.132,8 38.274,16.668 36.362,28 L35,28 Z M79.998,31.95 C65.564,31.442 56,25.54 56,20 C56,18.896 55.106,18 54,18 C52.894,18 52,18.896 52,20 C52,24.998 46.832,29.14 40.116,29.874 C41.182,19.842 49.692,12 60,12 C71.01,12 79.97,20.946 79.998,31.95 Z M40,42 L40,33.888 C46.246,33.346 51.546,30.334 54.192,26.116 C58.376,31.66 68.154,35.562 80,35.96 L80,42 C80,46.506 78.484,50.652 75.962,54 L60,54 L60,58 L71.948,58 C70.8,58.86 69.562,59.6 68.242,60.2 C62.994,62.584 57.004,62.584 51.754,60.2 C44.834,57.052 40,50.088 40,42 Z M53.818,65.164 C55.794,65.692 57.86,66 60,66 C62.14,66 64.206,65.692 66.182,65.164 L60,77.528 L53.818,65.164 Z M56.764,80 L53.236,80 L45.236,64 L48.764,64 L56.764,80 Z M71.236,64 L74.764,64 L66.764,80 L63.236,80 L71.236,64 Z M22,90 L22,116 L16,116 L16,90 C16,76.07 27.02,64.698 40.794,64.062 L48.764,80 L32,80 C26.486,80 22,84.486 22,90 Z M94,116 L26,116 L26,90 C26,86.692 28.692,84 32,84 L52,84 L60,84 L68,84 L88,84 C91.308,84 94,86.692 94,90 L94,116 Z M104,116 L98,116 L98,90 C98,84.486 93.514,80 88,80 L71.236,80 L79.206,64.062 C92.98,64.698 104,76.07 104,90 L104,116 Z" id="Shape"></path>
                    <rect id="Rectangle-path" x="86" y="98" width="4" height="14"></rect>
                    <rect id="Rectangle-path" x="86" y="90" width="4" height="4"></rect>
                    <rect id="Rectangle-path" x="104" y="18" width="4" height="4"></rect>
                    <rect id="Rectangle-path" x="104" y="26" width="4" height="4"></rect>
                    <rect id="Rectangle-path" x="104" y="34" width="4" height="4"></rect>
                    <rect id="Rectangle-path" x="12" y="42" width="4" height="4"></rect>
                    <rect id="Rectangle-path" x="12" y="50" width="4" height="4"></rect>
                    <rect id="Rectangle-path" x="12" y="58" width="4" height="4"></rect>
                </g>
            </g>
        </g>
    </g>
</svg>