<?xml version="1.0" encoding="UTF-8"?>
<svg width="60px" height="60px" viewBox="0 0 60 60" version="1.1" xmlns="http://www.w3.org/2000/svg" xmlns:xlink="http://www.w3.org/1999/xlink">
    <!-- Generator: Sketch 47.1 (45422) - http://www.bohemiancoding.com/sketch -->
    <title>target</title>
    <desc>Created with Sketch.</desc>
    <defs></defs>
    <g id="Page-1" stroke="none" stroke-width="1" fill="none" fill-rule="evenodd">
        <g id="china_consulting" transform="translate(-795.000000, -1490.000000)" fill-rule="nonzero" fill="#217DD1">
            <g id="Group-4-Copy" transform="translate(757.000000, 1465.000000)">
                <g id="target" transform="translate(38.000000, 25.000000)">
                    <path d="M52.6870312,14.2708594 C52.7286328,14.2755469 52.7701172,14.2777734 52.8114844,14.2777734 C53.1078516,14.2777734 53.3944922,14.1603516 53.6066016,13.9483594 L59.6705859,7.88449219 C59.9790234,7.5759375 60.0813281,7.11679688 59.9327344,6.70640625 C59.7841406,6.29601563 59.4116016,6.00867188 58.9770703,5.96917969 L54.4429687,5.55703125 L54.0305859,1.02292969 C53.9912109,0.588398438 53.70375,0.215859375 53.2934766,0.0673828125 C52.8830859,-0.0812109375 52.4239453,0.0209765625 52.1152734,0.32953125 L46.0512891,6.39351563 C45.8097656,6.63503906 45.6909375,6.97347656 45.7287891,7.31308594 L46.2655078,12.1439063 L45.1299609,13.2794531 C40.9360547,9.44308594 35.4352734,7.01414063 29.3820703,6.74507813 L29.3820703,4.60957031 C29.3820703,3.98847656 28.8785156,3.48492188 28.2574219,3.48492188 C27.6363281,3.48492188 27.1327734,3.98847656 27.1327734,4.60957031 L27.1327734,6.74472656 C14.2275,7.31847656 3.83367187,17.7123047 3.25980469,30.6176953 L1.12464844,30.6176953 C0.503554687,30.6176953 0,31.12125 0,31.7423437 C0,32.3634375 0.503554687,32.8669922 1.12464844,32.8669922 L3.25980469,32.8669922 C3.83367187,45.7723828 14.2275,56.1660938 27.1327734,56.7399609 L27.1327734,58.8751172 C27.1327734,59.4962109 27.6363281,59.9997656 28.2574219,59.9997656 C28.8785156,59.9997656 29.3820703,59.4962109 29.3820703,58.8751172 L29.3820703,56.7399609 C42.2873437,56.1662109 52.6811719,45.7723828 53.2550391,32.8669922 L55.3901953,32.8669922 C56.0112891,32.8669922 56.5148437,32.3634375 56.5148437,31.7423437 C56.5148437,31.12125 56.0112891,30.6176953 55.3901953,30.6176953 L53.2550391,30.6176953 C52.9859766,24.5644922 50.5570312,19.0637109 46.7207812,14.8695703 L47.8563281,13.7340234 L52.6870312,14.2708594 Z M52.0080469,3.61792969 L52.2877734,6.69410156 C52.3369922,7.23480469 52.7651953,7.663125 53.3058984,7.71234375 L56.3820703,7.99195313 L52.3981641,11.9757422 L48.4616016,11.5383984 L48.0242578,7.60183594 L52.0080469,3.61792969 Z M51.0042187,30.6176953 L49.4197266,30.6176953 C48.7986328,30.6176953 48.2950781,31.12125 48.2950781,31.7423437 C48.2950781,32.3634375 48.7986328,32.8669922 49.4197266,32.8669922 L51.0042187,32.8669922 C50.4341016,44.5320703 41.0471484,53.9190234 29.3821875,54.4890234 L29.3821875,52.9046484 C29.3821875,52.2835547 28.8786328,51.78 28.2575391,51.78 C27.6364453,51.78 27.1328906,52.2835547 27.1328906,52.9046484 L27.1328906,54.4890234 C15.4678125,53.9191406 6.08085938,44.5319531 5.51074219,32.8671094 L7.09523438,32.8671094 C7.71632813,32.8671094 8.21988281,32.3635547 8.21988281,31.7424609 C8.21988281,31.1213672 7.71632813,30.6178125 7.09523438,30.6178125 L5.51074219,30.6178125 C6.08085938,18.9529688 15.4678125,9.56578125 27.1327734,8.99578125 L27.1327734,10.5801563 C27.1327734,11.20125 27.6363281,11.7048047 28.2574219,11.7048047 C28.8785156,11.7048047 29.3820703,11.20125 29.3820703,10.5801563 L29.3820703,8.99578125 C34.8155859,9.26132813 39.7546875,11.4397266 43.5389063,14.8703906 L40.1547656,18.2545313 C36.9809766,15.4515234 32.8147266,13.7476172 28.2573047,13.7476172 C18.3349219,13.7476172 10.2624609,21.8199609 10.2624609,31.7424609 C10.2624609,41.6649609 18.3349219,49.7373047 28.2573047,49.7373047 C38.1796875,49.7373047 46.2521484,41.6649609 46.2521484,31.7424609 C46.2521484,27.1851562 44.5482422,23.0189063 41.7454688,19.8448828 L45.1296094,16.4607422 C48.5603906,20.2450781 50.7386719,25.1842969 51.0042187,30.6176953 Z M27.4621875,32.5376953 C27.6819141,32.7573047 27.9696094,32.8671094 28.2574219,32.8671094 C28.5452344,32.8671094 28.8331641,32.7573047 29.0526562,32.5376953 L35.1604687,26.4298828 C36.2957812,27.9017578 36.9735937,29.7440625 36.9735937,31.7424609 C36.9735937,36.5486719 33.0635156,40.45875 28.2573047,40.45875 C23.4510937,40.45875 19.5410156,36.5486719 19.5410156,31.7424609 C19.5410156,26.93625 23.4510937,23.0261719 28.2573047,23.0261719 C30.2557031,23.0261719 32.0978906,23.7039844 33.5698828,24.8392969 L27.4620703,30.9471094 C27.0230859,31.3864453 27.0230859,32.0984766 27.4621875,32.5376953 Z M28.2575391,20.7769922 C22.2110156,20.7769922 17.2919531,25.6961719 17.2919531,31.7425781 C17.2919531,37.7889844 22.2110156,42.7081641 28.2575391,42.7081641 C34.3040625,42.7081641 39.223125,37.7889844 39.223125,31.7425781 C39.223125,29.1236719 38.2991016,26.7171094 36.7614844,24.8292187 L40.153125,21.4375781 C42.5504297,24.2012109 44.0030859,27.8053125 44.0030859,31.7424609 C44.0030859,40.4245313 36.9397266,47.4878906 28.2576562,47.4878906 C19.5755859,47.4878906 12.5122266,40.4245313 12.5122266,31.7424609 C12.5122266,23.0603906 19.5755859,15.9969141 28.2576562,15.9969141 C32.1946875,15.9969141 35.7990234,17.4495703 38.5626562,19.846875 L35.1710156,23.2386328 C33.2830078,21.7010156 30.8765625,20.7769922 28.2575391,20.7769922 Z" id="Shape"></path>
                </g>
            </g>
        </g>
    </g>
</svg>