<?xml version="1.0" encoding="UTF-8"?>
<svg width="60px" height="60px" viewBox="0 0 60 60" version="1.1" xmlns="http://www.w3.org/2000/svg" xmlns:xlink="http://www.w3.org/1999/xlink">
    <!-- Generator: Sketch 47.1 (45422) - http://www.bohemiancoding.com/sketch -->
    <title>translator</title>
    <desc>Created with Sketch.</desc>
    <defs></defs>
    <g id="Page-1" stroke="none" stroke-width="1" fill="none" fill-rule="evenodd">
        <g id="china_consulting" transform="translate(-983.000000, -1095.000000)" fill-rule="nonzero" fill="#217DD1">
            <g id="Group-4" transform="translate(945.000000, 1070.000000)">
                <g id="translator" transform="translate(38.000000, 25.000000)">
                    <path d="M55.955625,14.7105469 L53.9513672,7.6959375 C53.8362891,7.29269531 53.4676172,7.01460938 53.0480859,7.01460938 L52.0460156,7.01460938 C51.6264844,7.01460938 51.2579297,7.29269531 51.1427344,7.6959375 L49.1385937,14.7105469 C48.9960937,15.2094141 49.2848437,15.729375 49.7838281,15.8719922 C50.2828125,16.014375 50.8026562,15.7258594 50.9452734,15.2267578 L51.3232031,13.9039453 L53.7711328,13.9039453 L54.1490625,15.226875 C54.2669531,15.6394922 54.643125,15.9084375 55.0519922,15.9084375 C55.1374219,15.9084375 55.224375,15.8966016 55.3105078,15.8719922 C55.8091406,15.729375 56.098125,15.2094141 55.955625,14.7105469 Z M51.8598047,12.0250781 L52.5469922,9.62003906 L53.2341797,12.0250781 L51.8598047,12.0250781 Z" id="Shape"></path>
                    <path d="M56.0542969,2.00414063 L50.6165625,2.00414063 C50.6317969,1.57535156 50.5033594,1.15253906 50.2405078,0.793828125 C49.8707812,0.289335938 49.2999609,0 48.6744141,0 L37.0146094,0 C34.8389063,0 33.0689062,1.77011719 33.0689062,3.94570313 L33.0689062,14.9687109 C33.0689062,16.8208594 34.3515234,18.3789844 36.0751172,18.8014453 L36.0751172,22.9853906 C36.0751172,23.3653125 36.3039844,23.7079688 36.6550781,23.8532813 C36.7713281,23.9013281 36.8933203,23.9247656 37.0144922,23.9247656 C37.2589453,23.9247656 37.4992969,23.8292578 37.6789453,23.6496094 L42.4140234,18.9144141 L43.4542969,18.9144141 C43.4390625,19.3432031 43.5675,19.7660156 43.8303516,20.1247266 C44.2000781,20.6292188 44.7708984,20.9186719 45.3963281,20.9186719 L56.0541797,20.9186719 C58.2298828,20.9186719 59.9998828,19.1485547 59.9998828,16.9729688 L59.9998828,5.94984375 C60,3.77425781 58.2298828,2.00414063 56.0542969,2.00414063 Z M43.9736719,17.0355469 L42.0250781,17.0355469 C41.7759375,17.0355469 41.5369922,17.1344531 41.3608594,17.3107031 L37.9541016,20.7174609 L37.9541016,17.9750391 C37.9541016,17.45625 37.5335156,17.0355469 37.0146094,17.0355469 C35.8749609,17.0355469 34.9477734,16.1083594 34.9477734,14.9687109 L34.9477734,3.94570312 C34.9477734,2.80605469 35.8749609,1.87886719 37.0146094,1.87886719 L48.6744141,1.87886719 C48.6847266,1.87886719 48.7060547,1.87886719 48.7249219,1.90441406 C48.7436719,1.93007812 48.7373437,1.95046875 48.7341797,1.9603125 L45.5135156,12.1592578 C45.4713281,12.1340625 45.4273828,12.1108594 45.3803906,12.0921094 C44.58375,11.7735937 43.8883594,11.3535937 43.2953906,10.8377344 C44.3500781,9.37570313 44.7404297,7.84195313 44.8844531,6.88921875 L46.0334766,6.88921875 C46.5522656,6.88921875 46.9729687,6.46863281 46.9729687,5.94972656 C46.9729687,5.4309375 46.5523828,5.01023438 46.0334766,5.01023438 L42.9644531,5.01023438 L42.9644531,4.94765625 C42.9644531,4.42886719 42.5438672,4.00816406 42.0249609,4.00816406 C41.5060547,4.00816406 41.0854687,4.42875 41.0854687,4.94765625 L41.0854687,5.01023438 L38.0165625,5.01023438 C37.4977734,5.01023438 37.0770703,5.43082031 37.0770703,5.94972656 C37.0770703,6.46863281 37.4976562,6.88921875 38.0165625,6.88921875 L42.9757031,6.88921875 C42.8497266,7.53386719 42.583125,8.431875 42.0227344,9.33515625 C41.8723828,9.09128906 41.7344531,8.83652344 41.6119922,8.56828125 C41.3964844,8.09613281 40.8389063,7.88859375 40.3671094,8.10410156 C39.8950781,8.31972656 39.6873047,8.87707031 39.9029297,9.34898438 C40.1432812,9.87539063 40.4307422,10.3679297 40.7608594,10.8250781 C40.2059766,11.3119922 39.5206641,11.7516797 38.6696484,12.0921094 C38.1878906,12.2848828 37.9536328,12.8315625 38.1462891,13.3133203 C38.2932422,13.6807031 38.6459766,13.9041797 39.0188672,13.9041797 C39.135,13.9041797 39.253125,13.8825 39.3675,13.8367969 C40.4535938,13.4022656 41.3285156,12.8433984 42.0343359,12.2241797 C42.7944141,12.8926172 43.6817578,13.4364844 44.6821875,13.8367969 C44.7745312,13.8735937 44.8691016,13.8942188 44.9633203,13.9010156 L43.9736719,17.0355469 Z M58.1211328,16.9728516 C58.1211328,18.1125 57.1939453,19.0396875 56.0542969,19.0396875 L45.3965625,19.0396875 C45.38625,19.0396875 45.3649219,19.0396875 45.3460547,19.0140234 C45.3274219,18.9883594 45.33375,18.9680859 45.3369141,18.958125 L50.0973047,3.883125 L56.0541797,3.883125 C57.1938281,3.883125 58.1210156,4.8103125 58.1210156,5.94996094 L58.1210156,16.9728516 L58.1211328,16.9728516 Z" id="Shape"></path>
                    <path d="M38.4696094,48.2731641 L29.6867578,45.5708203 C29.2372266,45.4325391 28.9352344,45.0235547 28.9352344,44.5531641 L28.9352344,41.1289453 L29.4467578,40.7027344 C30.3657422,39.9369141 30.9759375,38.8645313 31.1649609,37.6833984 L31.2819141,36.9521484 L32.0040234,36.9521484 C33.6271875,36.9521484 34.9476562,35.6316797 34.9476562,34.0085156 L34.9476562,32.004375 C34.9476562,30.5632031 33.9063281,29.3613281 32.5366406,29.1099609 L33.4504687,23.3984766 C33.8654297,20.8047656 33.1260938,18.1710938 31.4217187,16.1724609 C29.7174609,14.1738281 27.2335547,13.0272656 24.6069141,13.0272656 L17.3553516,13.0272656 C14.7285937,13.0272656 12.2446875,14.1734766 10.5404297,16.1722266 C8.83617187,18.1708594 8.09671875,20.8047656 8.51167969,23.3982422 L9.42550781,29.1097266 C8.0559375,29.3612109 7.01460937,30.5630859 7.01460937,32.0042578 L7.01460937,34.0083984 C7.01460937,35.6315625 8.33507812,36.9520312 9.95824219,36.9520312 L10.6803516,36.9520312 L10.7973047,37.6832812 C10.9863281,38.8645312 11.5965234,39.9366797 12.5155078,40.7026172 L13.0270312,41.1289453 L13.0270312,44.5530469 C13.0270312,45.0234375 12.7250391,45.4325391 12.2755078,45.5707031 L3.49265625,48.2730469 C1.40367188,48.9160547 0,50.8164844 0,53.0021484 L0,57.0563672 C0,58.6795313 1.32046875,60 2.94363281,60 L39.01875,60 C40.6419141,60 41.9623828,58.6795312 41.9623828,57.0563672 L41.9623828,53.0021484 C41.9623828,50.8164844 40.5587109,48.9160547 38.4696094,48.2731641 Z M33.0689062,32.0041406 L33.0689062,34.0082812 C33.0689062,34.5953906 32.59125,35.0730469 32.0041406,35.0730469 L31.5826172,35.0730469 L32.2395703,30.9665625 C32.7138281,31.0742578 33.0689062,31.498125 33.0689062,32.0041406 Z M9.95824219,35.0730469 C9.37113281,35.0730469 8.89347656,34.5953906 8.89347656,34.0082813 L8.89347656,32.0041406 C8.89347656,31.498125 9.24855469,31.0742578 9.72257813,30.9665625 L10.3796484,35.0730469 L9.95824219,35.0730469 L9.95824219,35.0730469 Z M10.3672266,23.1015234 C10.0392188,21.0519141 10.6235156,18.9706641 11.9702344,17.3912109 C13.3170703,15.811875 15.2798438,14.9060156 17.3554688,14.9060156 L24.6070313,14.9060156 C26.6826563,14.9060156 28.6454297,15.8117578 29.9922656,17.3912109 C31.3389844,18.9705469 31.9233984,21.0519141 31.5953906,23.1015234 L30.6420703,29.0605078 L29.8469531,29.0605078 C29.8161328,29.0605078 29.7902344,29.0384766 29.7851953,29.008125 L29.0622656,24.6701953 C28.9055859,23.7302344 28.1001562,23.0479688 27.1471875,23.0479688 L14.8156641,23.0479688 C13.8626953,23.0479688 13.0572656,23.7302344 12.9005859,24.6703125 L12.1776563,29.008125 C12.1725,29.0384766 12.1466016,29.0605078 12.1158984,29.0605078 L11.3207813,29.0605078 L10.3672266,23.1015234 Z M12.6526172,37.3864453 L11.6211328,30.9394922 L12.1156641,30.9394922 C13.0686328,30.9394922 13.8740625,30.2572266 14.0307422,29.3171484 L14.7536719,24.9793359 C14.7588281,24.9489844 14.7847266,24.9269531 14.8154297,24.9269531 L27.1468359,24.9269531 C27.1776562,24.9269531 27.2035547,24.9489844 27.2085937,24.9793359 L27.9315234,29.3172656 C28.0882031,30.2572266 28.8936328,30.9394922 29.8466016,30.9394922 L30.3411328,30.9394922 L29.6191406,35.4523828 C29.4,35.6989453 27.1180078,38.079375 20.98125,38.079375 C20.4624609,38.079375 20.0417578,38.4999609 20.0417578,39.0188672 C20.0417578,39.5377734 20.4623438,39.9583594 20.98125,39.9583594 C24.9198047,39.9583594 27.4969922,39.0551953 29.0675391,38.1832031 C28.8780469,38.5955859 28.5980859,38.9642578 28.2440625,39.2593359 L24.2221875,42.6108984 C23.8515234,42.9198047 23.3816016,43.0898438 22.8990234,43.0898438 L19.0632422,43.0898438 C18.5807813,43.0898438 18.1107422,42.9196875 17.7400781,42.6108984 L13.7182031,39.2593359 C13.1484375,38.7841406 12.7698047,38.1189844 12.6526172,37.3864453 Z M12.8280469,47.3667187 C14.0709375,46.9843359 14.9060156,45.8537109 14.9060156,44.5532813 L14.9060156,42.6949219 L16.5372656,44.0544141 C17.2449609,44.6441016 18.1421484,44.9689453 19.0632422,44.9689453 L22.8990234,44.9689453 C23.8202344,44.9689453 24.7173047,44.6441016 25.425,44.0544141 L27.05625,42.6948047 L27.05625,44.5531641 C27.05625,45.8535938 27.8913281,46.9842188 29.1342188,47.3666016 L29.6084766,47.5125 C26.2777734,52.6225781 21.8506641,53.8877344 20.9789063,54.0925781 C20.0984766,53.8906641 15.6960938,52.6494141 12.3534375,47.5126172 L12.8280469,47.3667187 Z M7.01460938,58.1211328 L2.94363281,58.1211328 C2.35652344,58.1211328 1.87886719,57.6434766 1.87886719,57.0563672 L1.87886719,53.0021484 C1.87886719,52.4704687 2.01445313,51.9670312 2.25527344,51.5260547 L6.2709375,54.8723437 C6.74355469,55.2662109 7.01460938,55.845 7.01460938,56.4601172 L7.01460938,58.1211328 Z M33.0689062,56.4602344 L33.0689062,58.1210156 L8.89347656,58.1210156 L8.89347656,56.4602344 C8.89347656,55.2856641 8.37597656,54.1808203 7.47375,53.4290625 L3.63445313,50.2296094 C3.76605469,50.1676172 3.90269531,50.1127734 4.04519531,50.0689453 L10.4913281,48.0856641 C14.6621484,54.8784375 20.5702734,55.9361719 20.8265625,55.9788281 C20.8776563,55.9873828 20.9292188,55.9916016 20.9810156,55.9916016 C21.0328125,55.9916016 21.084375,55.9873828 21.1354688,55.9788281 C21.3917578,55.9360547 27.3001172,54.8784375 31.4707031,48.0856641 L37.9168359,50.0690625 C38.0593359,50.1128906 38.1958594,50.1677344 38.3275781,50.2297266 L34.4885156,53.4291797 C33.5864062,54.1809375 33.0689062,55.2856641 33.0689062,56.4602344 Z M40.0835156,57.0563672 C40.0835156,57.6434766 39.6058594,58.1211328 39.01875,58.1211328 L34.9477734,58.1211328 L34.9477734,56.4603516 C34.9477734,55.8451172 35.2188281,55.2663281 35.6914453,54.8725781 L39.7071094,51.5262891 C39.9479297,51.9671484 40.0835156,52.4705859 40.0835156,53.0023828 L40.0835156,57.0563672 Z" id="Shape"></path>
                </g>
            </g>
        </g>
    </g>
</svg>