<?xml version="1.0" encoding="UTF-8"?>
<svg width="110px" height="120px" viewBox="0 0 110 120" version="1.1" xmlns="http://www.w3.org/2000/svg" xmlns:xlink="http://www.w3.org/1999/xlink">
    <!-- Generator: Sketch 47.1 (45422) - http://www.bohemiancoding.com/sketch -->
    <title>warranty</title>
    <desc>Created with Sketch.</desc>
    <defs></defs>
    <g id="Page-1" stroke="none" stroke-width="1" fill="none" fill-rule="evenodd">
        <g id="china_consulting" transform="translate(-265.000000, -2187.000000)" fill-rule="nonzero" fill="#217DD1">
            <g id="warranty" transform="translate(265.000000, 2187.000000)">
                <path d="M107.212266,19.7660156 L107.052656,19.738125 C88.8335156,16.5435938 71.6013281,10.0190625 55.8349219,0.346171875 C55.0814063,-0.116015625 54.1317188,-0.1153125 53.3791406,0.34875 C37.7226562,10.00125 20.5985156,16.5058594 2.48226562,19.6825781 L2.00578125,19.7660156 C0.88453125,19.9626562 0.066796875,20.93625 0.066796875,22.0746094 L0.066796875,52.7533594 C0.066796875,68.3791406 5.46,83.6903906 15.253125,95.866875 C25.0460156,108.043125 38.844375,116.594531 54.1064062,119.945625 C54.2723438,119.981719 54.440625,120 54.609375,120 C54.7783594,120 54.9473438,119.981719 55.1132812,119.945391 C70.3767187,116.586562 84.1755469,108.028359 93.9672656,95.8474219 C103.759219,83.6664844 109.151953,68.3510156 109.151953,52.7221875 L109.151953,22.0746094 C109.151953,20.9357813 108.33375,19.9621875 107.212266,19.7660156 Z M104.464687,52.7221875 C104.464687,82.4285156 83.5298437,108.643359 54.6089063,115.254375 C25.6886719,108.657422 4.75429687,82.4561719 4.75429687,52.7533594 L4.75429687,24.035625 C22.445625,20.754375 39.2064844,14.3845313 54.6126563,5.08710938 C70.0326563,14.3500781 86.7878906,20.7171094 104.464687,24.0321094 L104.464687,52.7221875 Z" id="Shape"></path>
                <g id="Group" transform="translate(10.546875, 12.187500)">
                    <path d="M44.0092969,4.84195313 C44.4021094,4.84195313 44.8000781,4.74304688 45.1659375,4.53515625 L45.1898437,4.52179688 C45.1907812,4.52109375 45.2097656,4.51054688 45.2107031,4.51007813 C46.3385156,3.8765625 46.7308594,2.45367188 46.0982812,1.32539063 C45.4652344,0.196875 44.02875,-0.199921875 42.9002344,0.431484375 L42.8486719,0.460546875 C41.7234375,1.10039063 41.3301562,2.53125 41.97,3.65648438 C42.4019531,4.41585938 43.1939062,4.84195313 44.0092969,4.84195313 Z" id="Shape"></path>
                    <path d="M33.6902344,5.20828125 C23.5767187,10.0319531 12.8964844,13.7592187 1.94648438,16.2857812 C0.882890625,16.5311719 0.129609375,17.4780469 0.129609375,18.5695312 L0.129609375,40.5342187 C0.129609375,43.0732031 0.3009375,45.6367969 0.638203125,48.1535156 C0.795703125,49.3307813 1.801875,50.1860156 2.95804688,50.1860156 C3.06164062,50.1860156 3.16664063,50.1792188 3.27234375,50.1649219 C4.5553125,49.9928906 5.45578125,48.8135156 5.28375,47.5305469 C4.97390625,45.2196094 4.816875,42.8655469 4.816875,40.5342188 L4.816875,20.4227344 C15.4633594,17.8338281 25.8473438,14.1424219 35.7079687,9.43921875 C36.8765625,8.88210938 37.3717969,7.483125 36.8146875,6.31476563 C36.2571094,5.14640625 34.8578906,4.65140625 33.6902344,5.20828125 Z" id="Shape"></path>
                    <path d="M85.6516406,16.2257813 C84.3574219,16.2257813 83.3078906,17.2750781 83.3078906,18.5695313 L83.3078906,40.5342188 C83.3078906,61.3715625 70.9964062,80.49 51.9426562,89.2408594 C50.7665625,89.7810938 50.2507031,91.1725781 50.7909375,92.3489063 C51.1858594,93.2083594 52.035,93.7150781 52.9223437,93.7150781 C53.2497656,93.7150781 53.5823437,93.6461719 53.8989844,93.500625 C63.9457031,88.8864844 72.4736719,81.4999219 78.5617969,72.1394531 C84.7333594,62.6505469 87.9953906,51.7216406 87.9953906,40.5342188 L87.9953906,18.5695312 C87.9953906,17.2753125 86.9458594,16.2257813 85.6516406,16.2257813 Z" id="Shape"></path>
                    <path d="M43.550625,92.265 L43.4613281,92.2886719 C42.2102344,92.6207812 41.4651562,93.9039844 41.7972656,95.1550781 C42.0757031,96.2050781 43.02375,96.8983594 44.0608594,96.8983594 C44.2598437,96.8983594 44.4623437,96.8730469 44.6636719,96.819375 L44.7529687,96.7957031 C46.0040625,96.4635937 46.7491406,95.1803906 46.4170312,93.9292969 C46.0849219,92.6775 44.8010156,91.9328906 43.550625,92.265 Z" id="Shape"></path>
                </g>
                <path d="M86.0409375,60.4359375 C87.56625,57.9567188 87.1835156,54.79875 85.1097656,52.7561719 L82.6746094,50.3573437 C82.3563281,50.0439844 82.1922656,49.6089844 82.2239062,49.1639062 L82.4678906,45.7371094 C82.6755469,42.8203125 80.8652344,40.1936719 78.065625,39.3494531 L74.840625,38.3772656 C74.4105469,38.2476562 74.0613281,37.936875 73.8825,37.5246094 L72.5327344,34.4104687 C71.3800781,31.7524219 68.4794531,30.2289844 65.638125,30.7860937 L62.3657812,31.4282812 C61.9235156,31.515 61.4671875,31.4025 61.115625,31.1186719 L58.51125,29.0158594 C56.2502344,27.1907813 52.96875,27.1903125 50.7079687,29.0158594 L48.103125,31.1189063 C47.7517969,31.4027344 47.2954687,31.515 46.8529687,31.4282812 L43.580625,30.7863281 C40.738125,30.2282812 37.8382031,31.7524219 36.68625,34.41 L35.3355469,37.5250781 C35.1567187,37.936875 34.8077344,38.2476562 34.3776562,38.3772656 L31.1533594,39.3494531 C28.35375,40.1934375 26.5434375,42.8200781 26.7510937,45.7371094 L26.9950781,49.1636719 C27.0267187,49.6089844 26.8624219,50.0439844 26.5446094,50.3571094 L24.1092187,52.7561719 C22.0354687,54.7989844 21.6525,57.9569531 23.1780469,60.4359375 L24.97875,63.3621094 C25.2124219,63.7415625 25.2679687,64.2028125 25.1317969,64.6267969 L24.0778125,67.9035937 C23.1855469,70.6790625 24.3133594,73.6570313 26.82,75.1453125 L29.7386719,76.8782813 C30.12375,77.1070313 30.3876562,77.4911719 30.4628906,77.9322656 L31.0371094,81.3016406 C31.5302344,84.1938281 33.9210937,86.315625 36.8514844,86.4611719 L40.1946094,86.6273438 C40.6446094,86.6498438 41.0592187,86.8682813 41.3320312,87.2271094 L43.3701562,89.9085938 C44.5701562,91.4875781 46.4355469,92.3547656 48.3360937,92.3547656 C49.2185156,92.3547656 50.1086719,92.1677344 50.9428125,91.7775 L53.9648437,90.3663281 C54.3745312,90.1750781 54.8442187,90.1753125 55.2539062,90.3663281 L58.2757031,91.7775 C60.9072656,93.0060938 64.0921875,92.22 65.8488281,89.9078906 L67.88625,87.226875 C68.1590625,86.8680469 68.5736719,86.649375 69.0236719,86.6271094 L72.3675,86.4609375 C75.2978906,86.3153906 77.68875,84.1935938 78.181875,81.3014062 L78.7560937,77.9322656 C78.8313281,77.4909375 79.0952344,77.1067969 79.4803125,76.8782813 L82.3989844,75.1453125 C84.905625,73.6570312 86.0334375,70.6790625 85.1409375,67.9033594 L84.0874219,64.6272656 C83.9510156,64.2028125 84.0065625,63.7417969 84.24,63.3623438 L86.0409375,60.4359375 Z M82.0488281,57.9796875 L80.2476562,60.9063281 C79.2960937,62.4534375 79.0689844,64.3326563 79.6249219,66.0623438 L80.6784375,69.3386719 C80.8975781,70.0195312 80.6207812,70.7500781 80.0057812,71.1152344 L77.0871094,72.8482031 C75.5177344,73.7798438 74.4421875,75.3459375 74.1353906,77.145 L73.5611719,80.5141406 C73.44,81.2233594 72.8535938,81.7439063 72.135,81.7795313 L68.7911719,81.9457031 C66.9560156,82.0371094 65.2657031,82.9284375 64.1542969,84.3911719 L62.116875,87.0724219 C61.6858594,87.639375 60.9049219,87.8325 60.2594531,87.5310938 L57.2376563,86.1199219 C55.5672656,85.3399219 53.6519531,85.3399219 51.9815625,86.1199219 L48.9595313,87.5310938 C48.3135938,87.8322656 47.5328906,87.6391406 47.1021094,87.0724219 L45.06375,84.3904688 C43.9521094,82.9279688 42.2622656,82.036875 40.4273438,81.9457031 L37.0842188,81.7795313 C36.365625,81.7439063 35.7792188,81.2233594 35.6580469,80.5141406 L35.0838281,77.1447656 C34.7770313,75.3457031 33.70125,73.7798438 32.1321094,72.8479688 L29.2134375,71.115 C28.5984375,70.7498438 28.3216406,70.0192969 28.5405469,69.3386719 L29.5945313,66.0616406 C30.1502344,64.3324219 29.9233594,62.4532031 28.9713281,60.9058594 L27.1703906,57.9794531 C26.7963281,57.3714844 26.8903125,56.596875 27.3989063,56.0957813 L29.8345313,53.6967188 C31.130625,52.4196094 31.8002344,50.6463281 31.6708594,48.8310938 L31.426875,45.4045313 C31.3760156,44.6889844 31.8199219,44.0446875 32.5066406,43.8377344 L35.7309375,42.8655469 C37.4845313,42.3367969 38.908125,41.0697656 39.6363281,39.3897656 L40.9870313,36.2749219 C41.2305469,35.7133594 41.7921094,35.3580469 42.3888281,35.3580469 C42.4846875,35.3580469 42.5814844,35.3671875 42.6780469,35.3861719 L45.9501563,36.028125 C47.7578906,36.3832031 49.6153125,35.923125 51.0478125,34.7660156 L53.6526563,32.6632031 C54.2069531,32.2155469 55.0120313,32.2155469 55.5667969,32.6632031 L58.1711719,34.7660156 C59.6036719,35.9228906 61.4615625,36.3825 63.2688281,36.0283594 L66.5409375,35.3861719 C67.2372656,35.2490625 67.9495313,35.6233594 68.2321875,36.2751563 L69.5819531,39.3892969 C70.3103906,41.0697656 71.7342188,42.3370313 73.4875781,42.8655469 L76.7125781,43.8377344 C77.3990625,44.0446875 77.8432031,44.6892188 77.7923438,45.4045313 L77.5483594,48.8313281 C77.4189844,50.6463281 78.0885938,52.4196094 79.3849219,53.6969531 L81.8203125,56.0960156 C82.3289062,56.5973438 82.423125,57.3717188 82.0488281,57.9796875 Z" id="Shape"></path>
                <path d="M60.7113281,48.0154688 C59.5844531,47.3789063 58.1547656,47.7766406 57.5182031,48.9042188 L44.9160937,71.2272656 C44.2797656,72.3546094 44.6775,73.7840625 45.8048437,74.4203906 C46.1688281,74.6259375 46.5644531,74.7236719 46.9549219,74.7236719 C47.7728906,74.7236719 48.5671875,74.2947656 48.9979688,73.5316406 L61.6000781,51.2085938 C62.2364063,50.08125 61.8386719,48.6517969 60.7113281,48.0154688 Z" id="Shape"></path>
                <path d="M62.7989063,62.000625 C58.921875,62.000625 55.7676563,65.1548438 55.7676563,69.031875 C55.7676563,72.9089062 58.921875,76.063125 62.7989063,76.063125 C66.6759375,76.063125 69.8301563,72.9089062 69.8301563,69.031875 C69.8301563,65.1548438 66.6759375,62.000625 62.7989063,62.000625 Z M62.7989063,71.375625 C61.5065625,71.375625 60.4551563,70.3242188 60.4551563,69.031875 C60.4551563,67.7395312 61.5065625,66.688125 62.7989063,66.688125 C64.09125,66.688125 65.1426563,67.7395312 65.1426563,69.031875 C65.1426563,70.3242188 64.09125,71.375625 62.7989063,71.375625 Z" id="Shape"></path>
                <path d="M46.4200781,43.9366406 C42.5430469,43.9366406 39.3888281,47.0908594 39.3888281,50.9678906 C39.3888281,54.8449219 42.5430469,57.9991406 46.4200781,57.9991406 C50.2971094,57.9991406 53.4513281,54.8449219 53.4513281,50.9678906 C53.4513281,47.090625 50.2971094,43.9366406 46.4200781,43.9366406 Z M46.4200781,53.3116406 C45.1277344,53.3116406 44.0763281,52.2602344 44.0763281,50.9678906 C44.0763281,49.6755469 45.1277344,48.6241406 46.4200781,48.6241406 C47.7124219,48.6241406 48.7638281,49.6755469 48.7638281,50.9678906 C48.7638281,52.2602344 47.7124219,53.3116406 46.4200781,53.3116406 Z" id="Shape"></path>
            </g>
        </g>
    </g>
</svg>