<?xml version="1.0" encoding="UTF-8"?>
<svg width="5350px" height="1587px" viewBox="0 0 5350 1587" version="1.1" xmlns="http://www.w3.org/2000/svg" xmlns:xlink="http://www.w3.org/1999/xlink">
    <!-- Generator: Sketch 47.1 (45422) - http://www.bohemiancoding.com/sketch -->
    <title>Group 8</title>
    <desc>Created with Sketch.</desc>
    <defs></defs>
    <g id="Page-1" stroke="none" stroke-width="1" fill="none" fill-rule="evenodd">
        <g id="Group-8">
            <path d="M15.5715648,733.607927 C21.8071513,772.52895 21.5894389,966.223693 40.7856481,1108.40877 C59.9818572,1250.59385 142.277895,1439.8346 207.913072,1486.05821 C273.548249,1532.28182 270.410376,1574.01523 472.29411,1585.3773 C606.883266,1592.95201 727.010487,1546.92092 832.675772,1447.28402 C904.433841,1340.37005 942.893906,1256.23111 948.055966,1194.8672 C950.880334,1161.29257 937.427696,1087.55052 931.573128,1029.62558 C921.377219,928.747536 927.403108,840.997856 941.20165,794.161164 C962.923418,720.430493 1007.65044,579.469771 998.871563,539.367903 C990.092686,499.266036 969.65513,491.295063 948.055966,493.914317 C926.456802,496.533572 903.708745,507.993454 875.576201,547.868903 C847.443658,587.744351 817.854829,681.4785 816.434566,733.607927 C815.014302,785.737353 807.470437,883.833325 789.022446,916.555996 C770.574455,949.278667 758.785236,967.834722 747.212145,927.228558 C735.639054,886.622394 733.189613,710.707792 734.126164,676.238105 C735.062715,641.768417 747.212145,342.450391 747.212145,291.799463 C747.212145,241.148534 710.182369,139.496359 661.492023,148.080091 C612.801676,156.663823 612.801676,177.936505 597.050127,231.705839 C581.298579,285.475172 626.139921,497.675553 612.801676,746.638933 C609.109621,815.552533 592.048329,896.755988 562.989526,867.4598 C543.616991,847.929008 540.128083,704.579914 552.5228,437.41252 C551.99792,153.980704 531.549895,8.66267734 491.178726,1.45844086 C430.621973,-9.34791386 411.319765,42.2241276 405.63871,79.387696 C399.957655,116.551265 426.262428,468.264376 405.63871,816.3039 C403.515051,852.142117 383.32616,887.188441 360.143957,847.143178 C344.689154,820.446336 340.109318,767.339106 346.404448,687.821488 C356.795702,359.068163 350.40623,185.960652 327.236033,168.498955 C292.480738,142.30641 248.673835,146.634098 228.965102,176.68091 C215.825947,196.712118 206.571934,257.042452 201.203062,357.671914 C205.676402,691.438595 207.913072,881.29081 207.913072,927.228558 C207.913072,996.13518 258.15834,1227.7678 279.034546,1252.01098 C299.910751,1276.25415 332.932526,1363.10057 464.991327,1385.95317 C597.050127,1408.80577 630.700867,1348.81756 661.492023,1326.02592 C692.283178,1303.23427 722.927956,1201.51465 697.194445,1134.26509 C671.460933,1067.01553 595.846509,1045.27927 534.502435,1054.75799 C473.158362,1064.23671 456.740282,1100.35963 453.658692,1104.05315 C450.577103,1107.74668 395.486152,1223.24575 562.989526,1225.02596 C568.890999,1225.08869 591.782066,1205.46377 568.727186,1188.90186 C545.672306,1172.33996 504.68213,1167.09734 508.896608,1153.99078 C513.111087,1140.88421 540.316765,1123.84761 562.989526,1129.33312 C564.750139,1129.75909 623.220824,1140.38886 624.122619,1169.20857 C625.100337,1200.45464 603.623217,1248.05894 575.907743,1261.10965 C548.19227,1274.16037 509.770873,1300.49732 459.081517,1276.25415 C408.392161,1252.01098 364.014677,1201.52131 367.853615,1142.7593 C371.692554,1083.99729 390.461649,1049.34459 438.218091,1012.72226 C485.974532,976.099934 519.070108,954.013757 565.935892,955.996178 C612.801676,957.978598 696.425667,994.494396 717.649728,1020.23598 C738.873788,1045.97757 772.254844,1127.40618 769.141441,1176.29877 C766.028038,1225.19136 767.289191,1281.92187 730.463973,1326.02592 C693.638756,1370.12997 643.68886,1411.40072 624.122619,1420.22182 C604.556378,1429.04292 536.170371,1462.70022 438.218091,1436.4703 C340.265811,1410.24038 258.656851,1372.10764 221.524531,1308.8218 C184.392212,1245.53597 137.990039,1070.19451 137.990039,1012.72226 C137.990039,955.250015 132.410124,778.787044 104.850755,733.607927 C77.2913861,688.428809 47.2532221,675.394907 15.5715648,663.227913 C-16.1100925,651.060919 9.33597826,694.686903 15.5715648,733.607927 Z" id="Path-3" fill="#F6C575"></path>
            <path d="M1237,1059 C1261.66679,1026.99984 1299.66641,1011 1351,1011 C1395.66689,1011 1430.99987,1031.66646 1457,1073 C1482.33346,1031.66646 1523.33305,1011 1580,1011 C1663.33375,1011 1705,1064.99946 1705,1173 L1705,1419 L1609,1419 L1609,1211 C1609,1126.99958 1586.00023,1085 1540,1085 C1493.99977,1085 1471,1131.6662 1471,1225 L1471,1419 L1374,1419 L1374,1219 C1374,1129.66622 1353.66687,1085 1313,1085 C1262.33308,1085 1237,1131.6662 1237,1225 L1237,1419 L1140,1419 L1140,1024 L1237,1024 L1237,1059 Z M2160,1419 L2065,1419 L2065,1383 C2036.99986,1415.66683 1995.33361,1432 1940,1432 C1884.66639,1432 1840.50016,1410.66688 1807.5,1368 C1774.49984,1325.33312 1758,1275.33362 1758,1218 C1758,1160.66638 1774.83317,1111.83353 1808.5,1071.5 C1842.16683,1031.16647 1885.33307,1011 1938,1011 C1994.00028,1011 2036.33319,1027.6665 2065,1061 L2065,1024 L2160,1024 L2160,1419 Z M2076,1221 C2076,1184.33315 2065.66677,1154.16678 2045,1130.5 C2024.33323,1106.83322 1997.83349,1095 1965.5,1095 C1933.16651,1095 1906.83344,1106.49988 1886.5,1129.5 C1866.16656,1152.50012 1856,1182.99981 1856,1221 C1856,1259.00019 1866.33323,1289.66655 1887,1313 C1907.66677,1336.33345 1934.33317,1348 1967,1348 C1999.66683,1348 2025.9999,1336.66678 2046,1314 C2066.0001,1291.33322 2076,1260.33353 2076,1221 Z M2452,1106 C2430.66656,1085.9999 2408.33345,1076 2385,1076 C2349.66649,1076 2332,1091.99984 2332,1124 C2332,1142.00009 2347.99984,1156.66661 2380,1168 C2438.66696,1189.33344 2474.99993,1208.83325 2489,1226.5 C2503.00007,1244.16675 2510,1265.99987 2510,1292 C2510,1334.66688 2495.16682,1368.66654 2465.5,1394 C2435.83318,1419.33346 2399.33355,1432 2356,1432 C2299.99972,1432 2253.66685,1410.00022 2217,1366 L2260,1311 C2293.3335,1344.3335 2323.99986,1361 2352,1361 C2392.66687,1361 2413,1341.33353 2413,1302 C2413,1281.9999 2402.33344,1267.16672 2381,1257.5 C2359.66656,1247.83328 2343.33339,1240.66669 2332,1236 C2270.66636,1209.3332 2240,1177.00019 2240,1139 C2240,1100.99981 2251.49989,1070.16678 2274.5,1046.5 C2297.50011,1022.83321 2327.66648,1011 2365,1011 C2418.3336,1011 2460.66651,1024.66653 2492,1052 L2452,1106 Z M2782,1106 C2760.66656,1085.9999 2738.33345,1076 2715,1076 C2679.66649,1076 2662,1091.99984 2662,1124 C2662,1142.00009 2677.99984,1156.66661 2710,1168 C2768.66696,1189.33344 2804.99993,1208.83325 2819,1226.5 C2833.00007,1244.16675 2840,1265.99987 2840,1292 C2840,1334.66688 2825.16682,1368.66654 2795.5,1394 C2765.83318,1419.33346 2729.33355,1432 2686,1432 C2629.99972,1432 2583.66685,1410.00022 2547,1366 L2590,1311 C2623.3335,1344.3335 2653.99986,1361 2682,1361 C2722.66687,1361 2743,1341.33353 2743,1302 C2743,1281.9999 2732.33344,1267.16672 2711,1257.5 C2689.66656,1247.83328 2673.33339,1240.66669 2662,1236 C2600.66636,1209.3332 2570,1177.00019 2570,1139 C2570,1100.99981 2581.49989,1070.16678 2604.5,1046.5 C2627.50011,1022.83321 2657.66648,1011 2695,1011 C2748.3336,1011 2790.66651,1024.66653 2822,1052 L2782,1106 Z M3275,1419 L3180,1419 L3180,1383 C3151.99986,1415.66683 3110.33361,1432 3055,1432 C2999.66639,1432 2955.50016,1410.66688 2922.5,1368 C2889.49983,1325.33312 2873,1275.33362 2873,1218 C2873,1160.66638 2889.83317,1111.83353 2923.5,1071.5 C2957.16683,1031.16647 3000.33307,1011 3053,1011 C3109.00028,1011 3151.33319,1027.6665 3180,1061 L3180,1024 L3275,1024 L3275,1419 Z M3191,1221 C3191,1184.33315 3180.66677,1154.16678 3160,1130.5 C3139.33323,1106.83322 3112.83349,1095 3080.5,1095 C3048.16651,1095 3021.83343,1106.49988 3001.5,1129.5 C2981.16656,1152.50012 2971,1182.99981 2971,1221 C2971,1259.00019 2981.33323,1289.66655 3002,1313 C3022.66677,1336.33345 3049.33317,1348 3082,1348 C3114.66683,1348 3140.9999,1336.66678 3161,1314 C3181.0001,1291.33322 3191,1260.33353 3191,1221 Z M3690,1340 L3690,1419 L3323,1419 L3536,1103 L3347,1103 L3347,1024 L3695,1024 L3485,1340 L3690,1340 Z M3840,736 L3840,1057 C3865.33346,1026.33318 3905.66639,1011 3961,1011 C4002.33354,1011 4035.33321,1026.99984 4060,1059 C4084.66679,1091.00016 4097,1130.66643 4097,1178 L4097,1419 L4001,1419 L4001,1210 C4001,1126.66625 3975.33359,1085 3924,1085 C3867.99972,1085 3840,1130.99954 3840,1223 L3840,1419 L3743,1419 L3743,736 L3840,736 Z" id="massazh" fill="#217DD1"></path>
            <g id="Group-7" transform="translate(4238.000000, 853.000000)" fill="#217DD1">
                <path d="M45,0 L1067,0 C1091.85281,-4.56538782e-15 1112,20.1471863 1112,45 L1112,680 C1112,704.852814 1091.85281,725 1067,725 L45,725 C20.1471863,725 -5.3799827e-14,704.852814 -5.68434189e-14,680 L0,45 L0,45 C-3.04359188e-15,20.1471863 20.1471863,4.56538782e-15 45,0 L45,0 Z M318.316406,246.816406 C336.285246,235.292911 355.913956,229.53125 377.203125,229.53125 C398.101667,229.53125 417.730377,235.292911 436.089844,246.816406 C454.058684,258.339901 468.316354,273.574124 478.863281,292.519531 C489.410209,311.464938 494.683594,331.386614 494.683594,352.285156 C494.683594,372.988385 489.410209,392.910061 478.863281,412.050781 C467.925727,431.386815 453.570401,446.718693 435.796875,458.046875 C417.828035,469.57037 398.29698,475.332031 377.203125,475.332031 C355.913956,475.332031 336.285246,469.57037 318.316406,458.046875 C300.54288,446.718693 286.28521,431.386815 275.542969,412.050781 C264.800728,393.105374 259.429688,373.183698 259.429688,352.285156 C259.429688,331.386614 264.703072,311.464938 275.25,292.519531 C285.796928,273.378811 300.152253,258.144588 318.316406,246.816406 Z M487.066406,163.613281 C453.472488,144.277247 416.851761,134.609375 377.203125,134.609375 C337.749803,134.609375 301.129075,144.277247 267.339844,163.613281 C233.355299,183.339942 206.597754,209.706866 187.066406,242.714844 C167.339745,276.308762 157.476562,312.831834 157.476562,352.285156 C157.476562,391.933792 167.339745,428.359209 187.066406,461.5625 C206.597754,494.765791 233.355299,521.132715 267.339844,540.664062 C301.129075,560.000097 337.749803,569.667969 377.203125,569.667969 C416.851761,569.667969 453.472488,560.000097 487.066406,540.664062 C520.855638,521.328028 547.515527,494.961104 567.046875,461.5625 C586.773536,428.359209 596.636719,391.933792 596.636719,352.285156 C596.636719,312.831834 586.773536,276.308762 567.046875,242.714844 C547.515527,209.511553 520.855638,183.144629 487.066406,163.613281 Z M708.84375,373.378906 L830.71875,559.707031 L940.875,559.707031 L808.746094,358.4375 L939.996094,143.984375 L830.132812,143.984375 L708.84375,342.324219 L708.84375,143.984375 L611.285156,143.984375 L611.285156,559.707031 L708.84375,559.707031 L708.84375,373.378906 Z" id="Combined-Shape"></path>
            </g>
        </g>
    </g>
</svg>