<?xml version="1.0" encoding="UTF-8"?>
<svg width="5351px" height="1588px" viewBox="0 0 5351 1588" version="1.1" xmlns="http://www.w3.org/2000/svg" xmlns:xlink="http://www.w3.org/1999/xlink">
    <!-- Generator: Sketch 47.1 (45422) - http://www.bohemiancoding.com/sketch -->
    <title>Group 8</title>
    <desc>Created with Sketch.</desc>
    <defs></defs>
    <g id="Page-1" stroke="none" stroke-width="1" fill="none" fill-rule="evenodd">
        <g id="Group-8" transform="translate(1.000000, 1.000000)" fill="#0F365A">
            <path d="M15.5715648,733.607927 C21.8071513,772.52895 21.5894389,966.223693 40.7856481,1108.40877 C59.9818572,1250.59385 142.277895,1439.8346 207.913072,1486.05821 C273.548249,1532.28182 270.410376,1574.01523 472.29411,1585.3773 C606.883266,1592.95201 727.010487,1546.92092 832.675772,1447.28402 C904.433841,1340.37005 942.893906,1256.23111 948.055966,1194.8672 C950.880334,1161.29257 937.427696,1087.55052 931.573128,1029.62558 C921.377219,928.747536 927.403108,840.997856 941.20165,794.161164 C962.923418,720.430493 1007.65044,579.469771 998.871563,539.367903 C990.092686,499.266036 969.65513,491.295063 948.055966,493.914317 C926.456802,496.533572 903.708745,507.993454 875.576201,547.868903 C847.443658,587.744351 817.854829,681.4785 816.434566,733.607927 C815.014302,785.737353 807.470437,883.833325 789.022446,916.555996 C770.574455,949.278667 758.785236,967.834722 747.212145,927.228558 C735.639054,886.622394 733.189613,710.707792 734.126164,676.238105 C735.062715,641.768417 747.212145,342.450391 747.212145,291.799463 C747.212145,241.148534 710.182369,139.496359 661.492023,148.080091 C612.801676,156.663823 612.801676,177.936505 597.050127,231.705839 C581.298579,285.475172 626.139921,497.675553 612.801676,746.638933 C609.109621,815.552533 592.048329,896.755988 562.989526,867.4598 C543.616991,847.929008 540.128083,704.579914 552.5228,437.41252 C551.99792,153.980704 531.549895,8.66267734 491.178726,1.45844086 C430.621973,-9.34791386 411.319765,42.2241276 405.63871,79.387696 C399.957655,116.551265 426.262428,468.264376 405.63871,816.3039 C403.515051,852.142117 383.32616,887.188441 360.143957,847.143178 C344.689154,820.446336 340.109318,767.339106 346.404448,687.821488 C356.795702,359.068163 350.40623,185.960652 327.236033,168.498955 C292.480738,142.30641 248.673835,146.634098 228.965102,176.68091 C215.825947,196.712118 206.571934,257.042452 201.203062,357.671914 C205.676402,691.438595 207.913072,881.29081 207.913072,927.228558 C207.913072,996.13518 258.15834,1227.7678 279.034546,1252.01098 C299.910751,1276.25415 332.932526,1363.10057 464.991327,1385.95317 C597.050127,1408.80577 630.700867,1348.81756 661.492023,1326.02592 C692.283178,1303.23427 722.927956,1201.51465 697.194445,1134.26509 C671.460933,1067.01553 595.846509,1045.27927 534.502435,1054.75799 C473.158362,1064.23671 456.740282,1100.35963 453.658692,1104.05315 C450.577103,1107.74668 395.486152,1223.24575 562.989526,1225.02596 C568.890999,1225.08869 591.782066,1205.46377 568.727186,1188.90186 C545.672306,1172.33996 504.68213,1167.09734 508.896608,1153.99078 C513.111087,1140.88421 540.316765,1123.84761 562.989526,1129.33312 C564.750139,1129.75909 623.220824,1140.38886 624.122619,1169.20857 C625.100337,1200.45464 603.623217,1248.05894 575.907743,1261.10965 C548.19227,1274.16037 509.770873,1300.49732 459.081517,1276.25415 C408.392161,1252.01098 364.014677,1201.52131 367.853615,1142.7593 C371.692554,1083.99729 390.461649,1049.34459 438.218091,1012.72226 C485.974532,976.099934 519.070108,954.013757 565.935892,955.996178 C612.801676,957.978598 696.425667,994.494396 717.649728,1020.23598 C738.873788,1045.97757 772.254844,1127.40618 769.141441,1176.29877 C766.028038,1225.19136 767.289191,1281.92187 730.463973,1326.02592 C693.638756,1370.12997 643.68886,1411.40072 624.122619,1420.22182 C604.556378,1429.04292 536.170371,1462.70022 438.218091,1436.4703 C340.265811,1410.24038 258.656851,1372.10764 221.524531,1308.8218 C184.392212,1245.53597 137.990039,1070.19451 137.990039,1012.72226 C137.990039,955.250015 132.410124,778.787044 104.850755,733.607927 C77.2913861,688.428809 47.2532221,675.394907 15.5715648,663.227913 C-16.1100925,651.060919 9.33597826,694.686903 15.5715648,733.607927 Z" id="Path-3" stroke="#979797"></path>
            <text id="massazh" font-family="LiGothicMed, Apple LiGothic" font-size="1000" font-weight="400">
                <tspan x="1100" y="1419">massazh</tspan>
            </text>
            <g id="Group-7" transform="translate(4238.000000, 853.000000)">
                <path d="M45,0 L1067,0 C1091.85281,-4.56538782e-15 1112,20.1471863 1112,45 L1112,680 C1112,704.852814 1091.85281,725 1067,725 L45,725 C20.1471863,725 -5.3799827e-14,704.852814 -5.68434189e-14,680 L0,45 L0,45 C-3.04359188e-15,20.1471863 20.1471863,4.56538782e-15 45,0 L45,0 Z M318.316406,246.816406 C336.285246,235.292911 355.913956,229.53125 377.203125,229.53125 C398.101667,229.53125 417.730377,235.292911 436.089844,246.816406 C454.058684,258.339901 468.316354,273.574124 478.863281,292.519531 C489.410209,311.464938 494.683594,331.386614 494.683594,352.285156 C494.683594,372.988385 489.410209,392.910061 478.863281,412.050781 C467.925727,431.386815 453.570401,446.718693 435.796875,458.046875 C417.828035,469.57037 398.29698,475.332031 377.203125,475.332031 C355.913956,475.332031 336.285246,469.57037 318.316406,458.046875 C300.54288,446.718693 286.28521,431.386815 275.542969,412.050781 C264.800728,393.105374 259.429688,373.183698 259.429688,352.285156 C259.429688,331.386614 264.703072,311.464938 275.25,292.519531 C285.796928,273.378811 300.152253,258.144588 318.316406,246.816406 Z M487.066406,163.613281 C453.472488,144.277247 416.851761,134.609375 377.203125,134.609375 C337.749803,134.609375 301.129075,144.277247 267.339844,163.613281 C233.355299,183.339942 206.597754,209.706866 187.066406,242.714844 C167.339745,276.308762 157.476562,312.831834 157.476562,352.285156 C157.476562,391.933792 167.339745,428.359209 187.066406,461.5625 C206.597754,494.765791 233.355299,521.132715 267.339844,540.664062 C301.129075,560.000097 337.749803,569.667969 377.203125,569.667969 C416.851761,569.667969 453.472488,560.000097 487.066406,540.664062 C520.855638,521.328028 547.515527,494.961104 567.046875,461.5625 C586.773536,428.359209 596.636719,391.933792 596.636719,352.285156 C596.636719,312.831834 586.773536,276.308762 567.046875,242.714844 C547.515527,209.511553 520.855638,183.144629 487.066406,163.613281 Z M708.84375,373.378906 L830.71875,559.707031 L940.875,559.707031 L808.746094,358.4375 L939.996094,143.984375 L830.132812,143.984375 L708.84375,342.324219 L708.84375,143.984375 L611.285156,143.984375 L611.285156,559.707031 L708.84375,559.707031 L708.84375,373.378906 Z" id="Combined-Shape"></path>
            </g>
        </g>
    </g>
</svg>